<?xml version="1.0" encoding="UTF-8"?>
<svg width="24px" height="25px" viewBox="0 0 24 25" version="1.1" xmlns="http://www.w3.org/2000/svg" xmlns:xlink="http://www.w3.org/1999/xlink">
    <!-- Generator: Sketch 46.2 (44496) - http://www.bohemiancoding.com/sketch -->
    <title>extractor</title>
    <desc>Created with Sketch.</desc>
    <defs></defs>
    <g id="KBC-screens" stroke="none" stroke-width="1" fill="none" fill-rule="evenodd">
        <g id="KBC-Overview---deprecated-components-Copy" transform="translate(-334.000000, -177.000000)" fill="#FF9D52">
            <g id="deprecated-components" transform="translate(275.000000, 77.000000)">
                <path d="M81,125 L61,125 C59.8954305,125 59,124.104569 59,123 L59,103 C59,101.895431 59.8954305,101 61,101 L68,101 L68,103 L62,103 C61.4477153,103 61,103.447715 61,104 L61,122 C61,122.552285 61.4477153,123 62,123 L80,123 C80.5522847,123 81,122.552285 81,122 L81,104 C81,103.447715 80.5522847,103 80,103 L74,103 L74,101 L81,101 C82.1045695,101 83,101.895431 83,103 L83,123 C83,124.104569 82.1045695,125 81,125 Z M74.358,109.285 C74.7342826,108.919287 75.3344854,108.923451 75.7056577,109.29435 C76.0768299,109.665249 76.0814361,110.265448 75.716,110.642 L71.883,114.475 C71.8407872,114.563568 71.7843763,114.644638 71.716,114.715 C71.3089867,115.080424 70.6920133,115.080424 70.285,114.715 C70.2271119,114.649738 70.1786419,114.576697 70.141,114.498 L66.285,110.642 C65.9195639,110.265448 65.9241701,109.665249 66.2953423,109.29435 C66.6665146,108.923451 67.2667174,108.919287 67.643,109.285 L70,111.642 L70,101 C70,100.447715 70.4477153,100 71,100 C71.5522847,100 72,100.447715 72,101 L72,111.642 L74.358,109.285 Z" id="extractor"></path>
            </g>
        </g>
    </g>
</svg>