<?xml version="1.0" encoding="UTF-8"?>
<svg width="90px" height="90px" viewBox="0 0 94 94" version="1.1" xmlns="http://www.w3.org/2000/svg" xmlns:xlink="http://www.w3.org/1999/xlink">
    <!-- Generator: Sketch 46.2 (44496) - http://www.bohemiancoding.com/sketch -->
    <title>ic_error</title>
    <desc>Created with Sketch.</desc>
    <defs></defs>
    <g id="KBC-screens" stroke="none" stroke-width="1" fill="none" fill-rule="evenodd">
        <g id="KBC-Overview---deprecated-components-Copy" transform="translate(-969.000000, -77.000000)">
            <g id="deprecated-components" transform="translate(275.000000, 77.000000)">
                <g id="ic_error" transform="translate(692.000000, -2.000000)">
                    <g id="Icon-24px">
                        <polygon id="Shape" points="0 0 26.4827586 0 26.4827586 26.4827586 0 26.4827586"></polygon>
                        <path d="M49.1034483,2.20689655 C23.2165517,2.20689655 2.20689655,23.2165517 2.20689655,49.1034483 C2.20689655,74.9903448 23.2165517,96 49.1034483,96 C74.9903448,96 96,74.9903448 96,49.1034483 C96,23.2165517 74.9903448,2.20689655 49.1034483,2.20689655 L49.1034483,2.20689655 Z M52.9655172,72.8275862 L44.137931,72.8275862 L44.137931,62.8965517 L52.9655172,62.8965517 L52.9655172,72.8275862 L52.9655172,72.8275862 Z M52.9655172,52.9655172 L44.137931,52.9655172 L44.137931,25.3793103 L52.9655172,25.3793103 L52.9655172,52.9655172 L52.9655172,52.9655172 Z" id="Shape" fill="#FFD452"></path>
                    </g>
                </g>
            </g>
        </g>
    </g>
</svg>