<svg width="24" height="41" viewBox="0 0 24 41" fill="none" xmlns="http://www.w3.org/2000/svg">
<path fill-rule="evenodd" clip-rule="evenodd" d="M12.1598 25.629C17.4225 25.629 22.0536 18.7279 22.0536 9.98727C22.0536 1.24806 18.6857 0 12.1598 0C5.63403 0 1.94676 1.24806 1.94676 9.98727C1.94676 18.7279 6.37205 25.629 12.1598 25.629ZM11.4643 21.5863C11.4643 20.6895 10.705 19.9607 9.76833 19.9607C8.83163 19.9607 8.07233 20.6895 8.07233 21.5863C8.07233 22.4859 8.83163 23.2134 9.76833 23.2134C10.705 23.2134 11.4643 22.4859 11.4643 21.5863ZM15.9265 21.5863C15.9265 20.6895 15.1672 19.9607 14.2305 19.9607C13.2938 19.9607 12.5345 20.6895 12.5345 21.5863C12.5345 22.4859 13.2938 23.2134 14.2305 23.2134C15.1672 23.2134 15.9265 22.4859 15.9265 21.5863ZM21.4404 30.8059C22.2579 31.5472 23.0541 32.4496 23.7652 33.606C24.2406 34.3793 23.971 35.3775 23.1648 35.8328C22.8938 35.9855 22.5971 36.0577 22.3048 36.0577C21.7243 36.0577 21.158 35.7718 20.8415 35.2567C20.2951 34.371 19.7359 33.7407 19.1057 33.1646C18.5192 32.6309 17.8589 32.1489 17.1099 31.6023C17.0542 31.5616 16.998 31.5206 16.9413 31.4792C16.5411 31.189 16.1423 30.9378 15.7449 30.724C15.7917 30.8073 15.8386 30.892 15.8868 30.9794C17.0364 33.0951 18.2229 36.0314 18.2286 39.3757C18.2286 40.2725 17.4693 41 16.5326 41C15.5945 41 14.8351 40.2725 14.8351 39.3757C14.8408 36.8324 13.9098 34.3862 12.9277 32.5732C12.6097 31.9818 12.289 31.4598 11.9994 31.0238C11.7255 31.4389 11.4218 31.9318 11.1181 32.4871C10.1203 34.3085 9.15807 36.7935 9.16375 39.3757C9.16375 40.2725 8.40444 41 7.46772 41C6.53101 41 5.7717 40.2725 5.7717 39.3757C5.77738 36.0314 6.96247 33.0951 8.11349 30.9794C8.16033 30.892 8.20716 30.8073 8.25542 30.724C7.8566 30.9378 7.45921 31.189 7.05898 31.4792C7.00796 31.5164 6.95735 31.5533 6.90714 31.5899C6.15 32.1417 5.48423 32.6269 4.89459 33.1646C4.26444 33.7407 3.70382 34.371 3.15741 35.2581C2.68195 36.0314 1.64163 36.2882 0.835482 35.8328C0.0279185 35.3775 -0.240323 34.3793 0.235132 33.606C0.944766 32.4496 1.74239 31.5472 2.55989 30.8059C3.29809 30.1364 4.0409 29.5943 4.7665 29.0648C4.84584 29.0069 4.92497 28.9492 5.00387 28.8914C5.38282 28.6138 5.7717 28.3583 6.16909 28.1265C5.7717 27.8947 5.38282 27.6378 5.00387 27.3602C3.17302 26.0233 1.58202 24.2199 0.235132 22.0306C-0.240323 21.2559 0.0279185 20.2591 0.835482 19.8038C1.64163 19.3484 2.68195 19.6053 3.15741 20.3785C4.32404 22.2763 5.64822 23.7451 7.05756 24.7724C8.56908 25.8678 10.0536 26.4106 11.5808 26.4967C11.7199 26.4925 11.8604 26.4883 11.9994 26.4883C12.1399 26.4883 12.2789 26.4925 12.4179 26.4967L12.4181 26.4967C13.9453 26.4106 15.4312 25.8678 16.9413 24.7724C18.3507 23.7451 19.6763 22.2763 20.8415 20.3785C21.3184 19.6053 22.3573 19.3484 23.1648 19.8038C23.971 20.2591 24.2406 21.2559 23.7652 22.0292C22.4183 24.2199 20.8259 26.0233 18.995 27.3602C18.6161 27.6378 18.2272 27.8947 17.8312 28.1265C18.2272 28.3583 18.6161 28.6138 18.995 28.8914C19.0663 28.9436 19.1378 28.9957 19.2095 29.0479C19.9433 29.5828 20.693 30.1292 21.4404 30.8059Z" fill="#228DFF"/>
</svg>

