<?xml version="1.0" encoding="UTF-8"?>
<svg width="24px" height="24px" viewBox="0 0 24 24" version="1.1" xmlns="http://www.w3.org/2000/svg" xmlns:xlink="http://www.w3.org/1999/xlink">
    <title>transformation</title>
    <g id="KBC-screens" stroke="none" stroke-width="1" fill="#FF9D52" fill-rule="evenodd">
        <path d="M22 24H2a2 2 0 0 1-2-2V2a2 2 0 0 1 2-2h20a2 2 0 0 1 2 2v20a2 2 0 0 1-2 2zm0-21a1 1 0 0 0-1-1H3a1 1 0 0 0-1 1v18a1 1 0 0 0 1 1h18a1 1 0 0 0 1-1V3zm-3.113 10.1l-1.819.481a5.22 5.22 0 0 1-.367.873l.951 1.632c.363.46.363 1.108 0 1.568a1.248 1.248 0 0 1-1.565 0l-1.656-.967a5.359 5.359 0 0 1-.836.344l-.489 1.858A1.262 1.262 0 0 1 12 20a1.249 1.249 0 0 1-1.107-1.11l-.5-1.9c-.269-.089-.53-.2-.78-.331l-1.7.994a1.108 1.108 0 1 1-1.564-1.569l1.007-1.727a5.278 5.278 0 0 1-.309-.747l-1.934-.51a1.109 1.109 0 0 1 0-2.217l1.934-.509c.083-.256.187-.506.309-.746l-1.007-1.73a1.259 1.259 0 0 1 0-1.566 1.243 1.243 0 0 1 1.564 0l1.7.993c.25-.131.511-.242.78-.33l.5-1.9A1.261 1.261 0 0 1 12 3.991a1.249 1.249 0 0 1 1.107 1.107l.489 1.861c.288.09.568.204.836.343l1.657-.966a1.107 1.107 0 0 1 1.565 1.566L16.7 9.535c.148.28.27.571.366.872l1.819.48A1.262 1.262 0 0 1 19.995 12a1.248 1.248 0 0 1-1.108 1.1zM12.05 9.815a2.178 2.178 0 1 0 1.54.643 2.178 2.178 0 0 0-1.539-.64l-.001-.003z" id="transformation"></path>
    </g>
</svg>
