<?xml version="1.0" encoding="UTF-8"?>
<svg width="24px" height="24px" viewBox="0 0 24 24" version="1.1" xmlns="http://www.w3.org/2000/svg" xmlns:xlink="http://www.w3.org/1999/xlink">
    <!-- Generator: Sketch 46.2 (44496) - http://www.bohemiancoding.com/sketch -->
    <title>writer</title>
    <desc>Created with Sketch.</desc>
    <defs></defs>
    <g id="KBC-screens" stroke="none" stroke-width="1" fill="none" fill-rule="evenodd">
        <g id="KBC-Overview---deprecated-components-Copy" transform="translate(-843.000000, -178.000000)" fill="#FF9D52">
            <g id="deprecated-components" transform="translate(275.000000, 77.000000)">
                <path d="M590,125 L570,125 C568.895431,125 568,124.104569 568,123 L568,103 C568,101.895431 568.895431,101 570,101 L576,101 L574,103 L571,103 C570.447715,103 570,103.447715 570,104 L570,122 C570,122.552285 570.447715,123 571,123 L589,123 C589.552285,123 590,122.552285 590,122 L590,104 C590,103.447715 589.552285,103 589,103 L586,103 L584,101 L590,101 C591.104569,101 592,101.895431 592,103 L592,123 C592,124.104569 591.104569,125 590,125 Z M584.715,105.358 C584.963347,105.599371 585.06244,105.955793 584.974313,106.290711 C584.886186,106.625629 584.624502,106.88712 584.28952,106.975 C583.954537,107.06288 583.598188,106.963525 583.357,106.715 L581,104.358 L581,115 C581,115.552285 580.552285,116 580,116 C579.447715,116 579,115.552285 579,115 L579,104.358 L576.642,106.715 C576.265717,107.080713 575.665515,107.076549 575.294342,106.70565 C574.92317,106.334751 574.918564,105.734552 575.284,105.358 L579.117,101.525 C579.159213,101.436432 579.215624,101.355362 579.284,101.285 C579.691013,100.919576 580.307987,100.919576 580.715,101.285 C580.772888,101.350262 580.821358,101.423303 580.859,101.502 L584.715,105.358 Z" id="writer"></path>
            </g>
        </g>
    </g>
</svg>