<?xml version="1.0" encoding="UTF-8"?>
<svg width="32px" height="32px" viewBox="0 0 15 17" version="1.1" xmlns="http://www.w3.org/2000/svg" xmlns:xlink="http://www.w3.org/1999/xlink">
    <!-- Generator: Sketch 46.2 (44496) - http://www.bohemiancoding.com/sketch -->
    <title>copy</title>
    <desc>Created with Sketch.</desc>
    <defs></defs>
    <g id="Page-1" stroke="none" stroke-width="1" fill="none" fill-rule="evenodd">
        <g id="02-KSG-icons" transform="translate(-423.000000, -438.000000)" fill="currentColor">
            <path d="M433.5,438 L424.5,438 C423.675,438 423,438.675 423,439.5 L423,450 L424.5,450 L424.5,439.5 L433.5,439.5 L433.5,438 L433.5,438 Z M435.75,441 L427.5,441 C426.675,441 426,441.675 426,442.5 L426,453 C426,453.825 426.675,454.5 427.5,454.5 L435.75,454.5 C436.575,454.5 437.25,453.825 437.25,453 L437.25,442.5 C437.25,441.675 436.575,441 435.75,441 L435.75,441 Z M435.75,453 L427.5,453 L427.5,442.5 L435.75,442.5 L435.75,453 L435.75,453 Z" id="copy"></path>
        </g>
    </g>
</svg>