<?xml version="1.0" encoding="UTF-8"?>
<svg width="32px" height="32px" viewBox="0 0 86 50" version="1.1" xmlns="http://www.w3.org/2000/svg" xmlns:xlink="http://www.w3.org/1999/xlink">
    <!-- Generator: Sketch 46.2 (44496) - http://www.bohemiancoding.com/sketch -->
    <title>Combined Shape</title>
    <desc>Created with Sketch.</desc>
    <defs></defs>
    <g id="Page-1" stroke="none" stroke-width="1" fill="none" fill-rule="evenodd">
        <g id="02-KSG-icons" transform="translate(-1067.000000, -501.000000)" fill="currentColor">
            <path d="M1111,551 L1071,551 C1068.79086,551 1067,549.209139 1067,547 L1067,507 C1067,504.790861 1068.79086,503 1071,503 L1085,503 L1085,507 L1073,507 C1071.89543,507 1071,507.895431 1071,509 L1071,545 C1071,546.104569 1071.89543,547 1073,547 L1109,547 C1110.10457,547 1111,546.104569 1111,545 L1111,509 C1111,507.895431 1110.10457,507 1109,507 L1097,507 L1097,503 L1111,503 C1113.20914,503 1115,504.790861 1115,507 L1115,547 C1115,549.209139 1113.20914,551 1111,551 Z M1097.73306,519.583544 C1098.48765,518.851584 1099.69129,518.859918 1100.43563,519.602257 C1101.17997,520.344596 1101.18921,521.54587 1100.45637,522.299523 L1092.76975,529.971114 C1092.6851,530.148379 1092.57197,530.310637 1092.43485,530.451464 C1091.61863,531.182845 1090.38137,531.182845 1089.56515,530.451464 C1089.44906,530.320846 1089.35186,530.174656 1089.27638,530.017148 L1081.54363,522.299523 C1080.81079,521.54587 1080.82003,520.344596 1081.56437,519.602257 C1082.30871,518.859918 1083.51235,518.851584 1084.26694,519.583544 L1088.99362,524.300982 L1088.99362,503.001459 C1088.99362,501.896084 1089.89146,501 1090.999,501 C1092.10654,501 1093.00438,501.896084 1093.00438,503.001459 L1093.00438,524.300982 L1097.73306,519.583544 Z M1131,513 L1153,527 L1131,541 L1131,513 Z" id="Combined-Shape"></path>
        </g>
    </g>
</svg>