<?xml version="1.0" encoding="UTF-8"?>
<svg width="32px" height="32px" viewBox="0 0 18 18" version="1.1" xmlns="http://www.w3.org/2000/svg" xmlns:xlink="http://www.w3.org/1999/xlink">
    <!-- Generator: Sketch 46.2 (44496) - http://www.bohemiancoding.com/sketch -->
    <title>search</title>
    <desc>Created with Sketch.</desc>
    <defs></defs>
    <g id="Page-1" stroke="none" stroke-width="1" fill="none" fill-rule="evenodd">
        <g id="02-KSG-icons" transform="translate(-261.000000, -757.000000)" fill="currentColor">
            <path d="M273.5,768 L272.71,768 L272.43,767.73 C273.41,766.59 274,765.11 274,763.5 C274,759.91 271.09,757 267.5,757 C263.91,757 261,759.91 261,763.5 C261,767.09 263.91,770 267.5,770 C269.11,770 270.59,769.41 271.73,768.43 L272,768.71 L272,769.5 L277,774.49 L278.49,773 L273.5,768 L273.5,768 Z M267.5,768 C265.01,768 263,765.99 263,763.5 C263,761.01 265.01,759 267.5,759 C269.99,759 272,761.01 272,763.5 C272,765.99 269.99,768 267.5,768 L267.5,768 Z" id="search"></path>
        </g>
    </g>
</svg>