<?xml version="1.0" encoding="UTF-8"?>
<svg width="32px" height="32px" viewBox="0 0 16 16" version="1.1" xmlns="http://www.w3.org/2000/svg" xmlns:xlink="http://www.w3.org/1999/xlink">
    <!-- Generator: Sketch 46.2 (44496) - http://www.bohemiancoding.com/sketch -->
    <title>users and settings</title>
    <desc>Created with Sketch.</desc>
    <defs></defs>
    <g id="Page-1" stroke="none" stroke-width="1" fill="none" fill-rule="evenodd">
        <g id="02-KSG-icons" transform="translate(-182.000000, -438.000000)" fill="currentColor">
            <path d="M186.440014,445.169338 C186.740014,446.929338 188.152014,448.669338 190.000014,448.669338 C191.848014,448.669338 193.259014,446.929338 193.560014,445.169338 C193.966613,444.968033 194.223366,444.55304 194.222014,444.099338 C194.222359,443.811118 194.122292,443.531779 193.939014,443.309338 C194.015448,442.978109 194.054028,442.639272 194.054014,442.299338 C194.142506,440.794131 193.389754,439.363805 192.098962,438.584488 C190.80817,437.805171 189.191857,437.805171 187.901065,438.584488 C186.610273,439.363805 185.857521,440.794131 185.946014,442.299338 C185.945904,442.639277 185.984485,442.978125 186.061014,443.309338 C185.877587,443.531695 185.7775,443.811089 185.778014,444.099338 C185.776661,444.55304 186.033414,444.968033 186.440014,445.169338 L186.440014,445.169338 Z M197.810014,451.989338 C196.33884,450.716729 194.574182,449.830104 192.675014,449.409338 C192.608333,449.377841 192.535745,449.360801 192.462014,449.359338 L192.292014,449.359338 C192.210223,449.359454 192.129768,449.380083 192.058014,449.419338 C190.738162,449.952528 189.262865,449.952528 187.943014,449.419338 C187.870978,449.37988 187.790148,449.359243 187.708014,449.359338 L187.584014,449.359338 C187.547014,449.359338 187.509014,449.369338 187.472014,449.369338 C185.517915,449.782227 183.700332,450.683622 182.189014,451.989338 C182.068159,452.091085 181.998886,452.241361 182.000014,452.399338 L182.000014,453.449338 C182.000001,453.751153 182.243211,453.996594 182.545014,453.999338 L197.455014,453.999338 C197.756816,453.996594 198.000026,453.751153 198.000014,453.449338 L198.000014,452.399338 C198.001282,452.24133 197.931982,452.090998 197.811014,451.989338 L197.810014,451.989338 Z" id="users-and-settings"></path>
        </g>
    </g>
</svg>