<?xml version="1.0" encoding="UTF-8"?>
<svg width="32px" height="32px" viewBox="0 0 24 22" version="1.1" xmlns="http://www.w3.org/2000/svg" xmlns:xlink="http://www.w3.org/1999/xlink">
    <!-- Generator: Sketch 46.2 (44496) - http://www.bohemiancoding.com/sketch -->
    <title>aplications</title>
    <desc>Created with Sketch.</desc>
    <defs></defs>
    <g id="Page-1" stroke="none" stroke-width="1" fill="none" fill-rule="evenodd">
        <g id="02-KSG-icons" transform="translate(-98.000000, -755.000000)" fill="currentColor">
            <path d="M120,765 L113,765 C111.895431,765 111,764.104569 111,763 L111,757 C111,755.895431 111.895431,755 113,755 L120,755 C121.104569,755 122,755.895431 122,757 L122,763 C122,764.104569 121.104569,765 120,765 Z M107,777 L100,777 C98.8954305,777 98,776.104569 98,775 L98,769 C98,767.895431 98.8954305,767 100,767 L107,767 C108.104569,767 109,767.895431 109,769 L109,775 C109,776.104569 108.104569,777 107,777 Z M107,765 L100,765 C98.8954305,765 98,764.104569 98,763 L98,757 C98,755.895431 98.8954305,755 100,755 L107,755 C108.104569,755 109,755.895431 109,757 L109,763 C109,764.104569 108.104569,765 107,765 Z M120,777 L113,777 C111.895431,777 111,776.104569 111,775 L111,769 C111,767.895431 111.895431,767 113,767 L120,767 C121.104569,767 122,767.895431 122,769 L122,775 C122,776.104569 121.104569,777 120,777 Z M120,758 C120,757.447715 119.552285,757 119,757 L114,757 C113.447715,757 113,757.447715 113,758 L113,762 C113,762.552285 113.447715,763 114,763 L119,763 C119.552285,763 120,762.552285 120,762 L120,758 Z M107,770 C107,769.447715 106.552285,769 106,769 L101,769 C100.447715,769 100,769.447715 100,770 L100,774 C100,774.552285 100.447715,775 101,775 L106,775 C106.552285,775 107,774.552285 107,774 L107,770 Z M107,758 C107,757.447715 106.552285,757 106,757 L101,757 C100.447715,757 100,757.447715 100,758 L100,762 C100,762.552285 100.447715,763 101,763 L106,763 C106.552285,763 107,762.552285 107,762 L107,758 Z M120,770 C120,769.447715 119.552285,769 119,769 L114,769 C113.447715,769 113,769.447715 113,770 L113,774 C113,774.552285 113.447715,775 114,775 L119,775 C119.552285,775 120,774.552285 120,774 L120,770 Z" id="aplications"></path>
        </g>
    </g>
</svg>