<?xml version="1.0" encoding="UTF-8"?>
<svg width="32px" height="32px" viewBox="0 0 10 14" version="1.1" xmlns="http://www.w3.org/2000/svg" xmlns:xlink="http://www.w3.org/1999/xlink">
    <!-- Generator: Sketch 46.2 (44496) - http://www.bohemiancoding.com/sketch -->
    <title>select arrow</title>
    <desc>Created with Sketch.</desc>
    <defs></defs>
    <g id="Page-1" stroke="none" stroke-width="1" fill="none" fill-rule="evenodd">
        <g id="02-KSG-icons" transform="translate(-185.000000, -519.000000)" fill="#282D38">
            <path d="M194.824088,528.339985 L190.808088,532.386985 C190.808375,532.388975 190.808375,532.390996 190.808088,532.392985 L190.402088,532.799985 C190.294563,532.907951 190.148463,532.968643 189.996088,532.968643 C189.843713,532.968643 189.697613,532.907951 189.590088,532.799985 L189.184088,532.392985 C189.183801,532.390996 189.183801,532.388975 189.184088,532.386985 L185.168088,528.339985 C184.943971,528.114541 184.943971,527.750429 185.168088,527.524985 L185.574088,527.117985 C185.681613,527.01002 185.827713,526.949328 185.980088,526.949328 C186.132463,526.949328 186.278563,527.01002 186.386088,527.117985 L189.992088,530.759985 L193.606088,527.117985 C193.713613,527.01002 193.859713,526.949328 194.012088,526.949328 C194.164463,526.949328 194.310563,527.01002 194.418088,527.117985 L194.824088,527.524985 C195.048206,527.750429 195.048206,528.114541 194.824088,528.339985 L194.824088,528.339985 Z M185.192088,523.604985 L189.192088,519.578985 C189.191801,519.576996 189.191801,519.574975 189.192088,519.572985 L189.597088,519.167985 C189.704231,519.060447 189.849785,519 190.001588,519 C190.153391,519 190.298945,519.060447 190.406088,519.167985 L190.811088,519.572985 C190.811375,519.574975 190.811375,519.576996 190.811088,519.578985 L194.811088,523.604985 C195.033533,523.829169 195.033533,524.190802 194.811088,524.414985 L194.406088,524.819985 C194.182357,525.043526 193.819819,525.043526 193.596088,524.819985 L189.996088,521.196985 L186.396088,524.819985 C186.172357,525.043526 185.809819,525.043526 185.586088,524.819985 L185.181088,524.414985 C184.961659,524.187792 184.96657,523.826136 185.192088,523.604985 L185.192088,523.604985 Z" id="select-arrow"></path>
        </g>
    </g>
</svg>