<?xml version="1.0" encoding="UTF-8"?>
<svg width="32px" height="32px" viewBox="0 0 10 6" version="1.1" xmlns="http://www.w3.org/2000/svg" xmlns:xlink="http://www.w3.org/1999/xlink">
    <!-- Generator: Sketch 46.2 (44496) - http://www.bohemiancoding.com/sketch -->
    <title>arroow down</title>
    <desc>Created with Sketch.</desc>
    <defs></defs>
    <g id="Page-1" stroke="none" stroke-width="1" fill="none" fill-rule="evenodd">
        <g id="02-KSG-icons" transform="translate(-185.000000, -603.000000)" fill="#282D38">
            <path d="M194.824088,604.390657 L190.808088,608.437657 C190.808375,608.439647 190.808375,608.441668 190.808088,608.443657 L190.402088,608.850657 C190.294563,608.958623 190.148463,609.019315 189.996088,609.019315 C189.843713,609.019315 189.697613,608.958623 189.590088,608.850657 L189.184088,608.443657 C189.183801,608.441668 189.183801,608.439647 189.184088,608.437657 L185.168088,604.390657 C184.943971,604.165213 184.943971,603.801101 185.168088,603.575657 L185.574088,603.168657 C185.681613,603.060692 185.827713,603 185.980088,603 C186.132463,603 186.278563,603.060692 186.386088,603.168657 L189.992088,606.810657 L193.606088,603.168657 C193.713613,603.060692 193.859713,603 194.012088,603 C194.164463,603 194.310563,603.060692 194.418088,603.168657 L194.824088,603.575657 C195.048206,603.801101 195.048206,604.165213 194.824088,604.390657 L194.824088,604.390657 Z" id="arroow-down"></path>
        </g>
    </g>
</svg>