<?xml version="1.0" encoding="UTF-8"?>
<svg width="32px" height="32px" viewBox="0 0 13 13" version="1.1" xmlns="http://www.w3.org/2000/svg" xmlns:xlink="http://www.w3.org/1999/xlink">
    <!-- Generator: Sketch 46.2 (44496) - http://www.bohemiancoding.com/sketch -->
    <title>calendar</title>
    <desc>Created with Sketch.</desc>
    <defs></defs>
    <g id="Page-1" stroke="none" stroke-width="1" fill="none" fill-rule="evenodd">
        <g id="02-KSG-icons" transform="translate(-344.000000, -760.000000)" fill="currentColor">
            <path d="M344,762.995577 C344,762.445735 344.447489,762 344.998502,762 L356.001498,762 C356.552955,762 357,762.444837 357,762.995577 L357,772.004423 C357,772.554265 356.552511,773 356.001498,773 L344.998502,773 C344.447045,773 344,772.555163 344,772.004423 L344,762.995577 Z M353,760 L355,760 L355,762 L353,762 L353,760 Z M346,760 L348,760 L348,762 L346,762 L346,760 Z M345,765 L345,772 L356,772 L356,765 L345,765 Z M346,766 L347,766 L347,767 L346,767 L346,766 Z M348,766 L349,766 L349,767 L348,767 L348,766 Z M350,766 L351,766 L351,767 L350,767 L350,766 Z M352,766 L353,766 L353,767 L352,767 L352,766 Z M354,766 L355,766 L355,767 L354,767 L354,766 Z M346,768 L347,768 L347,769 L346,769 L346,768 Z M348,768 L349,768 L349,769 L348,769 L348,768 Z M350,768 L351,768 L351,769 L350,769 L350,768 Z M352,768 L353,768 L353,769 L352,769 L352,768 Z M354,768 L355,768 L355,769 L354,769 L354,768 Z M354,770 L355,770 L355,771 L354,771 L354,770 Z M352,770 L353,770 L353,771 L352,771 L352,770 Z M350,770 L351,770 L351,771 L350,771 L350,770 Z M348,770 L349,770 L349,771 L348,771 L348,770 Z M346,770 L347,770 L347,771 L346,771 L346,770 Z" id="calendar"></path>
        </g>
    </g>
</svg>