<?xml version="1.0" encoding="UTF-8"?>
<svg width="32px" height="32px" viewBox="0 0 18 12" version="1.1" xmlns="http://www.w3.org/2000/svg" xmlns:xlink="http://www.w3.org/1999/xlink">
    <!-- Generator: Sketch 46.2 (44496) - http://www.bohemiancoding.com/sketch -->
    <title>download from cloud</title>
    <desc>Created with Sketch.</desc>
    <defs></defs>
    <g id="Page-1" stroke="none" stroke-width="1" fill="none" fill-rule="evenodd">
        <g id="02-KSG-icons" transform="translate(-341.000000, -440.000000)" fill="currentColor">
            <path d="M355.5125,444.53 C355.0025,441.9425 352.73,440 350,440 C347.8325,440 345.95,441.23 345.0125,443.03 C342.755,443.27 341,445.1825 341,447.5 C341,449.9825 343.0175,452 345.5,452 L355.25,452 C357.32,452 359,450.32 359,448.25 C359,446.27 357.4625,444.665 355.5125,444.53 L355.5125,444.53 Z M353.75,446.75 L350,450.5 L346.25,446.75 L348.5,446.75 L348.5,443.75 L351.5,443.75 L351.5,446.75 L353.75,446.75 L353.75,446.75 Z" id="download-from-cloud"></path>
        </g>
    </g>
</svg>