<?xml version="1.0" encoding="UTF-8"?>
<svg width="111px" height="24px" viewBox="0 0 111 24" version="1.1" xmlns="http://www.w3.org/2000/svg" xmlns:xlink="http://www.w3.org/1999/xlink">
    <!-- Generator: Sketch 46.1 (44463) - http://www.bohemiancoding.com/sketch -->
    <title>Connection</title>
    <desc>Created with Sketch.</desc>
    <defs></defs>
    <g id="Page-1" stroke="none" stroke-width="1" fill="none" fill-rule="evenodd">
        <g id="02-KSG-icons" transform="translate(-719.000000, -277.000000)" fill="#282D38">
            <path d="M732.820035,296.672 L732.820035,296.672 C732.449917,296.063348 731.994261,295.511038 731.467035,295.032 C731.013885,294.632929 730.539171,294.259033 730.045035,293.912 C729.826989,293.750963 729.600681,293.601426 729.367035,293.464 C729.600614,293.326467 729.826917,293.176933 730.045035,293.016 C731.163825,292.16632 732.106094,291.106523 732.819035,289.896 C732.950107,289.678499 732.986968,289.417004 732.921125,289.171746 C732.855283,288.926488 732.692415,288.718612 732.470035,288.596 C732.002074,288.328739 731.406648,288.477265 731.119035,288.933 C730.536506,289.92754 729.766223,290.799373 728.851035,291.5 C728.093011,292.088934 727.177473,292.440047 726.220035,292.509 C726.139035,292.509 726.058035,292.504 725.977035,292.509 C725.896035,292.514 725.814035,292.509 725.733035,292.509 C724.775956,292.439794 723.86081,292.088698 723.103035,291.5 C722.187097,290.797889 721.416456,289.924337 720.834035,288.928 C720.546422,288.472265 719.950995,288.323739 719.483035,288.591 C719.260654,288.713612 719.097786,288.921488 719.031944,289.166746 C718.966101,289.412004 719.002962,289.673499 719.134035,289.891 C719.846975,291.101523 720.789244,292.16132 721.908035,293.011 C722.126199,293.171866 722.352499,293.321397 722.586035,293.459 C722.352435,293.596502 722.126131,293.746036 721.908035,293.907 C721.41437,294.254237 720.94,294.628125 720.487035,295.027 C719.960163,295.506107 719.504846,296.058414 719.135035,296.667 C719.003673,296.884431 718.96665,297.146025 719.032516,297.391369 C719.098381,297.636713 719.26144,297.844593 719.484035,297.967 C719.951741,298.234445 720.547098,298.086377 720.835035,297.631 C721.110497,297.175836 721.450729,296.763179 721.845035,296.406 C722.246806,296.054791 722.667073,295.72532 723.104035,295.419 C723.32725,295.256221 723.561105,295.108558 723.804035,294.977 C723.777035,295.026 723.749035,295.077 723.721035,295.127 C722.870147,296.6282 722.402353,298.315968 722.359035,300.041 C722.375994,300.573606 722.812659,300.996587 723.345535,300.996587 C723.87841,300.996587 724.315075,300.573606 724.332035,300.041 C724.376238,298.62434 724.766601,297.240043 725.469035,296.009 C725.645035,295.684 725.822035,295.396 725.982035,295.153 C726.150035,295.408 726.336035,295.714 726.521035,296.06 C727.207868,297.277931 727.588775,298.644391 727.631035,300.042 C727.631035,300.587105 728.07293,301.029 728.618035,301.029 C729.16314,301.029 729.605035,300.587105 729.605035,300.042 C729.561593,298.316671 729.093812,296.628608 728.243035,295.127 L728.160035,294.978 C728.402917,295.109637 728.636768,295.257297 728.860035,295.42 C729.296618,295.7264 729.716547,296.055868 730.118035,296.407 C730.51233,296.764189 730.85256,297.176844 731.128035,297.632 C731.310754,297.925777 731.633079,298.103416 731.979035,298.101 C732.154344,298.101228 732.326682,298.055731 732.479035,297.969 C732.699224,297.844999 732.859771,297.637067 732.924027,297.392668 C732.988283,297.148269 732.950764,296.888263 732.820035,296.672 L732.820035,296.672 Z M748.170035,290.959 C748.219841,291.690467 747.973342,292.411226 747.486035,292.959 C746.942365,293.45417 746.219566,293.704981 745.486035,293.653 C744.649279,293.681464 743.853824,293.28918 743.367035,292.608 C742.824767,291.832109 742.551829,290.899833 742.590035,289.954 L742.590035,287.473 C742.553513,286.534903 742.82153,285.610174 743.354035,284.837 C743.822941,284.160524 744.602307,283.767267 745.425035,283.792 C746.172391,283.738395 746.910054,283.986563 747.473035,284.481 C747.968643,285.019517 748.22167,285.737751 748.173035,286.468 L750.248035,286.468 L750.266035,286.415 C750.348788,285.212839 749.880364,284.038282 748.993035,283.223 C747.991098,282.400256 746.716394,281.984398 745.422035,282.058 C744.05559,282.009785 742.738516,282.571942 741.828035,283.592 C740.88953,284.669441 740.397091,286.064148 740.451035,287.492 L740.451035,289.955 C740.396812,291.386974 740.898466,292.784438 741.851035,293.855 C742.781376,294.872255 744.111405,295.429785 745.489035,295.38 C746.769294,295.446793 748.025503,295.014075 748.993035,294.173 C749.86314,293.359569 750.326032,292.201055 750.256035,291.012 L750.238035,290.959 L748.170035,290.959 Z M751.729035,290.479 C751.674613,291.759099 752.090814,293.014819 752.899035,294.009 C753.740135,294.882412 754.900476,295.375899 756.113035,295.375899 C757.325594,295.375899 758.485934,294.882412 759.327035,294.009 C760.136435,293.013909 760.552726,291.756497 760.497035,290.475 L760.497035,290.292 C760.549757,289.013664 760.13368,287.760099 759.327035,286.767 C758.488076,285.889672 757.326936,285.393437 756.113035,285.393437 C754.899133,285.393437 753.737993,285.889672 752.899035,286.767 C752.092307,287.760054 751.676219,289.013651 751.729035,290.292 L751.729035,290.479 L751.729035,290.479 Z M753.875035,290.292 C753.843589,289.498012 754.034788,288.711049 754.427035,288.02 C754.775586,287.434736 755.419802,287.090872 756.100035,287.127 C756.787889,287.088996 757.440983,287.432062 757.800035,288.02 C758.198101,288.709054 758.392624,289.496856 758.361035,290.292 L758.361035,290.479 C758.395431,291.279816 758.200827,292.073843 757.800035,292.768 C757.415495,293.320674 756.784824,293.650174 756.111535,293.650174 C755.438245,293.650174 754.807574,293.320674 754.423035,292.768 C754.029977,292.069449 753.840483,291.274752 753.876035,290.474 L753.876035,290.292 L753.875035,290.292 Z M761.975035,285.571 L761.975035,295.191 L764.121035,295.191 L764.121035,288.149 C764.319746,287.841561 764.595581,287.591585 764.921035,287.424 C765.291277,287.241393 765.700344,287.15148 766.113035,287.162 C766.596092,287.12426 767.072095,287.295796 767.420035,287.633 C767.753281,288.093298 767.907232,288.659324 767.853035,289.225 L767.853035,295.191 L769.993035,295.191 L769.993035,289.207 C770.079259,288.173947 769.782404,287.145278 769.159035,286.317 C768.557534,285.681498 767.706692,285.343136 766.833035,285.392 C766.272323,285.383758 765.719706,285.526402 765.233035,285.805 C764.752278,286.087076 764.347582,286.482161 764.054035,286.956 L763.930035,285.569 L761.970035,285.569 L761.975035,285.571 Z M771.837035,285.571 L771.837035,295.191 L773.983035,295.191 L773.983035,288.149 C774.181638,287.841469 774.4575,287.591469 774.783035,287.424 C775.153277,287.241393 775.562344,287.15148 775.975035,287.162 C776.458092,287.12426 776.934095,287.295796 777.282035,287.633 C777.615197,288.093338 777.769139,288.659332 777.715035,289.225 L777.715035,295.191 L779.860035,295.191 L779.860035,289.207 C779.945974,288.173821 779.648759,287.145138 779.025035,286.317 C778.423534,285.681498 777.572692,285.343136 776.699035,285.392 C776.138323,285.383758 775.585706,285.526402 775.099035,285.805 C774.618303,286.087108 774.213614,286.482186 773.920035,286.956 L773.793035,285.571 L771.833035,285.571 L771.837035,285.571 Z M787.844035,295.049 C788.372294,294.87056 788.863155,294.596316 789.292035,294.24 L788.592035,292.826 C788.230681,293.091109 787.830205,293.298263 787.405035,293.44 C786.914967,293.591333 786.403834,293.663243 785.891035,293.653 C785.221037,293.702198 784.567942,293.427876 784.134035,292.915 C783.724225,292.359489 783.507207,291.68526 783.516035,290.995 L783.534035,290.951 L789.441035,290.951 L789.441035,289.785 C789.501036,288.634832 789.150532,287.500745 788.452035,286.585 C787.720009,285.753829 786.643084,285.310346 785.538035,285.385 C784.365685,285.347877 783.241892,285.85423 782.493035,286.757 C781.684853,287.736112 781.265192,288.978366 781.314035,290.247 L781.314035,290.6 C781.259315,291.856722 781.680298,293.087894 782.493035,294.048 C783.330753,294.956437 784.530107,295.443732 785.764035,295.377 C786.470293,295.389813 787.17331,295.278454 787.841035,295.048 L787.844035,295.049 Z M786.893035,287.7 C787.195918,288.139732 787.346265,288.666646 787.321035,289.2 L787.321035,289.369 L783.585035,289.369 L783.567035,289.325 C783.619633,288.746845 783.83727,288.195983 784.194035,287.738 C784.52112,287.335791 785.017953,287.110328 785.536035,287.129 C786.054797,287.084263 786.562326,287.297821 786.893035,287.7 L786.893035,287.7 Z M793.806035,292.768 C793.450151,292.081191 793.277909,291.314026 793.306035,290.541 L793.306035,290.23 C793.279174,289.462527 793.451427,288.701168 793.806035,288.02 C794.13632,287.42704 794.780001,287.078883 795.457035,287.127 C795.942307,287.110108 796.409426,287.312453 796.729035,287.678 C797.054093,288.04866 797.227612,288.528158 797.215035,289.021 L799.158035,289.021 L799.176035,288.968 C799.230944,288.006497 798.863982,287.068825 798.171035,286.4 C797.439702,285.712983 796.462583,285.349312 795.460035,285.391 C794.242647,285.323349 793.064714,285.834108 792.282035,286.769 C791.512171,287.753737 791.115123,288.978885 791.161035,290.228 L791.161035,290.539 C791.114647,291.788794 791.511721,293.014731 792.282035,294 C793.068907,294.93407 794.249659,295.443123 795.469035,295.374 C796.441931,295.395994 797.386908,295.047882 798.113035,294.4 C798.808671,293.829895 799.201479,292.970073 799.177035,292.071 L799.159035,292.018 L797.217035,292.018 C797.228904,292.465058 797.043036,292.894603 796.709035,293.192 C796.37045,293.500316 795.925809,293.665847 795.468035,293.654 C794.788817,293.706019 794.140741,293.360743 793.805035,292.768 L793.806035,292.768 Z M801.226035,283.232 L801.226035,285.57 L799.768035,285.57 L799.768035,287.17 L801.225035,287.17 L801.225035,292.487 C801.157193,293.277725 801.399623,294.063829 801.901035,294.679 C802.395098,295.162737 803.069617,295.416724 803.760035,295.379 C804.022674,295.379985 804.284611,295.351812 804.541035,295.295 C804.767429,295.247383 804.985934,295.167926 805.190035,295.059 L804.961035,293.476 C804.857382,293.512232 804.751059,293.540317 804.643035,293.56 C804.529229,293.580894 804.413742,293.591272 804.298035,293.591 C804.046658,293.602866 803.801356,293.511464 803.619035,293.338 C803.424569,293.100067 803.332174,292.794839 803.362035,292.489 L803.362035,287.171 L805.075035,287.171 L805.075035,285.571 L803.362035,285.571 L803.362035,283.232 L801.225035,283.232 L801.226035,283.232 Z M809.478035,285.57 L807.333035,285.57 L807.333035,295.19 L809.478035,295.19 L809.478035,285.57 Z M809.478035,281.32 L807.333035,281.32 L807.333035,283.214 L809.478035,283.214 L809.478035,281.321 L809.478035,281.32 Z M811.725035,290.478 C811.670613,291.758099 812.086814,293.013819 812.895035,294.008 C813.736135,294.881412 814.896476,295.374899 816.109035,295.374899 C817.321594,295.374899 818.481934,294.881412 819.323035,294.008 C820.132518,293.012955 820.54882,291.75551 820.493035,290.474 L820.493035,290.292 C820.54585,289.013651 820.129763,287.760054 819.323035,286.767 C818.484076,285.889672 817.322936,285.393437 816.109035,285.393437 C814.895133,285.393437 813.733993,285.889672 812.895035,286.767 C812.088307,287.760054 811.672219,289.013651 811.725035,290.292 L811.725035,290.479 L811.725035,290.478 Z M813.871035,290.291 C813.839232,289.497102 814.030086,288.710131 814.422035,288.019 C814.770917,287.433575 815.415502,287.089719 816.096035,287.126 C816.783938,287.087773 817.43714,287.430896 817.796035,288.019 C818.194203,288.708012 818.388734,289.495845 818.357035,290.291 L818.357035,290.478 C818.391598,291.278832 818.196983,292.072905 817.796035,292.767 C817.411778,293.320091 816.781005,293.649926 816.107535,293.649926 C815.434064,293.649926 814.803291,293.320091 814.419035,292.767 C814.025977,292.068449 813.836483,291.273752 813.872035,290.473 L813.872035,290.292 L813.871035,290.291 Z M821.971035,285.57 L821.971035,295.19 L824.116035,295.19 L824.116035,288.149 C824.314638,287.841469 824.5905,287.591469 824.916035,287.424 C825.286263,287.241355 825.69534,287.15144 826.108035,287.162 C826.591075,287.124391 827.067024,287.295908 827.415035,287.633 C827.747675,288.093555 827.901241,288.659472 827.847035,289.225 L827.847035,295.191 L829.993035,295.191 L829.993035,289.207 C830.079353,288.173783 829.7821,287.144968 829.158035,286.317 C828.556613,285.681382 827.705715,285.342998 826.832035,285.392 C826.271329,285.383807 825.718724,285.526448 825.232035,285.805 C824.751372,286.086849 824.346951,286.482 824.054035,286.956 L823.930035,285.569 L821.970035,285.569 L821.971035,285.57 Z M726.071035,277 C722.271035,277 720.130035,277.73 720.130035,282.846 C720.130035,287.962 722.704035,292 726.071035,292 C729.131035,292 731.825035,287.96 731.825035,282.844 C731.825035,277.728 729.866035,277 726.071035,277 Z M724.679035,290.588 C724.15754,290.569383 723.747997,290.134821 723.7603,289.613139 C723.772602,289.091457 724.202173,288.676684 724.723966,288.682669 C725.245759,288.688655 725.665702,289.113173 725.666035,289.635 C725.661565,289.892273 725.555057,290.137228 725.36995,290.315959 C725.184843,290.494689 724.936306,290.592548 724.679035,290.588 Z M727.279035,290.588 C726.75754,290.569383 726.347997,290.134821 726.3603,289.613139 C726.372602,289.091457 726.802173,288.676684 727.323966,288.682669 C727.845759,288.688655 728.265702,289.113173 728.266035,289.635 C728.261574,289.89298 728.154515,290.138552 727.968537,290.317398 C727.78256,290.496244 727.532992,290.593625 727.275035,290.588 L727.279035,290.588 Z" id="Connection"></path>
        </g>
    </g>
</svg>