<?xml version="1.0" encoding="UTF-8"?>
<svg width="32px" height="32px" viewBox="0 0 24 25" version="1.1" xmlns="http://www.w3.org/2000/svg" xmlns:xlink="http://www.w3.org/1999/xlink">
    <!-- Generator: Sketch 46.2 (44496) - http://www.bohemiancoding.com/sketch -->
    <title>extractor</title>
    <desc>Created with Sketch.</desc>
    <defs></defs>
    <g id="Page-1" stroke="none" stroke-width="1" fill="none" fill-rule="evenodd">
        <g id="02-KSG-icons" transform="translate(-98.000000, -274.000000)" fill="#282D38">
            <path d="M120,299 L100,299 C98.8954305,299 98,298.104569 98,297 L98,277 C98,275.895431 98.8954305,275 100,275 L107,275 L107,277 L101,277 C100.447715,277 100,277.447715 100,278 L100,296 C100,296.552285 100.447715,297 101,297 L119,297 C119.552285,297 120,296.552285 120,296 L120,278 C120,277.447715 119.552285,277 119,277 L113,277 L113,275 L120,275 C121.104569,275 122,275.895431 122,277 L122,297 C122,298.104569 121.104569,299 120,299 Z M113.358,283.285 C113.734283,282.919287 114.334485,282.923451 114.705658,283.29435 C115.07683,283.665249 115.081436,284.265448 114.716,284.642 L110.883,288.475 C110.840787,288.563568 110.784376,288.644638 110.716,288.715 C110.308987,289.080424 109.692013,289.080424 109.285,288.715 C109.227112,288.649738 109.178642,288.576697 109.141,288.498 L105.285,284.642 C104.919564,284.265448 104.92417,283.665249 105.295342,283.29435 C105.666515,282.923451 106.266717,282.919287 106.643,283.285 L109,285.642 L109,275 C109,274.447715 109.447715,274 110,274 C110.552285,274 111,274.447715 111,275 L111,285.642 L113.358,283.285 Z" id="extractor"></path>
        </g>
    </g>
</svg>