<?xml version="1.0" encoding="UTF-8"?>
<svg width="32px" height="32px" viewBox="0 0 16 16" version="1.1" xmlns="http://www.w3.org/2000/svg" xmlns:xlink="http://www.w3.org/1999/xlink">
    <!-- Generator: Sketch 46.2 (44496) - http://www.bohemiancoding.com/sketch -->
    <title>help</title>
    <desc>Created with Sketch.</desc>
    <defs></defs>
    <g id="Page-1" stroke="none" stroke-width="1" fill="none" fill-rule="evenodd">
        <g id="02-KSG-icons" transform="translate(-422.000000, -678.000000)" fill="#282D38">
            <path d="M430,694 C425.581722,694 422,690.418278 422,686 C422,681.581722 425.581722,678 430,678 C434.418278,678 438,681.581722 438,686 C438,690.418278 434.418278,694 430,694 Z M429.784747,688.139705 C430.183501,688.139705 430.472254,687.823452 430.527255,687.465948 L430.568505,687.218446 C432.067271,686.915943 433.277283,686.200935 433.277283,684.454667 L433.277283,684.427167 C433.277283,682.598398 431.929769,681.580888 429.949749,681.580888 C428.739736,681.580888 427.818477,681.965892 427.089719,682.570898 C426.842217,682.77715 426.732216,683.052153 426.732216,683.313405 C426.732216,683.835911 427.17222,684.275915 427.694726,684.275915 C427.928478,684.275915 428.14848,684.179664 428.313482,684.055913 C428.808487,683.684659 429.317242,683.505907 429.908498,683.505907 C430.706007,683.505907 431.173511,683.863411 431.173511,684.482168 L431.173511,684.509668 C431.173511,685.183425 430.623506,685.554679 429.427243,685.70593 C428.987239,685.760931 428.725986,686.077184 428.794737,686.530939 L428.932238,687.465948 C428.987239,687.837202 429.275992,688.139705 429.674746,688.139705 L429.784747,688.139705 Z M428.478484,690.215977 L428.478484,690.243477 C428.478484,690.903484 428.987239,691.412239 429.674746,691.412239 C430.362253,691.412239 430.871008,690.903484 430.871008,690.243477 L430.871008,690.215977 C430.871008,689.55597 430.362253,689.047215 429.674746,689.047215 C428.987239,689.047215 428.478484,689.55597 428.478484,690.215977 Z" id="help"></path>
        </g>
    </g>
</svg>