<?xml version="1.0" encoding="UTF-8"?>
<svg width="32px" height="32px" viewBox="0 0 24 24" version="1.1" xmlns="http://www.w3.org/2000/svg" xmlns:xlink="http://www.w3.org/1999/xlink">
    <!-- Generator: Sketch 46.2 (44496) - http://www.bohemiancoding.com/sketch -->
    <title>jobs</title>
    <desc>Created with Sketch.</desc>
    <defs></defs>
    <g id="Page-1" stroke="none" stroke-width="1" fill="none" fill-rule="evenodd">
        <g id="02-KSG-icons" transform="translate(-98.000000, -834.000000)" fill="#282D38">
            <path d="M120,858 L100,858 C98.8954305,858 98,857.104569 98,856 L98,836 C98,834.895431 98.8954305,834 100,834 L120,834 C121.104569,834 122,834.895431 122,836 L122,856 C122,857.104569 121.104569,858 120,858 Z M120,837 C120,836.447715 119.552285,836 119,836 L101,836 C100.447715,836 100,836.447715 100,837 L100,855 C100,855.552285 100.447715,856 101,856 L119,856 C119.552285,856 120,855.552285 120,855 L120,837 Z M115,846 L106,851 L106,841 L115,846 Z" id="jobs"></path>
        </g>
    </g>
</svg>