<?xml version="1.0" encoding="UTF-8"?>
<svg width="32px" height="32px" viewBox="0 0 14 24" version="1.1" xmlns="http://www.w3.org/2000/svg" xmlns:xlink="http://www.w3.org/1999/xlink">
    <!-- Generator: Sketch 46.2 (44496) - http://www.bohemiancoding.com/sketch -->
    <title>Keboola</title>
    <desc>Created with Sketch.</desc>
    <defs></defs>
    <g id="Page-1" stroke="none" stroke-width="1" fill="none" fill-rule="evenodd">
        <g id="02-KSG-icons" transform="translate(-423.000000, -754.000000)" fill="currentColor">
            <path d="M436.820035,773.672 L436.820035,773.672 C436.449917,773.063348 435.994261,772.511038 435.467035,772.032 C435.013885,771.632929 434.539171,771.259033 434.045035,770.912 C433.826989,770.750963 433.600681,770.601426 433.367035,770.464 C433.600614,770.326467 433.826917,770.176933 434.045035,770.016 C435.163825,769.16632 436.106094,768.106523 436.819035,766.896 C436.950107,766.678499 436.986968,766.417004 436.921125,766.171746 C436.855283,765.926488 436.692415,765.718612 436.470035,765.596 C436.002074,765.328739 435.406648,765.477265 435.119035,765.933 C434.536506,766.92754 433.766223,767.799373 432.851035,768.5 C432.093011,769.088934 431.177473,769.440047 430.220035,769.509 C430.139035,769.509 430.058035,769.504 429.977035,769.509 C429.896035,769.514 429.814035,769.509 429.733035,769.509 C428.775956,769.439794 427.86081,769.088698 427.103035,768.5 C426.187097,767.797889 425.416456,766.924337 424.834035,765.928 C424.546422,765.472265 423.950995,765.323739 423.483035,765.591 C423.260654,765.713612 423.097786,765.921488 423.031944,766.166746 C422.966101,766.412004 423.002962,766.673499 423.134035,766.891 C423.846975,768.101523 424.789244,769.16132 425.908035,770.011 C426.126199,770.171866 426.352499,770.321397 426.586035,770.459 C426.352435,770.596502 426.126131,770.746036 425.908035,770.907 C425.41437,771.254237 424.94,771.628125 424.487035,772.027 C423.960163,772.506107 423.504846,773.058414 423.135035,773.667 C423.003673,773.884431 422.96665,774.146025 423.032516,774.391369 C423.098381,774.636713 423.26144,774.844593 423.484035,774.967 C423.951741,775.234445 424.547098,775.086377 424.835035,774.631 C425.110497,774.175836 425.450729,773.763179 425.845035,773.406 C426.246806,773.054791 426.667073,772.72532 427.104035,772.419 C427.32725,772.256221 427.561105,772.108558 427.804035,771.977 C427.777035,772.026 427.749035,772.077 427.721035,772.127 C426.870147,773.6282 426.402353,775.315968 426.359035,777.041 C426.375994,777.573606 426.812659,777.996587 427.345535,777.996587 C427.87841,777.996587 428.315075,777.573606 428.332035,777.041 C428.376238,775.62434 428.766601,774.240043 429.469035,773.009 C429.645035,772.684 429.822035,772.396 429.982035,772.153 C430.150035,772.408 430.336035,772.714 430.521035,773.06 C431.207868,774.277931 431.588775,775.644391 431.631035,777.042 C431.631035,777.587105 432.07293,778.029 432.618035,778.029 C433.16314,778.029 433.605035,777.587105 433.605035,777.042 C433.561593,775.316671 433.093812,773.628608 432.243035,772.127 L432.160035,771.978 C432.402917,772.109637 432.636768,772.257297 432.860035,772.42 C433.296618,772.7264 433.716547,773.055868 434.118035,773.407 C434.51233,773.764189 434.85256,774.176844 435.128035,774.632 C435.310754,774.925777 435.633079,775.103416 435.979035,775.101 C436.154344,775.101228 436.326682,775.055731 436.479035,774.969 C436.699224,774.844999 436.859771,774.637067 436.924027,774.392668 C436.988283,774.148269 436.950764,773.888263 436.820035,773.672 L436.820035,773.672 Z M430.071035,754 C426.271035,754 424.130035,754.73 424.130035,759.846 C424.130035,764.962 426.704035,769 430.071035,769 C433.131035,769 435.825035,764.96 435.825035,759.844 C435.825035,754.728 433.866035,754 430.071035,754 Z M428.679035,767.588 C428.15754,767.569383 427.747997,767.134821 427.7603,766.613139 C427.772602,766.091457 428.202173,765.676684 428.723966,765.682669 C429.245759,765.688655 429.665702,766.113173 429.666035,766.635 C429.661565,766.892273 429.555057,767.137228 429.36995,767.315959 C429.184843,767.494689 428.936306,767.592548 428.679035,767.588 Z M431.279035,767.588 C430.75754,767.569383 430.347997,767.134821 430.3603,766.613139 C430.372602,766.091457 430.802173,765.676684 431.323966,765.682669 C431.845759,765.688655 432.265702,766.113173 432.266035,766.635 C432.261574,766.89298 432.154515,767.138552 431.968537,767.317398 C431.78256,767.496244 431.532992,767.593625 431.275035,767.588 L431.279035,767.588 Z" id="Keboola"></path>
        </g>
    </g>
</svg>