<?xml version="1.0" encoding="UTF-8"?>
<svg width="263px" height="47px" viewBox="0 0 263 47" version="1.1" xmlns="http://www.w3.org/2000/svg" xmlns:xlink="http://www.w3.org/1999/xlink">
    <!-- Generator: Sketch 46.2 (44496) - http://www.bohemiancoding.com/sketch -->
    <title>KSG</title>
    <desc>Created with Sketch.</desc>
    <defs></defs>
    <g id="Page-1" stroke="none" stroke-width="1" fill="none" fill-rule="evenodd">
        <g id="02-KSG-icons" transform="translate(-80.000000, -60.000000)" fill="#282D38">
            <g id="KSG" transform="translate(80.000000, 60.000000)">
                <path d="M26.7346409,38.5114508 L26.7346409,38.5114508 C26.0173529,37.3213433 25.1368838,36.2402644 24.119554,35.3005317 C23.2416339,34.5209282 22.3235189,33.7889611 21.3690706,33.1077089 C20.9435387,32.7944485 20.5044671,32.5007669 20.0595929,32.226664 C20.5118627,31.9648624 20.9490609,31.6772429 21.3690706,31.3651979 C23.533838,29.6946238 25.356314,27.6131269 26.7346409,25.2370412 C26.9898464,24.8116144 27.0620904,24.299057 26.934601,23.8183634 C26.8071115,23.3376697 26.4909777,22.9306512 26.0595926,22.6918005 C25.1515756,22.1801589 24.0070267,22.471723 23.4464399,23.3574788 C22.3205776,25.3075725 20.8298297,27.0167175 19.0576587,28.3892241 C17.5918817,29.5420084 15.8219128,30.2300384 13.9706183,30.3666804 C13.8134492,30.356889 13.6558339,30.356889 13.4986648,30.3666804 C13.3414956,30.356889 13.1838804,30.356889 13.0267112,30.3666804 C11.1754167,30.2300384 9.40544785,29.5420084 7.93967087,28.3892241 C6.16749984,27.0167175 4.67675193,25.3075725 3.55088966,23.3574788 C2.99030284,22.471723 1.84575391,22.1801589 0.937736993,22.6918005 C0.505094949,22.9345401 0.188692269,23.345067 0.0613507411,23.8288961 C-0.0659907868,24.3127252 0.00669846494,24.828178 0.262688672,25.25662 C1.64712498,27.6226582 3.46883121,29.6966287 5.628259,31.3651979 C6.04892859,31.677257 6.48677119,31.9648756 6.93967092,32.226664 C6.49350718,32.5007669 6.05636987,32.7944485 5.628259,33.1077089 C4.67416896,33.7894475 3.75607883,34.5213948 2.87777558,35.3005317 C1.8604458,36.2402644 0.979976638,37.3213433 0.262688672,38.5114508 C0.00691915345,38.9367381 -0.0656434191,39.4494914 0.0618914776,39.9303562 C0.189426374,40.4112211 0.505932807,40.8182477 0.937736993,41.0566916 C1.83836779,41.5900383 2.99459394,41.3041625 3.55088966,40.410592 C4.08534315,39.517703 4.74319467,38.7067649 5.5044679,38.0024027 C6.21433247,37.3563031 7.01704036,36.7689398 7.93967087,36.0836827 C8.37345283,35.7632604 8.82556261,35.469066 9.29363598,35.2026378 C9.24141161,35.3005317 9.18725301,35.3984256 9.1330944,35.4963195 C7.4872283,38.439615 6.58308728,41.7480243 6.50059938,45.1290769 C6.53340299,46.1718536 7.37801586,47 8.40872307,47 C9.43943028,47 10.2840431,46.1718536 10.3168468,45.1290769 C10.3995193,42.3562251 11.1547845,39.646532 12.516073,37.2388305 C12.8564985,36.5927309 13.196924,36.0249464 13.5064017,35.5550558 C13.8313534,36.0641039 14.1930555,36.6514672 14.5489549,37.3367243 C15.8796133,39.7190677 16.6171698,42.3935541 16.6978909,45.1290769 C16.7306945,46.1718536 17.5753074,47 18.6060146,47 C19.6367218,47 20.4813347,46.1718536 20.5141383,45.1290769 C20.431059,41.7478569 19.5262508,38.4394371 17.879709,35.4963195 L17.7191675,35.2026378 C18.1874862,35.4686531 18.6396198,35.762863 19.0731326,36.0836827 C19.9938289,36.7689398 20.798471,37.3563031 21.5064013,38.0024027 C22.2681977,38.7062626 22.9261146,39.5172813 23.4599795,40.410592 C23.8145315,40.9848142 24.4370456,41.3328256 25.1060143,41.3307945 C25.443607,41.3236171 25.7748382,41.2364444 26.0731322,41.0762704 C26.5030726,40.830784 26.8162145,40.4192277 26.9409053,39.935773 C27.0655962,39.4523184 26.9911642,38.9383419 26.7346409,38.5114508 L26.7346409,38.5114508 Z M13.680483,0 C6.33038662,0 2.18918761,1.42925059 2.18918761,11.4535835 C2.18918761,21.4779164 7.16791075,29.3681628 13.680483,29.3681628 C19.5992447,29.3681628 24.8100762,21.4583376 24.8100762,11.4535835 C24.8100762,1.44882937 21.0209081,0 13.680483,0 Z M10.9880266,26.6075555 C9.97373568,26.5742288 9.17550553,25.7196804 9.1994017,24.6927361 C9.22329787,23.6657919 10.0603901,22.850232 11.0751064,22.8652799 C12.0898226,22.8803277 12.9029524,23.7203598 12.8971174,24.7475719 C12.8749043,25.7937315 12.021648,26.6250396 10.9880266,26.6075555 Z M16.0170399,26.6075555 C15.0040676,26.5742429 14.2067918,25.7209723 14.2303244,24.6953542 C14.2538571,23.6697362 15.0894084,22.8548519 16.1028163,22.8691778 C17.1162243,22.8835036 17.9289683,23.7216886 17.9241965,24.7475719 C17.9009387,25.7955973 17.044752,26.6272327 16.0093029,26.6075555 L16.0170399,26.6075555 Z" id="Connection_copy_5"></path>
                <g id="text" transform="translate(41.000000, 11.000000)">
                    <path d="M0.5,17.8594595 L0.5,2.76216216 C0.5,1.88918919 1.19324324,1.19594595 2.09189189,1.19594595 C2.96486486,1.19594595 3.65810811,1.88918919 3.65810811,2.76216216 L3.65810811,10.3621622 L12.1824324,1.78648649 C12.5418919,1.40135135 12.927027,1.19594595 13.4918919,1.19594595 C14.3648649,1.19594595 14.9554054,1.88918919 14.9554054,2.65945946 C14.9554054,3.1472973 14.75,3.50675676 14.3905405,3.84054054 L8.79324324,9.23243243 L14.8527027,16.7554054 C15.1094595,17.0891892 15.2891892,17.3972973 15.2891892,17.8851351 C15.2891892,18.7581081 14.5959459,19.4256757 13.6972973,19.4256757 C13.0810811,19.4256757 12.6959459,19.1175676 12.3621622,18.6810811 L6.58513514,11.3121622 L3.65810811,14.1364865 L3.65810811,17.8594595 C3.65810811,18.7324324 2.96486486,19.4256757 2.09189189,19.4256757 C1.19324324,19.4256757 0.5,18.7324324 0.5,17.8594595 Z M18.1891892,11.5689189 L25.1472973,11.5689189 C24.9418919,9.56621622 23.7608108,8 21.7067567,8 C19.8067567,8 18.4716216,9.46351351 18.1891892,11.5689189 Z M26.9445946,17.8081081 C25.7121621,18.9121622 24.1716216,19.6054054 22.0662162,19.6054054 C18.1378378,19.6054054 15.1081081,16.7554054 15.1081081,12.5702703 L15.1081081,12.5189189 C15.1081081,8.64189189 17.8554054,5.45810811 21.7324324,5.45810811 C26.0459459,5.45810811 28.177027,9.00135135 28.177027,12.1337838 C28.177027,13.0067568 27.5094594,13.622973 26.7135135,13.622973 L18.2148648,13.622973 C18.5486486,15.8310811 20.1148648,17.0635135 22.1175675,17.0635135 C23.427027,17.0635135 24.454054,16.6013514 25.327027,15.8824324 C25.5581081,15.7027027 25.7635135,15.6 26.1229729,15.6 C26.8162162,15.6 27.3554054,16.1391892 27.3554054,16.8581081 C27.3554054,17.2432432 27.1756756,17.577027 26.9445946,17.8081081 Z M29.5364864,17.8851351 L29.5364864,1.96621622 C29.5364864,1.09324324 30.204054,0.425675676 31.077027,0.425675676 C31.9499999,0.425675676 32.6432432,1.09324324 32.6432432,1.96621622 L32.6432432,8 C33.6445945,6.58783784 35.0567567,5.45810811 37.2648648,5.45810811 C40.4486486,5.45810811 43.5554053,7.97432432 43.5554053,12.4932432 L43.5554053,12.5445946 C43.5554053,17.0378378 40.4743243,19.5797297 37.2648648,19.5797297 C35.0054053,19.5797297 33.5932432,18.45 32.6432432,17.1918919 L32.6432432,17.8851351 C32.6432432,18.7324324 31.9499999,19.4256757 31.077027,19.4256757 C30.2297297,19.4256757 29.5364864,18.7324324 29.5364864,17.8851351 Z M36.5202702,16.8837838 C38.6513513,16.8837838 40.3972972,15.2148649 40.3972972,12.5445946 L40.3972972,12.4932432 C40.3972972,9.87432432 38.6256756,8.15405405 36.5202702,8.15405405 C34.4148648,8.15405405 32.5662162,9.9 32.5662162,12.4932432 L32.5662162,12.5445946 C32.5662162,15.1378378 34.4148648,16.8837838 36.5202702,16.8837838 Z M51.385135,19.6054054 C47.2513513,19.6054054 44.1959458,16.4472973 44.1959458,12.5959459 L44.1959458,12.5445946 C44.1959458,8.66756757 47.2770269,5.45810811 51.4364864,5.45810811 C55.5959458,5.45810811 58.6513513,8.61621622 58.6513513,12.4932432 L58.6513513,12.5445946 C58.6513513,16.3959459 55.5702702,19.6054054 51.385135,19.6054054 Z M51.4364864,16.8837838 C53.9527026,16.8837838 55.5445945,14.9324324 55.5445945,12.5959459 L55.5445945,12.5445946 C55.5445945,10.1567568 53.8243242,8.17972973 51.385135,8.17972973 C48.8945945,8.17972973 47.3027026,10.1310811 47.3027026,12.4932432 L47.3027026,12.5445946 C47.3027026,14.9067568 49.0229729,16.8837838 51.4364864,16.8837838 Z M66.4297296,19.6054054 C62.2959458,19.6054054 59.2405404,16.4472973 59.2405404,12.5959459 L59.2405404,12.5445946 C59.2405404,8.66756757 62.3216215,5.45810811 66.481081,5.45810811 C70.6405404,5.45810811 73.6959458,8.61621622 73.6959458,12.4932432 L73.6959458,12.5445946 C73.6959458,16.3959459 70.6148647,19.6054054 66.4297296,19.6054054 Z M66.481081,16.8837838 C68.9972972,16.8837838 70.5891891,14.9324324 70.5891891,12.5959459 L70.5891891,12.5445946 C70.5891891,10.1567568 68.8689188,8.17972973 66.4297296,8.17972973 C63.9391891,8.17972973 62.3472972,10.1310811 62.3472972,12.4932432 L62.3472972,12.5445946 C62.3472972,14.9067568 64.0675674,16.8837838 66.481081,16.8837838 Z M75.2094593,17.8851351 C75.2094593,18.7581081 75.9027025,19.4256757 76.7499998,19.4256757 C77.6229728,19.4256757 78.3162161,18.7581081 78.3162161,17.8851351 L78.3162161,1.96621622 C78.3162161,1.11891892 77.6229728,0.425675676 76.7499998,0.425675676 C75.8770269,0.425675676 75.2094593,1.11891892 75.2094593,1.96621622 L75.2094593,17.8851351 Z M84.4513512,19.5797297 C81.9094593,19.5797297 79.6499998,18.1162162 79.6499998,15.3945946 L79.6499998,15.3432432 C79.6499998,12.4162162 81.9351349,10.9783784 85.2472971,10.9783784 C86.762162,10.9783784 87.8405403,11.2094595 88.893243,11.5432432 L88.893243,11.2094595 C88.893243,9.28378378 87.712162,8.25675676 85.5297295,8.25675676 C84.3486485,8.25675676 83.3729728,8.46216216 82.5256755,8.79594595 C82.3459458,8.8472973 82.1918917,8.87297297 82.0378376,8.87297297 C81.3189187,8.87297297 80.7283782,8.30810811 80.7283782,7.58918919 C80.7283782,7.02432432 81.1135133,6.53648649 81.5756755,6.35675676 C82.8594593,5.86891892 84.1689187,5.56081081 85.9405403,5.56081081 C87.9689187,5.56081081 89.4837836,6.1 90.4337836,7.07567568 C91.4351349,8.05135135 91.8972971,9.48918919 91.8972971,11.2608108 L91.8972971,17.9364865 C91.8972971,18.7837838 91.2297295,19.4256757 90.3824322,19.4256757 C89.4837836,19.4256757 88.8675674,18.8094595 88.8675674,18.1162162 L88.8675674,17.6027027 C87.943243,18.7067568 86.5310809,19.5797297 84.4513512,19.5797297 Z M85.3243241,17.3202703 C87.3783782,17.3202703 88.9445944,16.1391892 88.9445944,14.4189189 L88.9445944,13.4945946 C88.1486485,13.1864865 87.0959458,12.9554054 85.8635133,12.9554054 C83.8608106,12.9554054 82.6797295,13.8027027 82.6797295,15.2148649 L82.6797295,15.2662162 C82.6797295,16.5756757 83.8351349,17.3202703 85.3243241,17.3202703 Z" id="Keboola"></path>
                    <path d="M107.787838,19.527027 C110.432432,19.527027 112.512162,18.0635135 112.512162,15.5472973 L112.512162,15.4959459 C112.512162,13.1081081 110.304054,12.3121622 108.25,11.6959459 C106.478378,11.1567568 104.835135,10.6689189 104.835135,9.41081081 L104.835135,9.35945946 C104.835135,8.25540541 105.836486,7.43378378 107.402703,7.43378378 C108.532432,7.43378378 109.739189,7.81891892 110.868919,8.46081081 C110.971622,8.51216216 111.125676,8.56351351 111.305405,8.56351351 C111.793243,8.56351351 112.178378,8.17837838 112.178378,7.71621622 C112.178378,7.33108108 111.947297,7.04864865 111.690541,6.89459459 C110.406757,6.20135135 108.866216,5.76486486 107.454054,5.76486486 C104.835135,5.76486486 102.935135,7.27972973 102.935135,9.56486486 L102.935135,9.61621622 C102.935135,12.0554054 105.245946,12.7743243 107.325676,13.3648649 C109.071622,13.8527027 110.637838,14.3662162 110.637838,15.7013514 L110.637838,15.7527027 C110.637838,17.0364865 109.482432,17.8581081 107.890541,17.8581081 C106.452703,17.8581081 105.040541,17.3702703 103.67973,16.4459459 C103.551351,16.3432432 103.371622,16.2918919 103.191892,16.2918919 C102.704054,16.2918919 102.318919,16.677027 102.318919,17.1391892 C102.318919,17.472973 102.498649,17.7297297 102.678378,17.8581081 C104.116216,18.8851351 106.041892,19.527027 107.787838,19.527027 Z M118.544595,19.5013514 C119.314865,19.5013514 119.931081,19.372973 120.495946,19.1418919 C120.82973,19.0135135 121.060811,18.7310811 121.060811,18.3716216 C121.060811,17.9094595 120.675676,17.5243243 120.213513,17.5243243 C120.059459,17.5243243 119.7,17.7040541 119.006757,17.7040541 C117.671622,17.7040541 116.772973,17.1135135 116.772973,15.4959459 L116.772973,7.74189189 L120.213513,7.74189189 C120.701351,7.74189189 121.112162,7.35675676 121.112162,6.86891892 C121.112162,6.40675676 120.701351,5.99594595 120.213513,5.99594595 L116.772973,5.99594595 L116.772973,2.86351351 C116.772973,2.32432432 116.310811,1.86216216 115.771622,1.86216216 C115.206757,1.86216216 114.795946,2.32432432 114.795946,2.86351351 L114.795946,5.99594595 L113.717568,5.99594595 C113.255405,5.99594595 112.844595,6.38108108 112.844595,6.86891892 C112.844595,7.33108108 113.255405,7.74189189 113.717568,7.74189189 L114.795946,7.74189189 L114.795946,15.7527027 C114.795946,18.4486486 116.413513,19.5013514 118.544595,19.5013514 Z M124.577027,23.4554054 C126.57973,23.4554054 127.863513,22.4540541 129.018919,19.7067568 L134.205405,7.33108108 C134.256757,7.17702703 134.308108,6.9972973 134.308108,6.84324324 C134.308108,6.30405405 133.871622,5.86756757 133.332432,5.86756757 C132.818919,5.86756757 132.536486,6.20135135 132.382432,6.61216216 L128.274324,17.0621622 L123.652703,6.63783784 C123.472973,6.20135135 123.19054,5.86756757 122.651351,5.86756757 C122.086486,5.86756757 121.65,6.30405405 121.65,6.84324324 C121.65,7.02297297 121.701351,7.2027027 121.778378,7.38243243 L127.324324,19.1418919 L127.221622,19.3472973 C126.502703,20.9648649 125.783784,21.7094595 124.551351,21.7094595 C123.883784,21.7094595 123.498649,21.6067568 123.113513,21.4783784 C122.959459,21.427027 122.805405,21.3756757 122.625676,21.3756757 C122.189189,21.3756757 121.778378,21.7351351 121.778378,22.222973 C121.778378,22.6851351 122.086486,22.9418919 122.394595,23.0702703 C123.062162,23.3013514 123.704054,23.4554054 124.577027,23.4554054 Z M136.078378,18.3972973 C136.078378,18.9621622 136.514865,19.3986486 137.07973,19.3986486 C137.644594,19.3986486 138.055405,18.9621622 138.055405,18.3972973 L138.055405,1.4 C138.055405,0.860810811 137.618919,0.398648649 137.054054,0.398648649 C136.514865,0.398648649 136.078378,0.860810811 136.078378,1.4 L136.078378,18.3972973 Z M142.008108,11.9013514 L150.558108,11.9013514 C150.352703,9.48783784 148.966216,7.38243243 146.321621,7.38243243 C144.010811,7.38243243 142.264865,9.30810811 142.008108,11.9013514 Z M151.636486,17.5756757 C150.378378,18.7824324 148.889189,19.5783784 146.62973,19.5783784 C142.983784,19.5783784 140.005405,16.7797297 140.005405,12.6716216 L140.005405,12.6202703 C140.005405,8.79459459 142.701351,5.71351351 146.372973,5.71351351 C150.301351,5.71351351 152.535135,8.92297297 152.535135,12.4405405 C152.535135,12.9797297 152.098649,13.3648649 151.610811,13.3648649 L142.008108,13.3648649 C142.29054,16.2405405 144.318919,17.8581081 146.681081,17.8581081 C148.324324,17.8581081 149.531081,17.2162162 150.506757,16.3175676 C150.660811,16.1891892 150.84054,16.0864865 151.071621,16.0864865 C151.559459,16.0864865 151.944594,16.4716216 151.944594,16.9337838 C151.944594,17.1648649 151.841892,17.3959459 151.636486,17.5756757 Z M165.960811,23.4297297 C163.932432,23.4297297 162.083784,22.8905405 160.414865,21.8635135 C160.106757,21.7094595 159.901351,21.4013514 159.901351,21.0418919 C159.901351,20.6054054 160.337838,20.1689189 160.8,20.1689189 C160.97973,20.1689189 161.108108,20.2202703 161.236486,20.2972973 C162.622973,21.2216216 164.214865,21.7351351 165.935135,21.7351351 C168.862162,21.7351351 170.762162,20.1175676 170.762162,17.0108108 L170.762162,15.4445946 C169.606757,16.9851351 167.989189,18.2432432 165.55,18.2432432 C162.366216,18.2432432 159.310811,15.8554054 159.310811,12.0297297 L159.310811,11.9783784 C159.310811,8.10135135 162.391892,5.71351351 165.55,5.71351351 C168.04054,5.71351351 169.658108,6.94594595 170.736486,8.38378378 L170.736486,6.86891892 C170.736486,6.32972973 171.147297,5.86756757 171.712162,5.86756757 C172.277027,5.86756757 172.713513,6.32972973 172.713513,6.86891892 L172.713513,16.9594595 C172.713513,19.0135135 172.097297,20.5797297 171.018919,21.6581081 C169.837838,22.8391892 168.066216,23.4297297 165.960811,23.4297297 Z M165.935135,16.4972973 C168.451351,16.4972973 170.813513,14.6743243 170.813513,12.0040541 L170.813513,11.9527027 C170.813513,9.23108108 168.451351,7.45945946 165.935135,7.45945946 C163.418919,7.45945946 161.339189,9.20540541 161.339189,11.927027 L161.339189,11.9783784 C161.339189,14.6486486 163.47027,16.4972973 165.935135,16.4972973 Z M186.67973,6.86891892 C186.67973,6.30405405 186.243243,5.86756757 185.704054,5.86756757 C185.139189,5.86756757 184.728378,6.30405405 184.728378,6.86891892 L184.728378,13.5959459 C184.728378,16.0864865 183.008108,17.7554054 180.748648,17.7554054 C178.412162,17.7554054 177.077027,16.2148649 177.077027,13.75 L177.077027,6.86891892 C177.077027,6.30405405 176.614865,5.86756757 176.075675,5.86756757 C175.510811,5.86756757 175.1,6.30405405 175.1,6.86891892 L175.1,14.2378378 C175.1,17.3959459 176.974324,19.5527027 180.183784,19.5527027 C182.468919,19.5527027 183.82973,18.3972973 184.728378,16.9594595 L184.728378,18.3972973 C184.728378,18.9621622 185.164865,19.3986486 185.704054,19.3986486 C186.268919,19.3986486 186.67973,18.9364865 186.67973,18.3972973 L186.67973,6.86891892 Z M189.297297,2.17027027 C189.297297,2.78648649 189.810811,3.22297297 190.452702,3.22297297 C191.12027,3.22297297 191.633784,2.78648649 191.633784,2.17027027 L191.633784,1.83648649 C191.633784,1.19459459 191.12027,0.783783784 190.452702,0.783783784 C189.810811,0.783783784 189.297297,1.19459459 189.297297,1.83648649 L189.297297,2.17027027 Z M189.477027,18.3972973 C189.477027,18.9621622 189.913513,19.3986486 190.478378,19.3986486 C191.043243,19.3986486 191.454054,18.9621622 191.454054,18.3972973 L191.454054,6.86891892 C191.454054,6.30405405 191.017567,5.86756757 190.452702,5.86756757 C189.913513,5.86756757 189.477027,6.32972973 189.477027,6.86891892 L189.477027,18.3972973 Z M206.858108,1.4 L206.858108,18.3972973 C206.858108,18.9621622 206.421621,19.3986486 205.882432,19.3986486 C205.317567,19.3986486 204.881081,18.9621622 204.881081,18.3972973 L204.881081,16.6 C203.802702,18.1918919 202.236486,19.5527027 199.797297,19.5527027 C196.613513,19.5527027 193.455405,17.0364865 193.455405,12.6716216 L193.455405,12.6202703 C193.455405,8.28108108 196.613513,5.71351351 199.797297,5.71351351 C202.262162,5.71351351 203.854054,7.04864865 204.881081,8.53783784 L204.881081,1.4 C204.881081,0.835135135 205.291892,0.398648649 205.856756,0.398648649 C206.421621,0.398648649 206.858108,0.835135135 206.858108,1.4 Z M200.156756,7.48513514 C197.589189,7.48513514 195.483783,9.38513514 195.483783,12.5945946 L195.483783,12.6459459 C195.483783,15.7783784 197.666216,17.7810811 200.156756,17.7810811 C202.621621,17.7810811 204.958108,15.7013514 204.958108,12.6459459 L204.958108,12.5945946 C204.958108,9.53918919 202.621621,7.48513514 200.156756,7.48513514 Z M210.631081,11.9013514 L219.181081,11.9013514 C218.975675,9.48783784 217.589189,7.38243243 214.944594,7.38243243 C212.633783,7.38243243 210.887838,9.30810811 210.631081,11.9013514 Z M220.259459,17.5756757 C219.001351,18.7824324 217.512162,19.5783784 215.252702,19.5783784 C211.606756,19.5783784 208.628378,16.7797297 208.628378,12.6716216 L208.628378,12.6202703 C208.628378,8.79459459 211.324324,5.71351351 214.995946,5.71351351 C218.924324,5.71351351 221.158108,8.92297297 221.158108,12.4405405 C221.158108,12.9797297 220.721621,13.3648649 220.233783,13.3648649 L210.631081,13.3648649 C210.913513,16.2405405 212.941892,17.8581081 215.304054,17.8581081 C216.947297,17.8581081 218.154054,17.2162162 219.129729,16.3175676 C219.283783,16.1891892 219.463513,16.0864865 219.694594,16.0864865 C220.182432,16.0864865 220.567567,16.4716216 220.567567,16.9337838 C220.567567,17.1648649 220.464865,17.3959459 220.259459,17.5756757 Z" id="style-guide"></path>
                </g>
            </g>
        </g>
    </g>
</svg>