<?xml version="1.0" encoding="UTF-8"?>
<svg width="32px" height="32px" viewBox="0 0 141 54" version="1.1" xmlns="http://www.w3.org/2000/svg" xmlns:xlink="http://www.w3.org/1999/xlink">
    <!-- Generator: Sketch 46.2 (44496) - http://www.bohemiancoding.com/sketch -->
    <title>Shape</title>
    <desc>Created with Sketch.</desc>
    <defs></defs>
    <g id="Page-1" stroke="none" stroke-width="1" fill="none" fill-rule="evenodd">
        <g id="02-KSG-icons" transform="translate(-1039.000000, -339.000000)" fill="#282D38">
            <path d="M1178,390 L1134,390 C1132.89543,390 1132,389.104569 1132,388 L1132,344 C1132,342.895431 1132.89543,342 1134,342 L1178,342 C1179.10457,342 1180,342.895431 1180,344 L1180,388 C1180,389.104569 1179.10457,390 1178,390 Z M1176,347 C1176,346.447715 1175.55228,346 1175,346 L1137,346 C1136.44772,346 1136,346.447715 1136,347 L1136,385 C1136,385.552285 1136.44772,386 1137,386 L1175,386 C1175.55228,386 1176,385.552285 1176,385 L1176,347 Z M1169.775,368.206 L1166.138,369.168 C1165.94628,369.77119 1165.70062,370.355886 1165.404,370.915 L1167.304,374.179 C1167.891,375.227 1168.169,376.448 1167.304,377.314 C1166.439,378.18 1165.295,377.914 1164.175,377.314 L1160.863,375.381 C1160.3256,375.656536 1159.76595,375.886347 1159.19,376.068 L1158.211,379.785 C1157.884,380.946 1157.219,382 1156,382 C1154.781,382 1154.152,381 1153.786,379.782 L1152.786,375.982 C1152.24954,375.802788 1151.72822,375.581086 1151.227,375.319 L1147.827,377.307 C1146.778,377.891 1145.562,378.171 1144.699,377.307 C1143.836,376.443 1144.099,375.293 1144.699,374.17 L1146.712,370.714 C1146.46811,370.233221 1146.2615,369.734421 1146.094,369.222 L1142.227,368.201 C1141.07,367.876 1140.014,367.209 1140.014,365.987 C1140.014,364.765 1141.014,364.135 1142.227,363.768 L1146.095,362.749 C1146.26169,362.23643 1146.46798,361.737593 1146.712,361.257 L1144.699,357.797 C1144.111,356.746 1143.833,355.529 1144.699,354.665 C1145.565,353.801 1146.708,354.065 1147.827,354.665 L1151.227,356.652 C1151.72801,356.389759 1152.24937,356.168374 1152.786,355.99 L1153.786,352.19 C1154.114,351.033 1154.778,349.977 1156,349.977 C1157.222,349.977 1157.847,350.977 1158.214,352.19 L1159.193,355.912 C1159.76929,356.090526 1160.32851,356.320102 1160.864,356.598 L1164.178,354.666 C1165.226,354.075 1166.443,353.798 1167.307,354.666 C1168.171,355.534 1167.907,356.678 1167.307,357.799 L1165.407,361.065 C1165.70314,361.623047 1165.94814,362.206764 1166.139,362.809 L1169.778,363.77 C1170.936,364.097 1171.992,364.763 1171.992,365.986 C1171.992,367.209 1170.992,367.84 1169.775,368.206 Z M1156.1,361.635 C1154.3378,361.632169 1152.74749,362.691352 1152.07088,364.318483 C1151.39427,365.945614 1151.76468,367.820118 1153.00931,369.067612 C1154.25394,370.315107 1156.12759,370.689813 1157.75627,370.016944 C1159.38495,369.344076 1160.44778,367.756201 1160.449,365.994 C1160.45011,363.590035 1158.50396,361.639414 1156.1,361.635 Z M1107.616,381.44 C1107.24289,381.818969 1106.73332,382.032371 1106.2015,382.032371 C1105.66968,382.032371 1105.16011,381.818969 1104.787,381.44 C1104.00517,380.648519 1104.00517,379.375481 1104.787,378.584 L1115.187,368.036 L1076,368.036 C1074.88438,368.036 1073.98,367.131615 1073.98,366.016 C1073.98,364.900385 1074.88438,363.996 1076,363.996 L1115.2,363.996 L1104.8,353.448 C1104.01817,352.656519 1104.01817,351.383481 1104.8,350.592 C1105.17324,350.213282 1105.68277,350.000054 1106.2145,350.000054 C1106.74623,350.000054 1107.25576,350.213282 1107.629,350.592 L1121.429,364.592 C1122.20359,365.387218 1122.20359,366.654782 1121.429,367.45 L1107.616,381.44 Z M1057,387 L1064,387 L1064,393 L1057,393 L1057,387 Z M1057,379 L1064,379 L1064,385 L1057,385 L1057,379 Z M1057,371 L1064,371 L1064,377 L1057,377 L1057,371 Z M1057,363 L1064,363 L1064,369 L1057,369 L1057,363 Z M1057,355 L1064,355 L1064,361 L1057,361 L1057,355 Z M1057,347 L1064,347 L1064,353 L1057,353 L1057,347 Z M1057,339 L1064,339 L1064,345 L1057,345 L1057,339 Z M1048,387 L1055,387 L1055,393 L1048,393 L1048,387 Z M1048,379 L1055,379 L1055,385 L1048,385 L1048,379 Z M1048,371 L1055,371 L1055,377 L1048,377 L1048,371 Z M1048,363 L1055,363 L1055,369 L1048,369 L1048,363 Z M1048,355 L1055,355 L1055,361 L1048,361 L1048,355 Z M1048,347 L1055,347 L1055,353 L1048,353 L1048,347 Z M1048,339 L1055,339 L1055,345 L1048,345 L1048,339 Z M1039,387 L1046,387 L1046,393 L1039,393 L1039,387 Z M1039,379 L1046,379 L1046,385 L1039,385 L1039,379 Z M1039,371 L1046,371 L1046,377 L1039,377 L1039,371 Z M1039,363 L1046,363 L1046,369 L1039,369 L1039,363 Z M1039,355 L1046,355 L1046,361 L1039,361 L1039,355 Z M1039,347 L1046,347 L1046,353 L1039,353 L1039,347 Z M1039,339 L1046,339 L1046,345 L1039,345 L1039,339 Z" id="Shape"></path>
        </g>
    </g>
</svg>