<?xml version="1.0" encoding="UTF-8"?>
<svg width="32px" height="32px" viewBox="0 0 140 48" version="1.1" xmlns="http://www.w3.org/2000/svg" xmlns:xlink="http://www.w3.org/1999/xlink">
    <!-- Generator: Sketch 46.2 (44496) - http://www.bohemiancoding.com/sketch -->
    <title>Rectangle_8_copy_2</title>
    <desc>Created with Sketch.</desc>
    <defs></defs>
    <g id="Page-1" stroke="none" stroke-width="1" fill="none" fill-rule="evenodd">
        <g id="02-KSG-icons" transform="translate(-1040.000000, -422.000000)" fill="#282D38">
            <path d="M1173,453 L1173,447 L1180,447 L1180,453 L1173,453 Z M1173,439 L1180,439 L1180,445 L1173,445 L1173,439 Z M1164,447 L1171,447 L1171,453 L1164,453 L1164,447 Z M1164,439 L1171,439 L1171,445 L1164,445 L1164,439 Z M1155,447 L1162,447 L1162,453 L1155,453 L1155,447 Z M1155,439 L1162,439 L1162,445 L1155,445 L1155,439 Z M1129.616,461.44 C1129.24306,461.81891 1128.73365,462.032289 1128.202,462.032289 C1127.67035,462.032289 1127.16094,461.81891 1126.788,461.44 C1126.00509,460.648964 1126.00509,459.375036 1126.788,458.584 L1137.188,448.036 L1098,448.036 C1096.88438,448.036 1095.98,447.131615 1095.98,446.016 C1095.98,444.900385 1096.88438,443.996 1098,443.996 L1137.2,443.996 L1126.8,433.448 C1126.01709,432.656964 1126.01709,431.383036 1126.8,430.592 C1127.17307,430.213341 1127.68243,430.000136 1128.214,430.000136 C1128.74557,430.000136 1129.25493,430.213341 1129.628,430.592 L1143.428,444.592 C1144.20206,445.387432 1144.20206,446.654568 1143.428,447.45 L1129.616,461.44 Z M1086,470 L1042,470 C1040.89543,470 1040,469.104569 1040,468 L1040,424 C1040,422.895431 1040.89543,422 1042,422 L1086,422 C1087.10457,422 1088,422.895431 1088,424 L1088,468 C1088,469.104569 1087.10457,470 1086,470 Z M1084,427 C1084,426.447715 1083.55228,426 1083,426 L1045,426 C1044.44772,426 1044,426.447715 1044,427 L1044,465 C1044,465.552285 1044.44772,466 1045,466 L1083,466 C1083.55228,466 1084,465.552285 1084,465 L1084,427 Z M1077.775,448.206 L1074.138,449.168 C1073.94628,449.77119 1073.70062,450.355886 1073.404,450.915 L1075.304,454.179 C1075.891,455.227 1076.169,456.448 1075.304,457.314 C1074.439,458.18 1073.295,457.914 1072.175,457.314 L1068.863,455.381 C1068.3256,455.656536 1067.76595,455.886347 1067.19,456.068 L1066.211,459.785 C1065.884,460.946 1065.219,462 1064,462 C1062.781,462 1062.152,461 1061.787,459.782 L1060.787,455.982 C1060.25014,455.802973 1059.72848,455.581266 1059.227,455.319 L1055.827,457.307 C1054.777,457.891 1053.561,458.171 1052.698,457.307 C1051.835,456.443 1052.098,455.293 1052.698,454.17 L1054.711,450.714 C1054.46753,450.233028 1054.26093,449.73426 1054.093,449.222 L1050.226,448.201 C1049.069,447.876 1048.013,447.209 1048.013,445.987 C1048.013,444.765 1049.013,444.135 1050.226,443.768 L1054.094,442.75 C1054.26052,442.237041 1054.46681,441.737859 1054.711,441.257 L1052.698,437.797 C1052.11,436.746 1051.833,435.529 1052.698,434.665 C1053.563,433.801 1054.707,434.065 1055.827,434.665 L1059.227,436.652 C1059.72827,436.389579 1060.24998,436.168189 1060.787,435.99 L1061.787,432.19 C1062.114,431.033 1062.778,429.976 1064,429.976 C1065.222,429.976 1065.847,430.976 1066.214,432.19 L1067.193,435.912 C1067.76929,436.090526 1068.32851,436.320102 1068.864,436.598 L1072.178,434.666 C1073.226,434.075 1074.443,433.798 1075.307,434.666 C1076.171,435.534 1075.907,436.678 1075.307,437.798 L1073.407,441.065 C1073.70314,441.623047 1073.94814,442.206764 1074.139,442.809 L1077.778,443.77 C1078.936,444.097 1079.992,444.763 1079.992,445.986 C1079.992,447.209 1078.992,447.84 1077.775,448.206 Z M1064.1,441.635 C1062.3378,441.632169 1060.74749,442.691352 1060.07088,444.318483 C1059.39427,445.945614 1059.76468,447.820118 1061.00931,449.067612 C1062.25394,450.315107 1064.12759,450.689813 1065.75627,450.016944 C1067.38495,449.344076 1068.44778,447.756201 1068.449,445.994 C1068.45011,443.590035 1066.50396,441.639414 1064.1,441.635 L1064.1,441.635 Z" id="Rectangle_8_copy_2"></path>
        </g>
    </g>
</svg>