<?xml version="1.0" encoding="UTF-8"?>
<svg width="15px" height="16px" viewBox="0 0 15 16" version="1.1" xmlns="http://www.w3.org/2000/svg" xmlns:xlink="http://www.w3.org/1999/xlink">
    <!-- Generator: Sketch 46.2 (44496) - http://www.bohemiancoding.com/sketch -->
    <title>notification</title>
    <desc>Created with Sketch.</desc>
    <defs></defs>
    <g id="Page-1" stroke="none" stroke-width="1" fill="none" fill-rule="evenodd">
        <g id="02-KSG-icons" transform="translate(-182.000000, -278.000000)" fill="#282D38">
            <path d="M194.413018,287.021725 C193.829478,285.610675 193.532382,284.097663 193.539018,282.570725 C193.583033,281.705335 193.269978,280.859799 192.673018,280.231725 C192.022974,279.620802 191.182705,279.25186 190.293018,279.186725 C190.34023,279.083103 190.364777,278.970596 190.365018,278.856725 C190.368941,278.627979 190.277241,278.407971 190.112018,278.249725 C189.771562,277.916758 189.227473,277.916758 188.887018,278.249725 C188.721795,278.407971 188.630094,278.627979 188.634018,278.856725 C188.634258,278.970596 188.658805,279.083103 188.706018,279.186725 C187.816331,279.25186 186.976062,279.620802 186.326018,280.231725 C185.729319,280.8599 185.416617,281.705462 185.461018,282.570725 C185.46731,284.097728 185.169875,285.610737 184.586018,287.021725 C184.027217,288.399533 183.139329,289.619434 182.000018,290.574725 C181.998296,290.877453 182.122551,291.167261 182.343018,291.374725 C182.555322,291.594309 182.8486,291.7169 183.154018,291.713725 L187.193018,291.713725 C187.183572,292.3233 187.428532,292.909248 187.869018,293.330725 C188.773606,294.223201 190.227429,294.223201 191.132018,293.330725 C191.570085,292.910981 191.814494,292.328382 191.807018,291.721725 L195.846018,291.721725 C196.151736,291.724939 196.445338,291.602364 196.658018,291.382725 C196.877813,291.174876 197.001637,290.885229 197.000018,290.582725 C195.861375,289.628202 194.973276,288.409855 194.413018,287.033725 L194.413018,287.033725 L194.413018,287.021725 Z" id="notification"></path>
        </g>
    </g>
</svg>