<?xml version="1.0" encoding="UTF-8"?>
<svg width="32px" height="32px" viewBox="0 0 19 19" version="1.1" xmlns="http://www.w3.org/2000/svg" xmlns:xlink="http://www.w3.org/1999/xlink">
    <!-- Generator: Sketch 46.2 (44496) - http://www.bohemiancoding.com/sketch -->
    <title>Options</title>
    <desc>Created with Sketch.</desc>
    <defs></defs>
    <g id="Page-1" stroke="none" stroke-width="1" fill="none" fill-rule="evenodd">
        <g id="02-KSG-icons" transform="translate(-421.000000, -597.000000)" fill="currentColor">
            <path d="M437.464659,607.248 C437.50304,606.949333 437.531825,606.650667 437.531825,606.333333 C437.531825,606.016 437.50304,605.717333 437.464659,605.418667 L439.489239,603.878667 C439.671547,603.738667 439.719522,603.486667 439.604381,603.281333 L437.685348,600.052 C437.570206,599.846667 437.311136,599.772 437.100043,599.846667 L434.710847,600.78 C434.211899,600.406667 433.67457,600.098667 433.089265,599.865333 L432.724648,597.392 C432.695863,597.168 432.494364,597 432.254485,597 L428.41642,597 C428.176541,597 427.975042,597.168 427.946257,597.392 L427.581641,599.865333 C426.996336,600.098667 426.459007,600.416 425.960058,600.78 L423.570862,599.846667 C423.350174,599.762667 423.100699,599.846667 422.985557,600.052 L421.066525,603.281333 C420.941788,603.486667 420.999359,603.738667 421.181667,603.878667 L423.206246,605.418667 C423.167866,605.717333 423.13908,606.025333 423.13908,606.333333 C423.13908,606.641333 423.167866,606.949333 423.206246,607.248 L421.181667,608.788 C420.999359,608.928 420.951383,609.18 421.066525,609.385333 L422.985557,612.614667 C423.100699,612.82 423.359769,612.894667 423.570862,612.82 L425.960058,611.886667 C426.459007,612.26 426.996336,612.568 427.581641,612.801333 L427.946257,615.274667 C427.975042,615.498667 428.176541,615.666667 428.41642,615.666667 L432.254485,615.666667 C432.494364,615.666667 432.695863,615.498667 432.724648,615.274667 L433.089265,612.801333 C433.67457,612.568 434.211899,612.250667 434.710847,611.886667 L437.100043,612.82 C437.320732,612.904 437.570206,612.82 437.685348,612.614667 L439.604381,609.385333 C439.719522,609.18 439.671547,608.928 439.489239,608.788 L437.464659,607.248 L437.464659,607.248 Z M430.333333,609 C428.862857,609 427.666667,607.80381 427.666667,606.333333 C427.666667,604.862857 428.862857,603.666667 430.333333,603.666667 C431.80381,603.666667 433,604.862857 433,606.333333 C433,607.80381 431.80381,609 430.333333,609 L430.333333,609 Z" id="Options"></path>
        </g>
    </g>
</svg>