<?xml version="1.0" encoding="UTF-8"?>
<svg width="30px" height="23px" viewBox="0 0 30 23" version="1.1" xmlns="http://www.w3.org/2000/svg" xmlns:xlink="http://www.w3.org/1999/xlink">
    <!-- Generator: Sketch 46.2 (44496) - http://www.bohemiancoding.com/sketch -->
    <title>orchestration</title>
    <desc>Created with Sketch.</desc>
    <defs></defs>
    <g id="Page-1" stroke="none" stroke-width="1" fill="none" fill-rule="evenodd">
        <g id="02-KSG-icons" transform="translate(-95.000000, -595.000000)" fill="#282D38">
            <path d="M121.002461,606 C118.793322,606 117.002461,604.209139 117.002461,602 C117.002461,601.982 117.007461,601.965 117.007461,601.947 L113.458461,600.979 C112.784446,602.174181 111.541938,602.937496 110.171161,602.9985 C108.800384,603.059505 107.494981,602.409582 106.717461,601.279 L102.790461,603.779 C103.402555,605.692264 102.496839,607.762245 100.676197,608.61107 C98.8555549,609.459895 96.6877626,608.822853 95.6158008,607.12399 C94.5438389,605.425126 94.9020031,603.194238 96.451883,601.916305 C98.0017629,600.638372 100.260022,600.711924 101.723461,602.088 L106.036461,599.344 C106.026461,599.225 106.002461,599.116 106.002461,599 C106.002461,596.790861 107.793322,595 110.002461,595 C112.2116,595 114.002461,596.790861 114.002461,599 C114.002461,599.018 113.997461,599.035 113.997461,599.053 L117.546461,600.021 C118.511521,598.337703 120.546975,597.591808 122.371169,598.25298 C124.195363,598.914151 125.280218,600.790988 124.94264,602.701714 C124.605062,604.612439 122.942774,606.003924 121.002461,606 L121.002461,606 Z M99.0024611,603 C97.8978916,603 97.0024611,603.895431 97.0024611,605 C97.0024611,606.104569 97.8978916,607 99.0024611,607 C100.107031,607 101.002461,606.104569 101.002461,605 C101.002461,603.895431 100.107031,603 99.0024611,603 Z M110.002461,597 C108.897892,597 108.002461,597.895431 108.002461,599 C108.002461,600.104569 108.897892,601 110.002461,601 C111.107031,601 112.002461,600.104569 112.002461,599 C112.002461,597.895431 111.107031,597 110.002461,597 Z M121.002461,600 C119.897892,600 119.002461,600.895431 119.002461,602 C119.002461,603.104569 119.897892,604 121.002461,604 C122.107031,604 123.002461,603.104569 123.002461,602 C123.002461,600.895431 122.107031,600 121.002461,600 Z M105.002461,605 L106.640461,603.958 C108.935119,605.526255 112.00959,605.297962 114.047461,603.408 L115.309461,603.752 C116.12867,606.660014 119.033692,608.460406 122.002461,607.9 L122.002461,616 C122.002461,617.104569 121.107031,618 120.002461,618 L100.002461,618 C98.8978916,618 98.0024611,617.104569 98.0024611,616 L98.0024611,610.9 C99.7464717,611.227862 101.545495,610.754569 102.902374,609.610914 C104.259253,608.467259 105.030309,606.774342 105.002461,605 L105.002461,605 Z" id="orchestration"></path>
        </g>
    </g>
</svg>