<?xml version="1.0" encoding="UTF-8"?>
<svg width="32px" height="32px" viewBox="0 0 26 17" version="1.1" xmlns="http://www.w3.org/2000/svg" xmlns:xlink="http://www.w3.org/1999/xlink">
    <!-- Generator: Sketch 46.2 (44496) - http://www.bohemiancoding.com/sketch -->
    <title>overview</title>
    <desc>Created with Sketch.</desc>
    <defs></defs>
    <g id="Page-1" stroke="none" stroke-width="1" fill="none" fill-rule="evenodd">
        <g id="02-KSG-icons" transform="translate(-97.000000, -678.000000)" fill="#282D38">
            <path d="M122.385847,688.26 C122.385847,688.26 117.428847,694.306 111.025847,694.92 C110.690898,694.963403 110.353591,694.986112 110.015847,694.988 C109.688227,694.986265 109.360993,694.965228 109.035847,694.925 C102.595847,694.353 97.5968472,688.26 97.5968472,688.26 C96.8010509,687.214914 96.8010509,685.767086 97.5968472,684.722 C97.5968472,684.722 103.096847,678 109.990847,678 C116.884847,678 122.390847,684.722 122.390847,684.722 C123.185167,685.76821 123.183121,687.216039 122.385847,688.26 L122.385847,688.26 Z M98.8858472,686.503 C99.923943,687.744767 101.084466,688.878823 102.349847,689.888 C101.423389,687.728505 101.423389,685.283495 102.349847,683.124 C101.083826,684.130915 99.9226136,685.262979 98.8838472,686.503 L98.8858472,686.503 Z M110.017847,679.894 C107.332901,679.842412 104.883522,681.420118 103.820187,683.88607 C102.756852,686.352022 103.290865,689.216187 105.1714,691.133265 C107.051934,693.050343 109.905293,693.639375 112.391251,692.62369 C114.877208,691.608006 116.501758,689.189442 116.501847,686.504 C116.518369,684.767339 115.844287,683.095253 114.62791,681.85562 C113.411532,680.615988 111.752509,679.910366 110.015847,679.894 L110.017847,679.894 Z M117.683847,683.124 C118.611592,685.28832 118.6087,687.738877 117.675847,689.901 C118.945812,688.88871 120.10917,687.749476 121.147847,686.501 C120.108492,685.262129 118.947331,684.130784 117.681847,683.124 L117.683847,683.124 Z M110.017847,690.269 C107.962141,690.235499 106.313213,688.559479 106.313213,686.5035 C106.313213,684.447521 107.962141,682.771501 110.017847,682.738 C110.28366,682.739357 110.548541,682.769533 110.807847,682.828 C109.684534,683.148424 108.964638,684.242406 109.114791,685.400835 C109.264944,686.559264 110.239963,687.433556 111.407847,687.457 C112.461888,687.447657 113.376539,686.727446 113.632847,685.705 C113.68983,685.967877 113.71899,686.23602 113.719847,686.505 C113.735929,688.567034 112.077873,690.251948 110.015847,690.269 L110.017847,690.269 Z" id="overview"></path>
        </g>
    </g>
</svg>