<?xml version="1.0" encoding="UTF-8"?>
<svg width="12px" height="12px" viewBox="0 0 12 12" version="1.1" xmlns="http://www.w3.org/2000/svg" xmlns:xlink="http://www.w3.org/1999/xlink">
    <!-- Generator: Sketch 46.2 (44496) - http://www.bohemiancoding.com/sketch -->
    <title>refresh</title>
    <desc>Created with Sketch.</desc>
    <defs></defs>
    <g id="Page-1" stroke="none" stroke-width="1" fill="none" fill-rule="evenodd">
        <g id="02-KSG-icons" transform="translate(-264.000000, -680.000000)" fill="#282D38">
            <path d="M274.23,681.7625 C273.1425,680.675 271.65,680 269.9925,680 C266.6775,680 264,682.685 264,686 C264,689.315 266.6775,692 269.9925,692 C272.79,692 275.1225,690.0875 275.79,687.5 L274.23,687.5 C273.615,689.2475 271.95,690.5 269.9925,690.5 C267.51,690.5 265.4925,688.4825 265.4925,686 C265.4925,683.5175 267.51,681.5 269.9925,681.5 C271.2375,681.5 272.3475,682.0175 273.1575,682.835 L270.7425,685.25 L275.9925,685.25 L275.9925,680 L274.23,681.7625 L274.23,681.7625 Z" id="refresh"></path>
        </g>
    </g>
</svg>