<?xml version="1.0" encoding="UTF-8"?>
<svg width="32px" height="32px" viewBox="0 0 18 20" version="1.1" xmlns="http://www.w3.org/2000/svg" xmlns:xlink="http://www.w3.org/1999/xlink">
    <!-- Generator: Sketch 46.2 (44496) - http://www.bohemiancoding.com/sketch -->
    <title>reset</title>
    <desc>Created with Sketch.</desc>
    <defs></defs>
    <g id="Page-1" stroke="none" stroke-width="1" fill="none" fill-rule="evenodd">
        <g id="02-KSG-icons" transform="translate(-421.000000, -514.000000)" fill-rule="nonzero" fill="#282D38">
            <path d="M436.363951,518.415659 C437.990902,520.040498 439.000528,522.298157 439,524.779434 C439.000704,527.261063 437.990902,529.518722 436.363951,531.143385 C434.739112,532.77016 432.481453,533.779962 430,533.77961 C427.518547,533.779962 425.261064,532.769984 423.636049,531.143385 C422.009097,529.518722 420.999472,527.261063 421,524.779434 C420.999472,522.297981 422.009274,520.040498 423.636049,518.415483 C424.784071,517.266052 426.248856,516.427045 427.884259,516.032457 L427.884259,518.546484 C426.918829,518.874163 426.054114,519.418065 425.345757,520.125367 C424.152659,521.320401 423.418418,522.958269 423.41789,524.77961 C423.418594,526.601303 424.152835,528.239171 425.345757,529.433853 C426.540791,530.626599 428.178659,531.361016 430,531.36172 C431.821516,531.361016 433.459385,530.626599 434.654243,529.433853 C435.847165,528.238995 436.581406,526.601303 436.581934,524.77961 C436.581406,522.958093 435.847165,521.320401 434.654243,520.125367 C433.946062,519.418241 433.081171,518.873987 432.115741,518.546484 L432.115741,516.032633 C433.751144,516.427221 435.215753,517.266228 436.363951,518.415659 Z M431,523.453222 L429,523.453222 L429,514 L431,514 L431,523.453222 Z" id="reset"></path>
        </g>
    </g>
</svg>