<?xml version="1.0" encoding="UTF-8"?>
<svg width="24px" height="22px" viewBox="0 0 24 22" version="1.1" xmlns="http://www.w3.org/2000/svg" xmlns:xlink="http://www.w3.org/1999/xlink">
    <!-- Generator: Sketch 46.1 (44463) - http://www.bohemiancoding.com/sketch -->
    <title>Rounded_Rectangle_3</title>
    <desc>Created with Sketch.</desc>
    <defs></defs>
    <g id="Page-1" stroke="none" stroke-width="1" fill="none" fill-rule="evenodd">
        <g id="02-KSG-icons" transform="translate(-101.000000, -363.000000)" fill="#282D38">
            <path d="M103,379 L123,379 C124.104569,379 125,379.895431 125,381 L125,383 C125,384.104569 124.104569,385 123,385 L103,385 C101.895431,385 101,384.104569 101,383 L101,381 C101,379.895431 101.895431,379 103,379 Z M104,381 L122,381 C122.552285,381 123,381.447715 123,382 C123,382.552285 122.552285,383 122,383 L104,383 C103.447715,383 103,382.552285 103,382 C103,381.447715 103.447715,381 104,381 Z M103,371 L123,371 C124.104569,371 125,371.895431 125,373 L125,375 C125,376.104569 124.104569,377 123,377 L103,377 C101.895431,377 101,376.104569 101,375 L101,373 C101,371.895431 101.895431,371 103,371 Z M104,373 L122,373 C122.552285,373 123,373.447715 123,374 C123,374.552285 122.552285,375 122,375 L104,375 C103.447715,375 103,374.552285 103,374 C103,373.447715 103.447715,373 104,373 Z M103,363 L123,363 C124.104569,363 125,363.895431 125,365 L125,367 C125,368.104569 124.104569,369 123,369 L103,369 C101.895431,369 101,368.104569 101,367 L101,365 C101,363.895431 101.895431,363 103,363 Z M104,365 L122,365 C122.552285,365 123,365.447715 123,366 C123,366.552285 122.552285,367 122,367 L104,367 C103.447715,367 103,366.552285 103,366 C103,365.447715 103.447715,365 104,365 Z" id="Rounded_Rectangle_3"></path>
        </g>
    </g>
</svg>