<?xml version="1.0" encoding="UTF-8"?>
<svg width="10px" height="14px" viewBox="0 0 10 14" version="1.1" xmlns="http://www.w3.org/2000/svg" xmlns:xlink="http://www.w3.org/1999/xlink">
    <!-- Generator: Sketch 46.1 (44463) - http://www.bohemiancoding.com/sketch -->
    <title>Rounded_Rectangle_6</title>
    <desc>Created with Sketch.</desc>
    <defs></defs>
    <g id="Page-1" stroke="none" stroke-width="1" fill="none" fill-rule="evenodd">
        <g id="02-KSG-icons" transform="translate(-193.000000, -537.000000)" fill="#282D38">
            <path d="M202.824088,546.339985 L198.808088,550.386985 C198.808375,550.388975 198.808375,550.390996 198.808088,550.392985 L198.402088,550.799985 C198.294563,550.907951 198.148463,550.968643 197.996088,550.968643 C197.843713,550.968643 197.697613,550.907951 197.590088,550.799985 L197.184088,550.392985 C197.183801,550.390996 197.183801,550.388975 197.184088,550.386985 L193.168088,546.339985 C192.943971,546.114541 192.943971,545.750429 193.168088,545.524985 L193.574088,545.117985 C193.681613,545.01002 193.827713,544.949328 193.980088,544.949328 C194.132463,544.949328 194.278563,545.01002 194.386088,545.117985 L197.992088,548.759985 L201.606088,545.117985 C201.713613,545.01002 201.859713,544.949328 202.012088,544.949328 C202.164463,544.949328 202.310563,545.01002 202.418088,545.117985 L202.824088,545.524985 C203.048206,545.750429 203.048206,546.114541 202.824088,546.339985 L202.824088,546.339985 Z M193.192088,541.604985 L197.192088,537.578985 C197.191801,537.576996 197.191801,537.574975 197.192088,537.572985 L197.597088,537.167985 C197.704231,537.060447 197.849785,537 198.001588,537 C198.153391,537 198.298945,537.060447 198.406088,537.167985 L198.811088,537.572985 C198.811375,537.574975 198.811375,537.576996 198.811088,537.578985 L202.811088,541.604985 C203.033533,541.829169 203.033533,542.190802 202.811088,542.414985 L202.406088,542.819985 C202.182357,543.043526 201.819819,543.043526 201.596088,542.819985 L197.996088,539.196985 L194.396088,542.819985 C194.172357,543.043526 193.809819,543.043526 193.586088,542.819985 L193.181088,542.414985 C192.961659,542.187792 192.96657,541.826136 193.192088,541.604985 L193.192088,541.604985 Z" id="Rounded_Rectangle_6"></path>
        </g>
    </g>
</svg>