<?xml version="1.0" encoding="UTF-8"?>
<svg width="24px" height="25px" viewBox="0 0 24 25" version="1.1" xmlns="http://www.w3.org/2000/svg" xmlns:xlink="http://www.w3.org/1999/xlink">
    <!-- Generator: Sketch 46.1 (44463) - http://www.bohemiancoding.com/sketch -->
    <title>Rounded_Rectangle_5</title>
    <desc>Created with Sketch.</desc>
    <defs></defs>
    <g id="Page-1" stroke="none" stroke-width="1" fill="none" fill-rule="evenodd">
        <g id="02-KSG-icons" transform="translate(-101.000000, -276.000000)" fill="#282D38">
            <path d="M123,301 L103,301 C101.895431,301 101,300.104569 101,299 L101,279 C101,277.895431 101.895431,277 103,277 L110,277 L110,279 L104,279 C103.447715,279 103,279.447715 103,280 L103,298 C103,298.552285 103.447715,299 104,299 L122,299 C122.552285,299 123,298.552285 123,298 L123,280 C123,279.447715 122.552285,279 122,279 L116,279 L116,277 L123,277 C124.104569,277 125,277.895431 125,279 L125,299 C125,300.104569 124.104569,301 123,301 Z M116.358,285.285 C116.734283,284.919287 117.334485,284.923451 117.705658,285.29435 C118.07683,285.665249 118.081436,286.265448 117.716,286.642 L113.883,290.475 C113.840787,290.563568 113.784376,290.644638 113.716,290.715 C113.308987,291.080424 112.692013,291.080424 112.285,290.715 C112.227112,290.649738 112.178642,290.576697 112.141,290.498 L108.285,286.642 C107.919564,286.265448 107.92417,285.665249 108.295342,285.29435 C108.666515,284.923451 109.266717,284.919287 109.643,285.285 L112,287.642 L112,277 C112,276.447715 112.447715,276 113,276 C113.552285,276 114,276.447715 114,277 L114,287.642 L116.358,285.285 Z" id="Rounded_Rectangle_5"></path>
        </g>
    </g>
</svg>