<?xml version="1.0" encoding="UTF-8"?>
<svg width="26px" height="21px" viewBox="0 0 26 21" version="1.1" xmlns="http://www.w3.org/2000/svg" xmlns:xlink="http://www.w3.org/1999/xlink">
    <!-- Generator: Sketch 46.2 (44496) - http://www.bohemiancoding.com/sketch -->
    <title>sandbox</title>
    <desc>Created with Sketch.</desc>
    <defs></defs>
    <g id="Page-1" stroke="none" stroke-width="1" fill="none" fill-rule="evenodd">
        <g id="02-KSG-icons" transform="translate(-257.000000, -276.000000)" fill="#282D38">
            <path d="M270,296.97 L257,292.593 L257,285.293 L270,280.917 L270.96,281.305 L270.91,282.78 L270,282.557 L259.44,286.114 L270,289.67 L280.56,286.114 L274.81,284.09 L274.98,282.637 L283,285.293 L283,292.593 L270,296.97 Z M273.77,280.179 L272.78,284.389 L273.57,284.578 C274.680595,284.848958 275.364069,285.965747 275.1,287.078 L274.97,287.645 L268.06,287.126 L268.45,285.484 C268.571378,284.951004 268.900406,284.488469 269.364105,284.198985 C269.827804,283.909502 270.387842,283.817001 270.92,283.942 L271.71,284.131 L272.7,279.921 L270.65,279.429 L271.45,276 L276.63,277.241 L275.83,280.67 L273.77,280.179 Z M272.27,277.341 L271.97,278.604 L275.01,279.331 L275.31,278.068 L272.27,277.341 Z" id="sandbox"></path>
        </g>
    </g>
</svg>