<?xml version="1.0" encoding="UTF-8"?>
<svg width="24px" height="24px" viewBox="0 0 24 24" version="1.1" xmlns="http://www.w3.org/2000/svg" xmlns:xlink="http://www.w3.org/1999/xlink">
    <!-- Generator: Sketch 46.2 (44496) - http://www.bohemiancoding.com/sketch -->
    <title>SQLdep</title>
    <desc>Created with Sketch.</desc>
    <defs></defs>
    <g id="Page-1" stroke="none" stroke-width="1" fill="none" fill-rule="evenodd">
        <g id="02-KSG-icons" transform="translate(-258.000000, -354.000000)" fill="#282D38">
            <path d="M281.001705,372.001705 L280.001705,372.001705 L280.001705,366.001705 C280.017927,365.731841 279.91779,365.467953 279.726623,365.276786 C279.535457,365.08562 279.271568,364.985483 279.001705,365.001705 L271.001705,365.001705 L271.001705,360.001705 L272.001705,360.001705 C272.271568,360.017927 272.535457,359.91779 272.726623,359.726623 C272.91779,359.535457 273.017927,359.271568 273.001705,359.001705 L273.001705,355.001705 C273.017927,354.731841 272.91779,354.467953 272.726623,354.276786 C272.535457,354.08562 272.271568,353.985483 272.001705,354.001705 L268.001705,354.001705 C267.731841,353.985483 267.467953,354.08562 267.276786,354.276786 C267.08562,354.467953 266.985483,354.731841 267.001705,355.001705 L267.001705,359.001705 C266.985483,359.271568 267.08562,359.535457 267.276786,359.726623 C267.467953,359.91779 267.731841,360.017927 268.001705,360.001705 L269.001705,360.001705 L269.001705,365.001705 L261.001705,365.001705 C260.731841,364.985483 260.467953,365.08562 260.276786,365.276786 C260.08562,365.467953 259.985483,365.731841 260.001705,366.001705 L260.001705,372.001705 L259.001705,372.001705 C258.731841,371.985483 258.467953,372.08562 258.276786,372.276786 C258.08562,372.467953 257.985483,372.731841 258.001705,373.001705 L258.001705,377.001705 C257.985483,377.271568 258.08562,377.535457 258.276786,377.726623 C258.467953,377.91779 258.731841,378.017927 259.001705,378.001705 L263.001705,378.001705 C263.271568,378.017927 263.535457,377.91779 263.726623,377.726623 C263.91779,377.535457 264.017927,377.271568 264.001705,377.001705 L264.001705,373.001705 C264.017927,372.731841 263.91779,372.467953 263.726623,372.276786 C263.535457,372.08562 263.271568,371.985483 263.001705,372.001705 L262.001705,372.001705 L262.001705,367.001705 L269.001705,367.001705 L269.001705,372.001705 L268.001705,372.001705 C267.731841,371.985483 267.467953,372.08562 267.276786,372.276786 C267.08562,372.467953 266.985483,372.731841 267.001705,373.001705 L267.001705,377.001705 C266.985483,377.271568 267.08562,377.535457 267.276786,377.726623 C267.467953,377.91779 267.731841,378.017927 268.001705,378.001705 L272.001705,378.001705 C272.271568,378.017927 272.535457,377.91779 272.726623,377.726623 C272.91779,377.535457 273.017927,377.271568 273.001705,377.001705 L273.001705,373.001705 C273.017927,372.731841 272.91779,372.467953 272.726623,372.276786 C272.535457,372.08562 272.271568,371.985483 272.001705,372.001705 L271.001705,372.001705 L271.001705,367.001705 L278.001705,367.001705 L278.001705,372.001705 L277.001705,372.001705 C276.731841,371.985483 276.467953,372.08562 276.276786,372.276786 C276.08562,372.467953 275.985483,372.731841 276.001705,373.001705 L276.001705,377.001705 C275.985483,377.271568 276.08562,377.535457 276.276786,377.726623 C276.467953,377.91779 276.731841,378.017927 277.001705,378.001705 L281.001705,378.001705 C281.271568,378.017927 281.535457,377.91779 281.726623,377.726623 C281.91779,377.535457 282.017927,377.271568 282.001705,377.001705 L282.001705,373.001705 C282.017927,372.731841 281.91779,372.467953 281.726623,372.276786 C281.535457,372.08562 281.271568,371.985483 281.001705,372.001705 L281.001705,372.001705 Z M268.001705,359.001705 L268.001705,355.001705 L272.001705,355.001705 L272.001705,359.001705 L268.001705,359.001705 Z M263.001705,373.001705 L263.001705,377.001705 L259.001705,377.001705 L259.001705,373.001705 L263.001705,373.001705 Z M272.001705,373.001705 L272.001705,377.001705 L268.001705,377.001705 L268.001705,373.001705 L272.001705,373.001705 Z M281.001705,377.001705 L277.001705,377.001705 L277.001705,373.001705 L281.001705,373.001705 L281.001705,377.001705 Z" id="SQLdep"></path>
        </g>
    </g>
</svg>