<?xml version="1.0" encoding="UTF-8"?>
<svg width="24px" height="22px" viewBox="0 0 24 22" version="1.1" xmlns="http://www.w3.org/2000/svg" xmlns:xlink="http://www.w3.org/1999/xlink">
    <!-- Generator: Sketch 46.2 (44496) - http://www.bohemiancoding.com/sketch -->
    <title>storage</title>
    <desc>Created with Sketch.</desc>
    <defs></defs>
    <g id="Page-1" stroke="none" stroke-width="1" fill="none" fill-rule="evenodd">
        <g id="02-KSG-icons" transform="translate(-98.000000, -355.000000)" fill="#282D38">
            <path d="M100,371 L120,371 C121.104569,371 122,371.895431 122,373 L122,375 C122,376.104569 121.104569,377 120,377 L100,377 C98.8954305,377 98,376.104569 98,375 L98,373 C98,371.895431 98.8954305,371 100,371 Z M101,373 L119,373 C119.552285,373 120,373.447715 120,374 C120,374.552285 119.552285,375 119,375 L101,375 C100.447715,375 100,374.552285 100,374 C100,373.447715 100.447715,373 101,373 Z M100,363 L120,363 C121.104569,363 122,363.895431 122,365 L122,367 C122,368.104569 121.104569,369 120,369 L100,369 C98.8954305,369 98,368.104569 98,367 L98,365 C98,363.895431 98.8954305,363 100,363 Z M101,365 L119,365 C119.552285,365 120,365.447715 120,366 C120,366.552285 119.552285,367 119,367 L101,367 C100.447715,367 100,366.552285 100,366 C100,365.447715 100.447715,365 101,365 Z M100,355 L120,355 C121.104569,355 122,355.895431 122,357 L122,359 C122,360.104569 121.104569,361 120,361 L100,361 C98.8954305,361 98,360.104569 98,359 L98,357 C98,355.895431 98.8954305,355 100,355 Z M101,357 L119,357 C119.552285,357 120,357.447715 120,358 C120,358.552285 119.552285,359 119,359 L101,359 C100.447715,359 100,358.552285 100,358 C100,357.447715 100.447715,357 101,357 Z" id="storage"></path>
        </g>
    </g>
</svg>