<?xml version="1.0" encoding="UTF-8"?>
<svg width="32px" height="32px" viewBox="0 0 15 15" version="1.1" xmlns="http://www.w3.org/2000/svg" xmlns:xlink="http://www.w3.org/1999/xlink">
    <!-- Generator: Sketch 46.2 (44496) - http://www.bohemiancoding.com/sketch -->
    <title>support by</title>
    <desc>Created with Sketch.</desc>
    <defs></defs>
    <g id="Page-1" stroke="none" stroke-width="1" fill="none" fill-rule="evenodd">
        <g id="02-KSG-icons" transform="translate(-343.000000, -519.000000)" fill="#282D38">
            <path d="M348.25,526.3125 C347.7325,526.3125 347.3125,526.7325 347.3125,527.25 C347.3125,527.7675 347.7325,528.1875 348.25,528.1875 C348.7675,528.1875 349.1875,527.7675 349.1875,527.25 C349.1875,526.7325 348.7675,526.3125 348.25,526.3125 L348.25,526.3125 Z M352.75,526.3125 C352.2325,526.3125 351.8125,526.7325 351.8125,527.25 C351.8125,527.7675 352.2325,528.1875 352.75,528.1875 C353.2675,528.1875 353.6875,527.7675 353.6875,527.25 C353.6875,526.7325 353.2675,526.3125 352.75,526.3125 L352.75,526.3125 Z M350.5,519 C346.36,519 343,522.36 343,526.5 C343,530.64 346.36,534 350.5,534 C354.64,534 358,530.64 358,526.5 C358,522.36 354.64,519 350.5,519 L350.5,519 Z M350.5,532.5 C347.1925,532.5 344.5,529.8075 344.5,526.5 C344.5,526.2825 344.515,526.065 344.5375,525.855 C346.3075,525.0675 347.71,523.62 348.445,521.8275 C349.8025,523.7475 352.0375,525 354.565,525 C355.15,525 355.7125,524.9325 356.2525,524.805 C356.41,525.3375 356.5,525.9075 356.5,526.5 C356.5,529.8075 353.8075,532.5 350.5,532.5 L350.5,532.5 Z" id="support-by"></path>
        </g>
    </g>
</svg>