<?xml version="1.0" encoding="UTF-8"?>
<svg width="32px" height="32px" viewBox="0 0 32 20" version="1.1" xmlns="http://www.w3.org/2000/svg" xmlns:xlink="http://www.w3.org/1999/xlink">
    <!-- Generator: Sketch 46.2 (44496) - http://www.bohemiancoding.com/sketch -->
    <title>switch on</title>
    <desc>Created with Sketch.</desc>
    <defs></defs>
    <g id="Page-1" stroke="none" stroke-width="1" fill="none" fill-rule="evenodd">
        <g id="02-KSG-icons" transform="translate(-414.000000, -356.000000)" fill-rule="nonzero" fill="currentColor">
            <path d="M416,366 C416,370.419332 419.578595,374 423.993372,374 L436.006628,374 C440.415353,374 444,370.415198 444,366 C444,361.580668 440.421405,358 436.006628,358 L423.993372,358 C419.584647,358 416,361.584802 416,366 Z M414,366 C414,360.477153 418.483157,356 423.993372,356 L436.006628,356 C441.525815,356 446,360.475938 446,366 C446,371.522847 441.516843,376 436.006628,376 L423.993372,376 C418.474185,376 414,371.524062 414,366 Z M424,372 C427.313708,372 430,369.313708 430,366 C430,362.686292 427.313708,360 424,360 C420.686292,360 418,362.686292 418,366 C418,369.313708 420.686292,372 424,372 Z" id="switch-on" transform="translate(430.000000, 366.000000) rotate(180.000000) translate(-430.000000, -366.000000) "></path>
        </g>
    </g>
</svg>