<?xml version="1.0" encoding="UTF-8"?>
<svg width="32px" height="32px" viewBox="0 0 24 24" version="1.1" xmlns="http://www.w3.org/2000/svg" xmlns:xlink="http://www.w3.org/1999/xlink">
    <!-- Generator: Sketch 46.2 (44496) - http://www.bohemiancoding.com/sketch -->
    <title>transformation</title>
    <desc>Created with Sketch.</desc>
    <defs></defs>
    <g id="Page-1" stroke="none" stroke-width="1" fill="none" fill-rule="evenodd">
        <g id="02-KSG-icons" transform="translate(-98.000000, -514.000000)" fill="currentColor">
            <path d="M120,538 L100,538 C98.8954305,538 98,537.104569 98,536 L98,516 C98,514.895431 98.8954305,514 100,514 L120,514 C121.104569,514 122,514.895431 122,516 L122,536 C122,537.104569 121.104569,538 120,538 Z M120,517 C120,516.447715 119.552285,516 119,516 L101,516 C100.447715,516 100,516.447715 100,517 L100,535 C100,535.552285 100.447715,536 101,536 L119,536 C119.552285,536 120,535.552285 120,535 L120,517 Z M116.887,527.1 L115.068,527.581 C114.97237,527.882519 114.849532,528.174721 114.701,528.454 L115.652,530.086 C116.015355,530.545516 116.015355,531.194484 115.652,531.654 C115.195133,532.021716 114.543867,532.021716 114.087,531.654 L112.431,530.687 C112.16252,530.825008 111.882858,530.940084 111.595,531.031 L111.106,532.889 C111.039935,533.471174 110.58187,533.93131 110,534 C109.415833,533.936469 108.95495,533.474337 108.893,532.89 L108.393,530.99 C108.124402,530.90114 107.86353,530.790437 107.613,530.659 L105.913,531.653 C105.635037,531.943634 105.221419,532.060836 104.832309,531.959224 C104.4432,531.857612 104.139698,531.553139 104.039328,531.163708 C103.938958,530.774276 104.057481,530.361034 104.349,530.084 L105.356,528.357 C105.234055,528.116266 105.130752,527.866533 105.047,527.61 L103.113,527.1 C102.513752,527.081999 102.037298,526.591018 102.037298,525.9915 C102.037298,525.391982 102.513752,524.901001 103.113,524.883 L105.047,524.374 C105.130294,524.117621 105.233612,523.868186 105.356,523.628 L104.349,521.898 C103.984862,521.439504 103.984862,520.790496 104.349,520.332 C104.805011,519.962921 105.456989,519.962921 105.913,520.332 L107.613,521.325 C107.863458,521.193685 108.124347,521.083309 108.393,520.995 L108.893,519.095 C108.961827,518.515054 109.41987,518.058253 110,517.991 C110.583168,518.054268 111.043732,518.514832 111.107,519.098 L111.596,520.959 C111.88432,521.048222 112.164098,521.163012 112.432,521.302 L114.089,520.336 C114.522264,519.90871 115.219182,519.911241 115.649331,520.341665 C116.079481,520.77209 116.081566,521.469009 115.654,521.902 L114.7,523.535 C114.84774,523.81418 114.970228,524.106008 115.066,524.407 L116.885,524.887 C117.469088,524.954145 117.929431,525.415733 117.995,526 C117.928942,526.580946 117.468409,527.038153 116.887,527.1 Z M110.05,523.815 C108.847777,523.813902 107.872034,524.787118 107.870014,525.98934 C107.867994,527.191562 108.840461,528.16805 110.042681,528.170993 C111.244901,528.173935 112.222136,527.202218 112.226,526 C112.227062,525.422185 111.998475,524.867629 111.590555,524.458396 C111.182634,524.049162 110.628815,523.818795 110.051,523.818 L110.05,523.815 Z" id="transformation"></path>
        </g>
    </g>
</svg>