<?xml version="1.0" encoding="UTF-8"?>
<svg width="32px" height="32px" viewBox="0 0 44 48" version="1.1" xmlns="http://www.w3.org/2000/svg" xmlns:xlink="http://www.w3.org/1999/xlink">
    <!-- Generator: Sketch 46.2 (44496) - http://www.bohemiancoding.com/sketch -->
    <title>Shape_300_copy_3</title>
    <desc>Created with Sketch.</desc>
    <defs></defs>
    <g id="Page-1" stroke="none" stroke-width="1" fill="none" fill-rule="evenodd">
        <g id="02-KSG-icons" transform="translate(-1088.000000, -262.000000)" fill="#282D38">
            <path d="M1116,290 L1116,288 L1132,288 L1132,290 L1116,290 Z M1116,270 L1132,270 L1132,272 L1116,272 L1116,270 Z M1088,308 L1088,264 C1088,262.895431 1088.89543,262 1090,262 L1112,262 L1112,266 L1093,266 C1092.44772,266 1092,266.447715 1092,267 L1092,305 C1092,305.552285 1092.44772,306 1093,306 L1112,306 L1112,310 L1090,310 C1088.89543,310 1088,309.104569 1088,308 Z M1109.784,299.785 L1108.784,295.985 C1108.24714,295.805973 1107.72548,295.584266 1107.224,295.322 L1103.824,297.31 C1102.774,297.894 1101.558,298.174 1100.695,297.31 C1099.832,296.446 1100.095,295.296 1100.695,294.173 L1102.708,290.717 C1102.46411,290.236221 1102.2575,289.737421 1102.09,289.225 L1098.223,288.204 C1097.066,287.879 1096.01,287.212 1096.01,285.99 C1096.01,284.768 1097.01,284.138 1098.223,283.771 L1102.091,282.753 C1102.25752,282.240041 1102.46381,281.740859 1102.708,281.26 L1100.695,277.8 C1100.107,276.748 1099.83,275.532 1100.695,274.668 C1101.56,273.804 1102.704,274.068 1103.824,274.668 L1107.224,276.655 C1107.72527,276.392579 1108.24698,276.171189 1108.784,275.993 L1109.784,272.193 C1110.112,271.036 1110.776,269.979 1111.998,269.979 L1111.998,269.979 L1111.998,281.641 C1109.6341,281.691714 1107.74424,283.622552 1107.74424,285.987 C1107.74424,288.351448 1109.6341,290.282286 1111.998,290.333 L1111.998,302 L1111.998,302 C1110.776,302 1110.15,301.006 1109.784,299.785 Z M1121,278 L1116,278 L1116,276 L1121,276 L1121,278 Z M1128,284 L1116,284 L1116,282 L1128,282 L1128,284 Z M1121,296 L1116,296 L1116,294 L1121,294 L1121,296 Z M1128,302 L1116,302 L1116,300 L1128,300 L1128,302 Z" id="Shape_300_copy_3"></path>
        </g>
    </g>
</svg>