<?xml version="1.0" encoding="UTF-8"?>
<svg width="20px" height="20px" viewBox="0 0 20 20" version="1.1" xmlns="http://www.w3.org/2000/svg" xmlns:xlink="http://www.w3.org/1999/xlink">
    <!-- Generator: Sketch 46.2 (44496) - http://www.bohemiancoding.com/sketch -->
    <title>ic_error</title>
    <desc>Created with Sketch.</desc>
    <defs></defs>
    <g id="Page-1" stroke="none" stroke-width="1" fill="none" fill-rule="evenodd">
        <g id="02-KSG-icons" transform="translate(-340.000000, -276.000000)">
            <g id="ic_error" transform="translate(338.000000, 274.000000)">
                <g id="Icon-24px">
                    <polygon id="Shape" points="0 0 24 0 24 24 0 24"></polygon>
                    <path d="M12,2 C6.48,2 2,6.48 2,12 C2,17.52 6.48,22 12,22 C17.52,22 22,17.52 22,12 C22,6.48 17.52,2 12,2 L12,2 Z M13,17 L11,17 L11,15 L13,15 L13,17 L13,17 Z M13,13 L11,13 L11,7 L13,7 L13,13 L13,13 Z" id="Shape" fill="currentColor"></path>
                </g>
            </g>
        </g>
    </g>
</svg>