<?xml version="1.0" encoding="UTF-8"?>
<svg width="32px" height="32px" viewBox="0 0 24 24" version="1.1" xmlns="http://www.w3.org/2000/svg" xmlns:xlink="http://www.w3.org/1999/xlink">
    <!-- Generator: Sketch 46.2 (44496) - http://www.bohemiancoding.com/sketch -->
    <title>writer</title>
    <desc>Created with Sketch.</desc>
    <defs></defs>
    <g id="Page-1" stroke="none" stroke-width="1" fill="none" fill-rule="evenodd">
        <g id="02-KSG-icons" transform="translate(-98.000000, -434.000000)" fill="#282D38">
            <path d="M120,458 L100,458 C98.8954305,458 98,457.104569 98,456 L98,436 C98,434.895431 98.8954305,434 100,434 L106,434 L104,436 L101,436 C100.447715,436 100,436.447715 100,437 L100,455 C100,455.552285 100.447715,456 101,456 L119,456 C119.552285,456 120,455.552285 120,455 L120,437 C120,436.447715 119.552285,436 119,436 L116,436 L114,434 L120,434 C121.104569,434 122,434.895431 122,436 L122,456 C122,457.104569 121.104569,458 120,458 Z M114.715,438.358 C114.963347,438.599371 115.06244,438.955793 114.974313,439.290711 C114.886186,439.625629 114.624502,439.88712 114.28952,439.975 C113.954537,440.06288 113.598188,439.963525 113.357,439.715 L111,437.358 L111,448 C111,448.552285 110.552285,449 110,449 C109.447715,449 109,448.552285 109,448 L109,437.358 L106.642,439.715 C106.265717,440.080713 105.665515,440.076549 105.294342,439.70565 C104.92317,439.334751 104.918564,438.734552 105.284,438.358 L109.117,434.525 C109.159213,434.436432 109.215624,434.355362 109.284,434.285 C109.691013,433.919576 110.307987,433.919576 110.715,434.285 C110.772888,434.350262 110.821358,434.423303 110.859,434.502 L114.715,438.358 Z" id="writer"></path>
        </g>
    </g>
</svg>