<?xml version="1.0" encoding="UTF-8"?><svg xmlns="http://www.w3.org/2000/svg" xmlns:xlink="http://www.w3.org/1999/xlink"><symbol viewBox="-1 -1 26 24" id="applications" xmlns="http://www.w3.org/2000/svg"><path d="M22 10h-7a2 2 0 0 1-2-2V2a2 2 0 0 1 2-2h7a2 2 0 0 1 2 2v6a2 2 0 0 1-2 2zM9 22H2a2 2 0 0 1-2-2v-6a2 2 0 0 1 2-2h7a2 2 0 0 1 2 2v6a2 2 0 0 1-2 2zm0-12H2a2 2 0 0 1-2-2V2a2 2 0 0 1 2-2h7a2 2 0 0 1 2 2v6a2 2 0 0 1-2 2zm13 12h-7a2 2 0 0 1-2-2v-6a2 2 0 0 1 2-2h7a2 2 0 0 1 2 2v6a2 2 0 0 1-2 2zm0-19a1 1 0 0 0-1-1h-5a1 1 0 0 0-1 1v4a1 1 0 0 0 1 1h5a1 1 0 0 0 1-1V3zM9 15a1 1 0 0 0-1-1H3a1 1 0 0 0-1 1v4a1 1 0 0 0 1 1h5a1 1 0 0 0 1-1v-4zM9 3a1 1 0 0 0-1-1H3a1 1 0 0 0-1 1v4a1 1 0 0 0 1 1h5a1 1 0 0 0 1-1V3zm13 12a1 1 0 0 0-1-1h-5a1 1 0 0 0-1 1v4a1 1 0 0 0 1 1h5a1 1 0 0 0 1-1v-4z" fill="currentColor" fill-rule="evenodd"/></symbol><symbol viewBox="-1 -1 12 8" id="arrow-down" xmlns="http://www.w3.org/2000/svg"><path d="M9.824 1.39L5.808 5.439v.006l-.406.407a.573.573 0 0 1-.812 0l-.406-.407v-.006L.168 1.39a.578.578 0 0 1 0-.815L.574.169a.573.573 0 0 1 .812 0L4.992 3.81 8.606.169a.573.573 0 0 1 .812 0l.406.407a.578.578 0 0 1 0 .815z" fill="currentColor" fill-rule="evenodd"/></symbol><symbol viewBox="-1 -1 12 16" id="arrow-vertical" xmlns="http://www.w3.org/2000/svg"><path d="M9.824 9.34l-4.016 4.047v.006l-.406.407a.573.573 0 0 1-.812 0l-.406-.407v-.006L.168 9.34a.578.578 0 0 1 0-.815l.406-.407a.573.573 0 0 1 .812 0l3.606 3.642 3.614-3.642a.573.573 0 0 1 .812 0l.406.407a.578.578 0 0 1 0 .815zM.192 4.605l4-4.026V.573l.405-.405a.571.571 0 0 1 .81 0l.404.405v.006l4 4.026a.575.575 0 0 1 0 .81l-.405.405a.573.573 0 0 1-.81 0l-3.6-3.623-3.6 3.623a.573.573 0 0 1-.81 0l-.405-.405a.575.575 0 0 1 .011-.81z" fill="currentColor" fill-rule="evenodd"/></symbol><symbol viewBox="-1 -1 15 15" id="calendar" xmlns="http://www.w3.org/2000/svg"><path d="M0 2.996C0 2.446.447 2 .999 2H12c.552 0 .999.445.999.996v9.008c0 .55-.447.996-.999.996H1A.996.996 0 0 1 0 12.004V2.996zM9 0h2v2H9V0zM2 0h2v2H2V0zM1 5v7h11V5H1zm1 1h1v1H2V6zm2 0h1v1H4V6zm2 0h1v1H6V6zm2 0h1v1H8V6zm2 0h1v1h-1V6zM2 8h1v1H2V8zm2 0h1v1H4V8zm2 0h1v1H6V8zm2 0h1v1H8V8zm2 0h1v1h-1V8zm0 2h1v1h-1v-1zm-2 0h1v1H8v-1zm-2 0h1v1H6v-1zm-2 0h1v1H4v-1zm-2 0h1v1H2v-1z" fill="currentColor" fill-rule="evenodd"/></symbol><symbol viewBox="-1 -1 18 14" id="check" xmlns="http://www.w3.org/2000/svg"><g fill="none" fill-rule="evenodd"><path d="M-4-6h24v24H-4z"/><path d="M15.71.946a1.02 1.02 0 0 0-1.402 0l-8.41 8.086L1.691 4.99a1.02 1.02 0 0 0-1.402 0 .927.927 0 0 0 0 1.348l4.906 4.717a1.02 1.02 0 0 0 1.402 0l9.112-8.76a.927.927 0 0 0 0-1.348z" fill="currentColor" fill-rule="nonzero"/></g></symbol><symbol viewBox="-1 -1 20 14" id="cloud" xmlns="http://www.w3.org/2000/svg"><path d="M14.512 4.53A5.617 5.617 0 0 0 9 0a5.622 5.622 0 0 0-4.988 3.03A4.496 4.496 0 0 0 0 7.5C0 9.983 2.017 12 4.5 12h9.75C16.32 12 18 10.32 18 8.25a3.732 3.732 0 0 0-3.488-3.72z" fill="currentColor" fill-rule="evenodd"/></symbol><symbol viewBox="-1 -1 20 14" id="cloud-download" xmlns="http://www.w3.org/2000/svg"><path d="M14.512 4.53A5.617 5.617 0 0 0 9 0a5.622 5.622 0 0 0-4.988 3.03A4.496 4.496 0 0 0 0 7.5C0 9.983 2.017 12 4.5 12h9.75C16.32 12 18 10.32 18 8.25a3.732 3.732 0 0 0-3.488-3.72zM12.75 6.75L9 10.5 5.25 6.75H7.5v-3h3v3h2.25z" fill="currentColor" fill-rule="evenodd"/></symbol><symbol viewBox="-1 -1 17 19" id="copy" xmlns="http://www.w3.org/2000/svg"><path d="M10.5 0h-9C.675 0 0 .675 0 1.5V12h1.5V1.5h9V0zm2.25 3H4.5C3.675 3 3 3.675 3 4.5V15c0 .825.675 1.5 1.5 1.5h8.25c.825 0 1.5-.675 1.5-1.5V4.5c0-.825-.675-1.5-1.5-1.5zm0 12H4.5V4.5h8.25V15z" fill="currentColor" fill-rule="evenodd"/></symbol><symbol viewBox="-1 -1 24 21" id="danger" xmlns="http://www.w3.org/2000/svg"><g fill="none" fill-rule="evenodd"><path d="M-1-2h24v24H-1z"/><path d="M0 19h22L11 0 0 19zm12-3h-2v-2h2v2zm0-4h-2V8h2v4z" fill="currentColor"/></g></symbol><symbol viewBox="-1 -1 11 17" id="duration" xmlns="http://www.w3.org/2000/svg"><path d="M0 0v4.5h.007L0 4.508 3 7.5l-3 3 .007.008H0V15h9v-4.492h-.007L9 10.5l-3-3 3-2.992-.007-.008H9V0H0zm7.5 10.875V13.5h-6v-2.625l3-3 3 3zm-3-3.75l-3-3V1.5h6v2.625l-3 3z" fill="currentColor" fill-rule="evenodd"/></symbol><symbol viewBox="-1 -1 16 16" id="edit" xmlns="http://www.w3.org/2000/svg"><path d="M0 14h2.916L11 6 8 3l-8 8v3zM11 0L9 2l3 3 2-2-3-3z" fill="currentColor" fill-rule="evenodd"/></symbol><symbol viewBox="-1 -1 22 22" id="error" xmlns="http://www.w3.org/2000/svg"><g fill="none" fill-rule="evenodd"><path d="M-2-2h24v24H-2z"/><path d="M10 0C4.48 0 0 4.48 0 10s4.48 10 10 10 10-4.48 10-10S15.52 0 10 0zm1 15H9v-2h2v2zm0-4H9V5h2v6z" fill="currentColor"/></g></symbol><symbol viewBox="-1 -1 26 27" id="extractor" xmlns="http://www.w3.org/2000/svg"><path d="M22 25H2a2 2 0 0 1-2-2V3a2 2 0 0 1 2-2h7v2H3a1 1 0 0 0-1 1v18a1 1 0 0 0 1 1h18a1 1 0 0 0 1-1V4a1 1 0 0 0-1-1h-6V1h7a2 2 0 0 1 2 2v20a2 2 0 0 1-2 2zM15.358 9.285a.96.96 0 0 1 1.358 1.357l-3.833 3.833a.9.9 0 0 1-.167.24 1.071 1.071 0 0 1-1.431 0 .935.935 0 0 1-.144-.217l-3.856-3.856a.96.96 0 0 1 1.358-1.357L11 11.642V1a1 1 0 1 1 2 0v10.642l2.358-2.357z" fill="currentColor" fill-rule="evenodd"/></symbol><symbol viewBox="-1 -1 88 52" id="extractor-to" xmlns="http://www.w3.org/2000/svg"><path d="M44 50H4a4 4 0 0 1-4-4V6a4 4 0 0 1 4-4h14v4H6a2 2 0 0 0-2 2v36a2 2 0 0 0 2 2h36a2 2 0 0 0 2-2V8a2 2 0 0 0-2-2H30V2h14a4 4 0 0 1 4 4v40a4 4 0 0 1-4 4zM30.733 18.584a1.928 1.928 0 0 1 2.703.018c.744.743.753 1.944.02 2.698L25.77 28.97c-.085.177-.198.34-.335.48a2.15 2.15 0 0 1-2.87 0 1.87 1.87 0 0 1-.289-.434L14.544 21.3a1.919 1.919 0 0 1 .02-2.698 1.928 1.928 0 0 1 2.703-.018l4.727 4.717v-21.3C21.994.896 22.89 0 23.999 0c1.108 0 2.005.896 2.005 2.001v21.3l4.73-4.717zM64 12l22 14-22 14V12z" fill="currentColor" fill-rule="evenodd"/></symbol><symbol viewBox="-1 -1 18 18" id="help" xmlns="http://www.w3.org/2000/svg"><path d="M8 16A8 8 0 1 1 8 0a8 8 0 0 1 0 16zm-.215-5.86c.399 0 .687-.317.742-.674l.042-.248c1.498-.302 2.708-1.017 2.708-2.763v-.028c0-1.829-1.347-2.846-3.327-2.846-1.21 0-2.132.385-2.86.99a.961.961 0 0 0-.358.742c0 .523.44.963.963.963.233 0 .453-.096.618-.22.495-.371 1.004-.55 1.595-.55.798 0 1.266.357 1.266.976v.028c0 .673-.55 1.045-1.747 1.196-.44.055-.701.371-.632.825l.137.935c.055.371.344.674.743.674h.11zm-1.307 2.076v.027c0 .66.51 1.17 1.197 1.17s1.196-.51 1.196-1.17v-.027c0-.66-.509-1.169-1.196-1.169-.688 0-1.197.509-1.197 1.169z" fill="currentColor" fill-rule="evenodd"/></symbol><symbol viewBox="-1 -1 26 26" id="jobs" xmlns="http://www.w3.org/2000/svg"><path d="M22 24H2a2 2 0 0 1-2-2V2a2 2 0 0 1 2-2h20a2 2 0 0 1 2 2v20a2 2 0 0 1-2 2zm0-21a1 1 0 0 0-1-1H3a1 1 0 0 0-1 1v18a1 1 0 0 0 1 1h18a1 1 0 0 0 1-1V3zm-5 9l-9 5V7l9 5z" fill="currentColor" fill-rule="evenodd"/></symbol><symbol viewBox="-1 -1 16 26" id="keboola" xmlns="http://www.w3.org/2000/svg"><path d="M13.82 19.672a7.436 7.436 0 0 0-1.353-1.64 16.5 16.5 0 0 0-1.422-1.12 7.784 7.784 0 0 0-.678-.448c.234-.138.46-.287.678-.448a10.8 10.8 0 0 0 2.774-3.12.934.934 0 0 0-.349-1.3 1.007 1.007 0 0 0-1.351.337A8.894 8.894 0 0 1 9.851 14.5a4.857 4.857 0 0 1-2.631 1.009c-.081 0-.162-.005-.243 0-.081.005-.163 0-.244 0a4.858 4.858 0 0 1-2.63-1.009 8.9 8.9 0 0 1-2.269-2.572 1.007 1.007 0 0 0-1.351-.337.934.934 0 0 0-.349 1.3 10.8 10.8 0 0 0 2.774 3.12c.218.16.444.31.678.448-.234.138-.46.287-.678.448-.494.347-.968.721-1.421 1.12a7.436 7.436 0 0 0-1.352 1.64.933.933 0 0 0 .349 1.3c.468.267 1.063.12 1.351-.336a5.484 5.484 0 0 1 1.01-1.225c.402-.351.822-.68 1.259-.987.223-.163.457-.31.7-.442l-.083.15a10.5 10.5 0 0 0-1.362 4.914.987.987 0 0 0 1.973 0 8.682 8.682 0 0 1 1.137-4.032c.176-.325.353-.613.513-.856.168.255.354.561.539.907a8.638 8.638 0 0 1 1.11 3.982.987.987 0 0 0 1.974 0 10.507 10.507 0 0 0-1.362-4.915l-.083-.149c.243.132.477.28.7.442a15 15 0 0 1 1.258.987c.394.357.735.77 1.01 1.225a1.008 1.008 0 0 0 1.351.337.934.934 0 0 0 .341-1.297zM7.071 0C3.271 0 1.13.73 1.13 5.846S3.704 15 7.071 15c3.06 0 5.754-4.04 5.754-9.156C12.825.728 10.866 0 7.071 0zM5.679 13.588a.953.953 0 1 1 .987-.953.97.97 0 0 1-.987.953zm2.6 0a.953.953 0 1 1 .987-.953.97.97 0 0 1-.991.953h.004z" fill="currentColor" fill-rule="evenodd"/></symbol><symbol viewBox="-1 -1 142 50" id="mapping-in" xmlns="http://www.w3.org/2000/svg"><path d="M133 31v-6h7v6h-7zm0-14h7v6h-7v-6zm-9 8h7v6h-7v-6zm0-8h7v6h-7v-6zm-9 8h7v6h-7v-6zm0-8h7v6h-7v-6zM89.616 39.44a1.984 1.984 0 0 1-2.828 0 2.03 2.03 0 0 1 0-2.856l10.4-10.548H58a2.02 2.02 0 1 1 0-4.04h39.2L86.8 11.448a2.03 2.03 0 0 1 0-2.856 1.985 1.985 0 0 1 2.828 0l13.8 14a2.049 2.049 0 0 1 0 2.858L89.616 39.44zM46 48H2a2 2 0 0 1-2-2V2a2 2 0 0 1 2-2h44a2 2 0 0 1 2 2v44a2 2 0 0 1-2 2zM44 5a1 1 0 0 0-1-1H5a1 1 0 0 0-1 1v38a1 1 0 0 0 1 1h38a1 1 0 0 0 1-1V5zm-6.225 21.206l-3.637.962a10.54 10.54 0 0 1-.734 1.747l1.9 3.264c.587 1.048.865 2.269 0 3.135-.865.866-2.009.6-3.129 0l-3.312-1.933c-.537.276-1.097.505-1.673.687l-.979 3.717C25.884 38.946 25.219 40 24 40c-1.219 0-1.848-1-2.213-2.218l-1-3.8c-.537-.179-1.059-.4-1.56-.663l-3.4 1.988c-1.05.584-2.266.864-3.129 0s-.6-2.014 0-3.137l2.013-3.456c-.243-.481-.45-.98-.618-1.492l-3.867-1.021c-1.157-.325-2.213-.992-2.213-2.214s1-1.852 2.213-2.219l3.868-1.018c.167-.513.373-1.012.617-1.493l-2.013-3.46c-.588-1.051-.865-2.268 0-3.132.865-.864 2.009-.6 3.129 0l3.4 1.987a10.479 10.479 0 0 1 1.56-.662l1-3.8c.327-1.157.991-2.214 2.213-2.214s1.847 1 2.214 2.214l.979 3.722c.576.179 1.136.408 1.671.686l3.314-1.932c1.048-.591 2.265-.868 3.129 0 .864.868.6 2.012 0 3.132l-1.9 3.267c.296.558.541 1.142.732 1.744l3.639.961c1.158.327 2.214.993 2.214 2.216 0 1.223-1 1.854-2.217 2.22zM24.1 19.635a4.356 4.356 0 1 0-.014 8.712 4.356 4.356 0 0 0 .014-8.712z" fill="currentColor" fill-rule="evenodd"/></symbol><symbol viewBox="-1 -1 143 56" id="mapping-out" xmlns="http://www.w3.org/2000/svg"><path d="M139 51H95a2 2 0 0 1-2-2V5a2 2 0 0 1 2-2h44a2 2 0 0 1 2 2v44a2 2 0 0 1-2 2zm-2-43a1 1 0 0 0-1-1H98a1 1 0 0 0-1 1v38a1 1 0 0 0 1 1h38a1 1 0 0 0 1-1V8zm-6.225 21.206l-3.637.962a10.54 10.54 0 0 1-.734 1.747l1.9 3.264c.587 1.048.865 2.269 0 3.135-.865.866-2.009.6-3.129 0l-3.312-1.933c-.537.276-1.097.505-1.673.687l-.979 3.717C118.884 41.946 118.219 43 117 43c-1.219 0-1.848-1-2.214-2.218l-1-3.8a10.64 10.64 0 0 1-1.559-.663l-3.4 1.988c-1.049.584-2.265.864-3.128 0s-.6-2.014 0-3.137l2.013-3.456c-.244-.48-.45-.98-.618-1.492l-3.867-1.021c-1.157-.325-2.213-.992-2.213-2.214s1-1.852 2.213-2.219l3.868-1.019a10.4 10.4 0 0 1 .617-1.492l-2.013-3.46c-.588-1.051-.866-2.268 0-3.132.866-.864 2.009-.6 3.128 0l3.4 1.987a10.512 10.512 0 0 1 1.559-.662l1-3.8c.328-1.157.992-2.213 2.214-2.213s1.847 1 2.214 2.213l.979 3.722c.576.179 1.136.408 1.671.686l3.314-1.932c1.048-.591 2.265-.868 3.129 0 .864.868.6 2.012 0 3.133l-1.9 3.266c.296.558.541 1.142.732 1.744l3.639.961c1.158.327 2.214.993 2.214 2.216 0 1.223-1 1.854-2.217 2.22zM117.1 22.635a4.356 4.356 0 1 0-.014 8.712 4.356 4.356 0 0 0 .014-8.712zM68.616 42.44a1.985 1.985 0 0 1-2.829 0 2.032 2.032 0 0 1 0-2.856l10.4-10.548H37a2.02 2.02 0 1 1 0-4.04h39.2L65.8 14.448a2.032 2.032 0 0 1 0-2.856 1.986 1.986 0 0 1 2.829 0l13.8 14a2.048 2.048 0 0 1 0 2.858L68.616 42.44zM18 48h7v6h-7v-6zm0-8h7v6h-7v-6zm0-8h7v6h-7v-6zm0-8h7v6h-7v-6zm0-8h7v6h-7v-6zm0-8h7v6h-7V8zm0-8h7v6h-7V0zM9 48h7v6H9v-6zm0-8h7v6H9v-6zm0-8h7v6H9v-6zm0-8h7v6H9v-6zm0-8h7v6H9v-6zm0-8h7v6H9V8zm0-8h7v6H9V0zM0 48h7v6H0v-6zm0-8h7v6H0v-6zm0-8h7v6H0v-6zm0-8h7v6H0v-6zm0-8h7v6H0v-6zm0-8h7v6H0V8zm0-8h7v6H0V0z" fill="currentColor" fill-rule="evenodd"/></symbol><symbol viewBox="-1 -1 18 4" id="minus" xmlns="http://www.w3.org/2000/svg"><path d="M0 0h16v2H0z" fill="currentColor" fill-rule="evenodd"/></symbol><symbol viewBox="-1 -1 17 18" id="notification" xmlns="http://www.w3.org/2000/svg"><path d="M12.413 9.022a11.516 11.516 0 0 1-.874-4.451 3.162 3.162 0 0 0-.866-2.34 3.89 3.89 0 0 0-2.38-1.044.8.8 0 0 0 .072-.33.821.821 0 0 0-.253-.607.876.876 0 0 0-1.225 0 .821.821 0 0 0-.253.607.8.8 0 0 0 .072.33 3.89 3.89 0 0 0-2.38 1.045 3.161 3.161 0 0 0-.865 2.339 11.517 11.517 0 0 1-.875 4.45A9.1 9.1 0 0 1 0 12.576a1.09 1.09 0 0 0 .343.8c.212.22.506.342.811.339h4.039c-.01.61.236 1.195.676 1.617a2.323 2.323 0 0 0 3.263 0c.438-.42.682-1.003.675-1.61h4.039c.306.004.6-.119.812-.338.22-.208.344-.498.342-.8a9.117 9.117 0 0 1-2.587-3.55v-.011z" fill="currentColor" fill-rule="evenodd"/></symbol><symbol viewBox="-1 -1 21 21" id="options" xmlns="http://www.w3.org/2000/svg"><path d="M16.465 10.248c.038-.299.067-.597.067-.915 0-.317-.029-.616-.067-.914l2.024-1.54a.462.462 0 0 0 .115-.598l-1.919-3.229a.489.489 0 0 0-.585-.205l-2.39.933a7.06 7.06 0 0 0-1.62-.915L11.724.392a.464.464 0 0 0-.47-.392H7.415a.464.464 0 0 0-.47.392l-.364 2.473a7.424 7.424 0 0 0-1.622.915l-2.39-.933a.474.474 0 0 0-.584.205l-1.92 3.23a.452.452 0 0 0 .116.597l2.024 1.54a7.203 7.203 0 0 0-.067.914c0 .308.029.616.067.915l-2.024 1.54a.462.462 0 0 0-.115.597l1.919 3.23c.115.205.374.28.585.205l2.39-.933a7.06 7.06 0 0 0 1.62.914l.365 2.474c.029.224.23.392.47.392h3.838c.24 0 .442-.168.47-.392l.365-2.474a7.424 7.424 0 0 0 1.622-.914l2.389.933c.22.084.47 0 .585-.205l1.92-3.23a.462.462 0 0 0-.116-.597l-2.024-1.54zM9.333 12a2.67 2.67 0 0 1-2.666-2.667 2.67 2.67 0 0 1 2.666-2.666A2.67 2.67 0 0 1 12 9.333 2.67 2.67 0 0 1 9.333 12z" fill="currentColor" fill-rule="evenodd"/></symbol><symbol viewBox="-1 -1 32 25" id="orchestration" xmlns="http://www.w3.org/2000/svg"><path d="M26.002 11a4 4 0 0 1-4-4c0-.018.005-.035.005-.053l-3.549-.968a3.977 3.977 0 0 1-6.74.3l-3.928 2.5a3.99 3.99 0 1 1-1.067-1.691l4.313-2.744c-.01-.119-.034-.228-.034-.344a4 4 0 1 1 8 0c0 .018-.005.035-.005.053l3.55.968A3.993 3.993 0 1 1 26.001 11zm-22-3a2 2 0 1 0 0 4 2 2 0 0 0 0-4zm11-6a2 2 0 1 0 0 4 2 2 0 0 0 0-4zm11 3a2 2 0 1 0 0 4 2 2 0 0 0 0-4zm-16 5l1.638-1.042a5.953 5.953 0 0 0 7.407-.55l1.262.344a5.83 5.83 0 0 0 6.693 4.148V21a2 2 0 0 1-2 2h-20a2 2 0 0 1-2-2v-5.1a5.909 5.909 0 0 0 7-5.9z" fill="currentColor" fill-rule="evenodd"/></symbol><symbol viewBox="-1 -1 28 19" id="overview" xmlns="http://www.w3.org/2000/svg"><path d="M25.386 10.26s-4.957 6.046-11.36 6.66a8.217 8.217 0 0 1-1.01.068 8.341 8.341 0 0 1-.98-.063C5.596 16.353.596 10.26.596 10.26a2.92 2.92 0 0 1 0-3.538S6.097 0 12.992 0c6.894 0 12.4 6.722 12.4 6.722a2.92 2.92 0 0 1-.005 3.538zm-23.5-1.757a24.105 24.105 0 0 0 3.464 3.385 8.578 8.578 0 0 1 0-6.764 24.052 24.052 0 0 0-3.466 3.379h.002zm11.132-6.609a6.611 6.611 0 1 0 6.484 6.61 6.548 6.548 0 0 0-6.486-6.61h.002zm7.666 3.23a8.577 8.577 0 0 1-.008 6.777 23.874 23.874 0 0 0 3.472-3.4 24.15 24.15 0 0 0-3.466-3.377h.002zm-7.666 7.145a3.766 3.766 0 0 1 0-7.531c.266.001.53.032.79.09a2.36 2.36 0 0 0 .6 4.629 2.315 2.315 0 0 0 2.225-1.752c.057.263.086.531.087.8a3.735 3.735 0 0 1-3.704 3.764h.002z" fill="currentColor" fill-rule="evenodd"/></symbol><symbol viewBox="-1 -1 20 20" id="plus" xmlns="http://www.w3.org/2000/svg"><path d="M18 8h-8V0H8v8H0v2h8v8h2v-8h8z" fill="currentColor" fill-rule="evenodd"/></symbol><symbol viewBox="-1 -1 14 14" id="refresh" xmlns="http://www.w3.org/2000/svg"><path d="M10.23 1.763A5.968 5.968 0 0 0 5.993 0 5.992 5.992 0 0 0 0 6c0 3.315 2.678 6 5.993 6a5.987 5.987 0 0 0 5.797-4.5h-1.56a4.493 4.493 0 0 1-4.237 3 4.504 4.504 0 0 1-4.5-4.5c0-2.482 2.017-4.5 4.5-4.5 1.245 0 2.355.518 3.165 1.335L6.743 5.25h5.25V0L10.23 1.763z" fill="currentColor" fill-rule="evenodd"/></symbol><symbol viewBox="-1 -1 20 22" id="reset" xmlns="http://www.w3.org/2000/svg"><path d="M15.364 4.416A8.977 8.977 0 0 1 18 10.779c0 2.482-1.01 4.74-2.636 6.364A8.978 8.978 0 0 1 9 19.78a8.98 8.98 0 0 1-6.364-2.637A8.976 8.976 0 0 1 0 10.78a8.978 8.978 0 0 1 2.636-6.364 8.987 8.987 0 0 1 4.248-2.383v2.514a6.588 6.588 0 0 0-4.466 6.234c0 1.821.735 3.46 1.928 4.654A6.558 6.558 0 0 0 9 17.362c1.822-.001 3.46-.735 4.654-1.928a6.555 6.555 0 0 0 1.928-4.654 6.587 6.587 0 0 0-4.466-6.233V2.032a8.987 8.987 0 0 1 4.248 2.383zM10 9.453H8V0h2v9.453z" fill-rule="nonzero" fill="currentColor"/></symbol><symbol viewBox="-1 -1 13 16" id="run" xmlns="http://www.w3.org/2000/svg"><path d="M0 0v14l11-7z" fill="currentColor" fill-rule="evenodd"/></symbol><symbol viewBox="-1 -1 28 23" id="sandbox" xmlns="http://www.w3.org/2000/svg"><path d="M13 20.97L0 16.593v-7.3l13-4.376.96.388-.05 1.475-.91-.223-10.56 3.557L13 13.67l10.56-3.556-5.75-2.024.17-1.453L26 9.293v7.3L13 20.97zm3.77-16.791l-.99 4.21.79.189a2.079 2.079 0 0 1 1.53 2.5l-.13.567-6.91-.519.39-1.642a2.052 2.052 0 0 1 2.47-1.542l.79.189.99-4.21-2.05-.492.8-3.429 5.18 1.241-.8 3.429-2.06-.491zm-1.5-2.838l-.3 1.263 3.04.727.3-1.263-3.04-.727z" fill="currentColor" fill-rule="evenodd"/></symbol><symbol viewBox="-1 -1 20 20" id="search" xmlns="http://www.w3.org/2000/svg"><path d="M12.5 11h-.79l-.28-.27A6.471 6.471 0 0 0 13 6.5 6.5 6.5 0 1 0 6.5 13c1.61 0 3.09-.59 4.23-1.57l.27.28v.79l5 4.99L17.49 16l-4.99-5zm-6 0C4.01 11 2 8.99 2 6.5S4.01 2 6.5 2 11 4.01 11 6.5 8.99 11 6.5 11z" fill="currentColor" fill-rule="evenodd"/></symbol><symbol viewBox="-1 -1 26 26" id="sql-dep" xmlns="http://www.w3.org/2000/svg"><path d="M23.002 18.002h-1v-6a.945.945 0 0 0-1-1h-8v-5h1a.945.945 0 0 0 1-1v-4a.945.945 0 0 0-1-1h-4a.945.945 0 0 0-1 1v4a.945.945 0 0 0 1 1h1v5h-8a.945.945 0 0 0-1 1v6h-1a.945.945 0 0 0-1 1v4a.945.945 0 0 0 1 1h4a.945.945 0 0 0 1-1v-4a.945.945 0 0 0-1-1h-1v-5h7v5h-1a.945.945 0 0 0-1 1v4a.945.945 0 0 0 1 1h4a.945.945 0 0 0 1-1v-4a.945.945 0 0 0-1-1h-1v-5h7v5h-1a.945.945 0 0 0-1 1v4a.945.945 0 0 0 1 1h4a.945.945 0 0 0 1-1v-4a.945.945 0 0 0-1-1zm-13-13v-4h4v4h-4zm-5 14v4h-4v-4h4zm9 0v4h-4v-4h4zm9 4h-4v-4h4v4z" fill="currentColor" fill-rule="evenodd"/></symbol><symbol viewBox="-1 -1 26 24" id="storage" xmlns="http://www.w3.org/2000/svg"><path d="M2 16h20a2 2 0 0 1 2 2v2a2 2 0 0 1-2 2H2a2 2 0 0 1-2-2v-2a2 2 0 0 1 2-2zm1 2h18a1 1 0 1 1 0 2H3a1 1 0 1 1 0-2zM2 8h20a2 2 0 0 1 2 2v2a2 2 0 0 1-2 2H2a2 2 0 0 1-2-2v-2a2 2 0 0 1 2-2zm1 2h18a1 1 0 1 1 0 2H3a1 1 0 1 1 0-2zM2 0h20a2 2 0 0 1 2 2v2a2 2 0 0 1-2 2H2a2 2 0 0 1-2-2V2a2 2 0 0 1 2-2zm1 2h18a1 1 0 1 1 0 2H3a1 1 0 1 1 0-2z" fill="currentColor" fill-rule="evenodd"/></symbol><symbol viewBox="-1 -1 17 17" id="support-by" xmlns="http://www.w3.org/2000/svg"><path d="M5.25 7.313a.938.938 0 1 0 0 1.875.938.938 0 0 0 0-1.876zm4.5 0a.938.938 0 1 0 0 1.875.938.938 0 0 0 0-1.876zM7.5 0C3.36 0 0 3.36 0 7.5 0 11.64 3.36 15 7.5 15c4.14 0 7.5-3.36 7.5-7.5C15 3.36 11.64 0 7.5 0zm0 13.5c-3.308 0-6-2.692-6-6 0-.217.015-.435.038-.645a7.546 7.546 0 0 0 3.907-4.028 7.48 7.48 0 0 0 7.807 2.978c.158.532.248 1.103.248 1.695 0 3.308-2.692 6-6 6z" fill="currentColor" fill-rule="evenodd"/></symbol><symbol viewBox="-1 -1 18 18" id="support-chat" xmlns="http://www.w3.org/2000/svg"><path d="M5.385 16a.709.709 0 0 1-.247-.05.7.7 0 0 1-.414-.64v-2.87A6.024 6.024 0 0 1 .007 6.26C.007 2.81 2.49 0 5.542 0h4.933c3.052 0 5.535 2.81 5.535 6.26 0 3.45-2.483 6.25-5.535 6.25H8.868l-3 3.27a.65.65 0 0 1-.483.22z" fill="currentColor" fill-rule="evenodd"/></symbol><symbol viewBox="-1 -1 34 22" id="switch-off" xmlns="http://www.w3.org/2000/svg"><path d="M2 10c0 4.42 3.579 8 7.993 8h12.014C26.415 18 30 14.415 30 10c0-4.42-3.579-8-7.993-8H9.993C5.585 2 2 5.585 2 10zm-2 0C0 4.477 4.483 0 9.993 0h12.014C27.526 0 32 4.476 32 10c0 5.523-4.483 10-9.993 10H9.993C4.474 20 0 15.524 0 10zm10 6a6 6 0 1 0 0-12 6 6 0 0 0 0 12z" fill-rule="nonzero" fill="currentColor"/></symbol><symbol viewBox="-1 -1 34 22" id="switch-on" xmlns="http://www.w3.org/2000/svg"><path d="M30 10c0-4.42-3.579-8-7.993-8H9.993C5.585 2 2 5.585 2 10c0 4.42 3.579 8 7.993 8h12.014C26.415 18 30 14.415 30 10zm2 0c0 5.523-4.483 10-9.993 10H9.993C4.474 20 0 15.524 0 10 0 4.477 4.483 0 9.993 0h12.014C27.526 0 32 4.476 32 10zM22 4a6 6 0 1 0 0 12 6 6 0 0 0 0-12z" fill-rule="nonzero" fill="currentColor"/></symbol><symbol viewBox="-1 -1 12 12" id="times" xmlns="http://www.w3.org/2000/svg"><g fill="none" fill-rule="evenodd"><path d="M-7-7h24v24H-7z"/><path fill="currentColor" d="M10 1.007L8.993 0 5 3.993 1.007 0 0 1.007 3.993 5 0 8.993 1.007 10 5 6.007 8.993 10 10 8.993 6.007 5z"/></g></symbol><symbol viewBox="-1 -1 26 26" id="transformation" xmlns="http://www.w3.org/2000/svg"><path d="M22 24H2a2 2 0 0 1-2-2V2a2 2 0 0 1 2-2h20a2 2 0 0 1 2 2v20a2 2 0 0 1-2 2zm0-21a1 1 0 0 0-1-1H3a1 1 0 0 0-1 1v18a1 1 0 0 0 1 1h18a1 1 0 0 0 1-1V3zm-3.113 10.1l-1.819.481a5.22 5.22 0 0 1-.367.873l.951 1.632c.363.46.363 1.108 0 1.568a1.248 1.248 0 0 1-1.565 0l-1.656-.967a5.359 5.359 0 0 1-.836.344l-.489 1.858A1.262 1.262 0 0 1 12 20a1.249 1.249 0 0 1-1.107-1.11l-.5-1.9c-.269-.089-.53-.2-.78-.331l-1.7.994a1.108 1.108 0 1 1-1.564-1.569l1.007-1.727a5.278 5.278 0 0 1-.309-.747l-1.934-.51a1.109 1.109 0 0 1 0-2.217l1.934-.509c.083-.256.187-.506.309-.746l-1.007-1.73a1.259 1.259 0 0 1 0-1.566 1.243 1.243 0 0 1 1.564 0l1.7.993c.25-.131.511-.242.78-.33l.5-1.9A1.261 1.261 0 0 1 12 3.991a1.249 1.249 0 0 1 1.107 1.107l.489 1.861c.288.09.568.204.836.343l1.657-.966a1.107 1.107 0 0 1 1.565 1.566L16.7 9.535c.148.28.27.571.366.872l1.819.48A1.262 1.262 0 0 1 19.995 12a1.248 1.248 0 0 1-1.108 1.1zM12.05 9.815a2.178 2.178 0 1 0 1.54.643 2.178 2.178 0 0 0-1.539-.64l-.001-.003z" fill="currentColor" fill-rule="evenodd"/></symbol><symbol viewBox="-1 -1 46 50" id="transformation-2" xmlns="http://www.w3.org/2000/svg"><path d="M28 28v-2h16v2H28zm0-20h16v2H28V8zM0 46V2a2 2 0 0 1 2-2h22v4H5a1 1 0 0 0-1 1v38a1 1 0 0 0 1 1h19v4H2a2 2 0 0 1-2-2zm21.784-8.215l-1-3.8c-.537-.179-1.059-.4-1.56-.663l-3.4 1.988c-1.05.584-2.266.864-3.129 0s-.6-2.014 0-3.137l2.013-3.456c-.244-.48-.45-.98-.618-1.492l-3.867-1.021c-1.157-.325-2.213-.992-2.213-2.214s1-1.852 2.213-2.219l3.868-1.018c.167-.513.373-1.012.617-1.493l-2.013-3.46c-.588-1.052-.865-2.268 0-3.132.865-.864 2.009-.6 3.129 0l3.4 1.987a10.479 10.479 0 0 1 1.56-.662l1-3.8c.328-1.157.992-2.214 2.214-2.214v11.662a4.347 4.347 0 0 0 0 8.692V40c-1.222 0-1.848-.994-2.214-2.215zM33 16h-5v-2h5v2zm7 6H28v-2h12v2zm-7 12h-5v-2h5v2zm7 6H28v-2h12v2z" fill="currentColor" fill-rule="evenodd"/></symbol><symbol viewBox="-1 -1 26 20" id="transformation-overview" xmlns="http://www.w3.org/2000/svg"><path d="M23.002.002h-4a.945.945 0 0 0-1 1v4a.945.945 0 0 0 1 1h1v2h-5v-1a.945.945 0 0 0-1-1h-4a.945.945 0 0 0-1 1v1h-6a.945.945 0 0 0-1 1v3h-1a.945.945 0 0 0-1 1v4a.945.945 0 0 0 1 1h4a.945.945 0 0 0 1-1v-4a.945.945 0 0 0-1-1h-1v-2h5v1a.945.945 0 0 0 1 1h4a.945.945 0 0 0 1-1v-1h6a.945.945 0 0 0 1-1v-3h1a.945.945 0 0 0 1-1v-4a.945.945 0 0 0-1-1zm-18 13v4h-4v-4h4zm9-2h-4v-4h4v4zm9-6h-4v-4h4v4z" fill="currentColor" fill-rule="evenodd"/></symbol><symbol viewBox="-1 -1 16 20" id="trash" xmlns="http://www.w3.org/2000/svg"><path d="M1 16c0 1.1.9 2 2 2h8c1.1 0 2-.9 2-2V4H1v12zM14 1h-3.5l-1-1h-5l-1 1H0v2h14V1z" fill="currentColor" fill-rule="evenodd"/></symbol><symbol viewBox="-1 -1 18 18" id="user" xmlns="http://www.w3.org/2000/svg"><path d="M4.44 7.17c.3 1.76 1.712 3.5 3.56 3.5s3.259-1.74 3.56-3.5a1.19 1.19 0 0 0 .662-1.07c0-.289-.1-.568-.283-.79.076-.332.115-.67.115-1.01a4.061 4.061 0 1 0-8.108 0c0 .34.038.678.115 1.01a1.238 1.238 0 0 0-.283.79 1.19 1.19 0 0 0 .662 1.07zm11.37 6.82a11.726 11.726 0 0 0-5.135-2.58.523.523 0 0 0-.213-.05h-.17a.489.489 0 0 0-.234.06 5.493 5.493 0 0 1-4.115 0 .488.488 0 0 0-.235-.06h-.124c-.037 0-.075.01-.112.01a11.818 11.818 0 0 0-5.283 2.62.531.531 0 0 0-.189.41v1.05a.55.55 0 0 0 .545.55h14.91a.55.55 0 0 0 .545-.55V14.4a.53.53 0 0 0-.189-.41h-.001z" fill="currentColor" fill-rule="evenodd"/></symbol><symbol viewBox="-1 -1 22 22" id="warning" xmlns="http://www.w3.org/2000/svg"><g fill="none" fill-rule="evenodd"><path d="M-2-2h24v24H-2z"/><path d="M10 0C4.48 0 0 4.48 0 10s4.48 10 10 10 10-4.48 10-10S15.52 0 10 0zm1 15H9v-2h2v2zm0-4H9V5h2v6z" fill="currentColor"/></g></symbol><symbol viewBox="-1 -1 26 26" id="writer" xmlns="http://www.w3.org/2000/svg"><path d="M22 24H2a2 2 0 0 1-2-2V2a2 2 0 0 1 2-2h6L6 2H3a1 1 0 0 0-1 1v18a1 1 0 0 0 1 1h18a1 1 0 0 0 1-1V3a1 1 0 0 0-1-1h-3l-2-2h6a2 2 0 0 1 2 2v20a2 2 0 0 1-2 2zM16.715 4.358a.96.96 0 1 1-1.358 1.357L13 3.358V14a1 1 0 1 1-2 0V3.358L8.642 5.715a.96.96 0 0 1-1.358-1.357L11.117.525a.9.9 0 0 1 .167-.24 1.071 1.071 0 0 1 1.431 0 .935.935 0 0 1 .144.217l3.856 3.856z" fill="currentColor" fill-rule="evenodd"/></symbol></svg>