<svg xmlns="http://www.w3.org/2000/svg" width="56680.47" height="98991.98" viewBox="0 0 14.996707 26.191629">
  <path d="M6.1 12.75c.6 0 1.06.47 1.06 1.04 0 .5-.47 1-1.06 1-.58 0-1.06-.5-1.06-1.1 0-.6.48-1.1 1.06-1.1m2.8 0c.58 0 1.05.46 1.05 1.03 0 .56-.47 1.03-1.06 1.03-.6 0-1.1-.48-1.1-1.05 0-.6.5-1.06 1-1.06M7.5 16.2c3.3 0 6.2-4.4 6.2-10C13.8.8 11.7 0 7.6 0S1.22.8 1.22 6.38s2.76 10 6.38 10m7.25 5.1c-.44-.75-.94-1.33-1.45-1.8-.5-.48-1.03-.85-1.53-1.22-.24-.18-.48-.34-.73-.5.25-.14.5-.3.73-.48 1.14-.86 2.14-2 2.98-3.4.3-.5.13-1.14-.38-1.43-.5-.3-1.15-.13-1.45.37-.73 1.2-1.55 2.15-2.43 2.8-1 .7-1.9 1.05-2.9 1.1h-.5c-1-.05-1.9-.4-2.9-1.1-.9-.65-1.7-1.6-2.46-2.8-.3-.5-.94-.66-1.45-.37-.5.3-.7.93-.4 1.42.85 1.4 1.84 2.55 3 3.4.23.2.5.35.72.5-.25.15-.5.3-.73.5-.5.36-1 .73-1.5 1.2-.5.48-1 1.06-1.47 1.8-.3.5-.12 1.13.38 1.42.5.2 1.17.1 1.46-.4.36-.6.7-1 1.1-1.4.4-.4.85-.7 1.36-1.1.24-.2.5-.4.74-.5l-.1.13C4.26 21 3.53 22.88 3.53 25c0 .6.5 1.05 1.07 1.05.57 0 1.05-.47 1.05-1.05 0-1.63.6-3.2 1.23-4.4l.56-.9c.2.27.4.6.6 1 .6 1.14 1.2 2.7 1.2 4.3 0 .6.43 1.07 1.02 1.07.6 0 1.06-.46 1.06-1.04 0-2.12-.75-4-1.47-5.35l-.1-.17c.26.1.5.3.76.5.5.4.98.75 1.38 1.1.4.38.73.8 1.07 1.35.2.33.57.5.94.5.2 0 .37-.03.53-.13.5-.3.68-.93.38-1.42z" fill="#24b8ec"/>
</svg>
