
<svg xmlns="http://www.w3.org/2000/svg" width="302361.34" height="173424.14" viewBox="0 0 79.999769 45.885135">
  <path d="M77.46 41.38c0 1.5-1.34 2.52-3.1 2.52-1.3 0-2.28-.65-2.28-1.8v-.03c0-1.23 1-1.96 2.73-1.96 1.1 0 2 .2 2.7.5zM78.74 35c-.8-.85-2.12-1.32-3.86-1.32-1.52 0-2.65.27-3.75.7-.4.15-.73.57-.73 1.06 0 .63.5 1.12 1.13 1.12.13 0 .26-.02.42-.07.73-.3 1.56-.5 2.58-.5 1.87 0 2.9.9 2.9 2.5v.3c-.92-.3-1.84-.5-3.14-.5-2.9 0-4.9 1.2-4.9 3.8 0 2.3 1.9 3.6 4.1 3.6 1.8 0 3-.8 3.8-1.7v.4c0 .6.5 1.1 1.3 1.1.7 0 1.3-.6 1.3-1.3v-5.8c0-1.6-.4-2.8-1.3-3.7m-12-5.8c-.8 0-1.3.6-1.3 1.3v13.9c0 .7.6 1.3 1.3 1.3.7 0 1.3-.6 1.3-1.38V30.5c0-.75-.6-1.35-1.4-1.35M61 39.75c0 2-1.35 3.7-3.5 3.7-2.1 0-3.56-1.7-3.56-3.76v-.1c0-2.1 1.37-3.8 3.5-3.8 2.1 0 3.6 1.7 3.6 3.8zm-3.5-6.2c-3.6 0-6.23 2.77-6.23 6.14 0 3.3 2.65 6.1 6.2 6.1 3.6 0 6.25-2.8 6.25-6.2v-.1c0-3.4-2.6-6.1-6.2-6.1M48 39.7c0 2-1.36 3.7-3.52 3.7-2.06 0-3.54-1.7-3.54-3.75v-.06c0-2.1 1.37-3.7 3.5-3.7 2.1 0 3.58 1.7 3.58 3.8zm-3.52-6.2c-3.56 0-6.2 2.78-6.2 6.15v.03c0 3.36 2.6 6.1 6.17 6.1 3.6 0 6.24-2.8 6.24-6.13v-.05c0-3.33-2.6-6.1-6.2-6.1m-9.7 6.2c0 2.36-1.5 3.8-3.4 3.8-1.8 0-3.4-1.5-3.4-3.76s1.6-3.78 3.4-3.78c1.8 0 3.3 1.5 3.3 3.78zm-2.7-6.12c-1.9 0-3.1.97-4 2.2v-5.3c0-.75-.6-1.33-1.3-1.33-.8 0-1.3.57-1.3 1.33v13.9c0 .73.6 1.33 1.3 1.33.7 0 1.3-.6 1.3-1.3v-.6c.8 1 2 2 4 2 2.7 0 5.4-2.2 5.4-6.1v-.1c0-3.9-2.7-6.1-5.4-6.1m-16.6 5.3c.2-1.8 1.4-3.1 3-3.1 1.7 0 2.7 1.4 2.9 3.1zm3-5.3c-3.4 0-5.7 2.8-5.7 6.2v.1c0 3.7 2.6 6.1 6 6.1 1.8 0 3.1-.6 4.2-1.6.2-.2.3-.5.3-.8 0-.6-.5-1.1-1.1-1.1-.3 0-.5.1-.7.3-.8.6-1.7 1.07-2.8 1.07-1.7 0-3.1-1.06-3.4-3h7.3c.7 0 1.2-.52 1.2-1.3 0-2.7-1.86-5.8-5.57-5.8M7 36.9l4.8-4.7c.36-.3.5-.6.5-1.03 0-.67-.5-1.27-1.23-1.27-.47 0-.8.2-1.1.5L2.7 37.9v-6.6c0-.76-.58-1.36-1.33-1.36-.77 0-1.37.6-1.37 1.35v13.1c0 .7.6 1.3 1.37 1.3.75 0 1.34-.6 1.34-1.4v-3.2l2.6-2.4 5 6.4c.3.3.6.6 1.2.6.8 0 1.4-.6 1.4-1.4 0-.5-.1-.7-.3-1zm31.6-24.3c.6 0 1.07.47 1.07 1.04 0 .5-.47 1-1.05 1-.6 0-1.06-.5-1.06-1.07 0-.58.47-1.04 1.06-1.04m2.76 0c.52 0 1 .46 1 1.03 0 .55-.48 1-1.06 1-.6 0-1.06-.46-1.06-1.03 0-.57.47-1.03 1.05-1.03M40 16.1c3.28 0 6.16-4.4 6.16-9.94 0-5.5-2.1-6.3-6.12-6.3-4.04 0-6.33.8-6.33 6.34s2.8 9.9 6.4 9.9m7.2 5.28c-.4-.74-.9-1.3-1.4-1.78s-1-.85-1.5-1.22l-.7-.48c.3-.15.5-.3.8-.5 1.1-.84 2.1-1.98 3-3.37.3-.5.1-1.13-.4-1.4-.5-.3-1.12-.15-1.42.34-.72 1.2-1.54 2.16-2.42 2.8-.95.7-1.9 1.05-2.8 1.1h-.54c-.94-.03-1.86-.37-2.8-1.07-.87-.65-1.7-1.58-2.4-2.8-.3-.48-.95-.64-1.46-.35-.5.3-.67.94-.4 1.4.87 1.4 1.86 2.56 3 3.4l.7.5c-.27.14-.5.3-.75.48-.5.38-1 .76-1.52 1.23-.5.5-1 1.05-1.4 1.8-.3.5-.15 1.12.35 1.4.5.3 1.18.13 1.47-.36.4-.56.7-.96 1.1-1.33.4-.34.84-.7 1.34-1.05.25-.18.5-.34.75-.48l-.1.16c-.7 1.35-1.5 3.2-1.5 5.33 0 .57.5 1.03 1.07 1.03.6 0 1.06-.47 1.06-1 0-1.68.6-3.2 1.2-4.4l.6-.9c.2.25.4.6.6.96.6 1.14 1.2 2.7 1.2 4.3 0 .57.47 1.03 1 1.03.6 0 1.1-.45 1.1-1 0-2.1-.7-4-1.4-5.3l-.08-.2c.27.13.5.3.77.47.5.37.95.7 1.34 1.06.4.37.8.77 1.1 1.33.2.4.6.5.9.5.2 0 .4 0 .57-.1.5-.2.7-.9.4-1.4" fill="#24b8ec"/>
</svg>
