
<svg xmlns="http://www.w3.org/2000/svg" width="56265.06" height="99066.663" viewBox="0 0 14.886797 26.211388"><path d="M6.06 12.657c.58 0 1.05.462 1.05 1.03 0 .57-.47 1.033-1.05 1.033-.582 0-1.053-.462-1.053-1.032 0-.57.47-1.03 1.052-1.03m2.767 0c.58 0 1.052.46 1.052 1.03 0 .57-.472 1.032-1.053 1.032-.58 0-1.052-.462-1.052-1.032 0-.57.47-1.03 1.052-1.03M7.543 16.25c3.263 0 6.136-4.376 6.136-9.92C13.68.79 11.59 0 7.542 0 3.495 0 1.207.79 1.207 6.333s2.746 9.92 6.336 9.92m7.198 5.27c-.44-.735-.934-1.306-1.44-1.777-.51-.47-1.02-.842-1.517-1.213-.235-.177-.477-.338-.723-.486.246-.147.488-.31.723-.485 1.135-.847 2.123-1.99 2.958-3.38.296-.49.13-1.123-.372-1.412-.5-.29-1.145-.126-1.44.365-.723 1.203-1.545 2.134-2.42 2.786-.936.695-1.858 1.04-2.805 1.094-.086-.003-.173-.005-.26-.005-.086 0-.173 0-.26.004-.946-.055-1.868-.4-2.805-1.093-.874-.65-1.696-1.582-2.42-2.785-.295-.49-.94-.654-1.44-.365-.5.29-.667.92-.372 1.412.835 1.39 1.823 2.533 2.958 3.38.235.176.476.338.722.485-.246.148-.487.31-.722.486-.496.37-1.008.742-1.516 1.213-.507.47-1.002 1.042-1.442 1.777-.295.49-.13 1.122.372 1.41.5.29 1.145.127 1.44-.363.34-.563.687-.962 1.078-1.327.39-.364.834-.69 1.342-1.07.248-.184.496-.342.743-.478-.03.052-.058.107-.088.162-.713 1.34-1.45 3.203-1.452 5.324 0 .57.47 1.03 1.052 1.03.58 0 1.052-.46 1.052-1.03-.003-1.637.594-3.212 1.213-4.368.188-.352.376-.663.546-.927.18.277.378.607.575.982.61 1.15 1.188 2.702 1.184 4.314 0 .57.47 1.03 1.053 1.03.58 0 1.052-.46 1.052-1.03-.004-2.12-.74-3.982-1.453-5.324l-.088-.16c.247.135.494.294.743.478.507.378.95.705 1.34 1.07.392.364.74.763 1.078 1.325.196.326.547.508.907.508.182 0 .365-.047.533-.144.5-.29.668-.92.373-1.41" fill="#56bfef"/></svg>