<svg xmlns="http://www.w3.org/2000/svg" width="390892.54" height="98992" viewBox="0 0 103.42365 26.191633">
  <defs>
    <clipPath id="a">
      <path d="M0 566.93h566.93V0H0z"/>
    </clipPath>
  </defs>
  <g clip-path="url(#a)" transform="matrix(.35278 0 0 -.35278 -48.3 116.922)">
    <path d="M422.84 283.38c0-4.27-3.84-7.2-8.88-7.2-3.66 0-6.5 1.85-6.5 5.1v.13c0 3.5 2.9 5.7 7.82 5.7 3.02 0 5.6-.6 7.56-1.3zm3.65 18.23c-2.4 2.5-6.1 3.8-11.1 3.8-4.4 0-7.6-.7-10.7-2-1.2-.4-2.1-1.6-2.1-3 0-1.8 1.4-3.2 3.2-3.2.3 0 .7.1 1.2.2 2 .8 4.4 1.4 7.3 1.4 5.3 0 8.2-2.5 8.2-7.3v-.8c-2.6.9-5.3 1.4-9 1.4-8.2 0-13.8-3.5-13.8-10.8v-.2c0-6.7 5.5-10.4 11.73-10.4 5.1 0 8.6 2.2 10.84 4.9v-1.2c0-1.7 1.5-3.2 3.7-3.2 2.1 0 3.7 1.6 3.7 3.7v16.6c0 4.4-1.1 8-3.55 10.4m-34.3 16.5c-2.13 0-3.8-1.7-3.8-3.8V275c0-2.15 1.7-3.8 3.8-3.8 2.16 0 3.86 1.65 3.86 3.8v39.5c0 2.1-1.7 3.8-3.83 3.8m-15.8-30.2c0-5.8-3.9-10.65-10.1-10.65-5.9 0-10.15 4.9-10.15 10.77v.1c0 5.86 3.9 10.7 10.06 10.7 6 0 10.2-4.9 10.2-10.83zM366 305.8c-10.2 0-17.76-7.96-17.76-17.6v-.1c0-9.6 7.5-17.4 17.62-17.4 10.25 0 17.8 7.96 17.8 17.5v.14c0 9.6-7.5 17.47-17.7 17.47m-27.6-17.7c0-5.8-3.9-10.63-10.1-10.63-5.9 0-10.14 4.9-10.14 10.73v.13c0 5.83 3.9 10.7 10 10.7 6 0 10.2-4.9 10.2-10.86zm-10.1 17.7c-10.2 0-17.76-8-17.76-17.6v-.1c0-9.6 7.5-17.4 17.68-17.4 10.26 0 17.8 7.98 17.8 17.5v.1c0 9.68-7.5 17.5-17.7 17.5M300.7 288c0-6.6-4.27-10.75-9.5-10.75-5.17 0-9.7 4.33-9.7 10.76v.2c0 6.5 4.53 10.8 9.7 10.8 5.16 0 9.5-4.2 9.5-10.7zm-7.7 17.6c-5.4 0-8.86-2.8-11.32-6.3v14.97c0 2.13-1.7 3.8-3.84 3.8-2.15 0-3.8-1.67-3.8-3.8v-39.54c0-2.1 1.7-3.82 3.8-3.82 2.13 0 3.83 1.8 3.83 3.9v1.7c2.32-3.1 5.8-5.9 11.33-5.9 7.9 0 15.45 6.3 15.45 17.5v.1c0 11.3-7.63 17.5-15.45 17.5m-47.5-15.1c.7 5.2 3.98 8.9 8.64 8.9 5.04 0 7.94-3.85 8.44-8.82zm8.7 15.2c-9.5 0-16.25-7.9-16.25-17.5v-.2c0-10.4 7.43-17.4 17.07-17.4 5.17 0 8.95 1.7 11.97 4.48.5.6 1 1.4 1 2.36 0 1.8-1.3 3.1-3 3.1-.9 0-1.4-.2-2-.7-2.2-1.73-4.7-2.9-7.9-2.9-4.9 0-8.8 3.1-9.6 8.57h20.8c1.9 0 3.6 1.55 3.6 3.7 0 7.8-5.3 16.58-15.9 16.58m-32.4-9.4l13.7 13.4c.8.8 1.4 1.7 1.4 2.9 0 1.9-1.5 3.67-3.6 3.67-1.4 0-2.4-.5-3.3-1.5L209 293.5v18.83c0 2.2-1.7 3.9-3.8 3.9-2.2 0-3.9-1.7-3.9-3.9v-37.5c0-2.16 1.7-3.9 3.9-3.9 2.13 0 3.83 1.74 3.83 3.9v9.24l7.2 7 14.15-18.3c.8-1.08 1.8-1.84 3.3-1.84 2.2 0 3.9 1.66 3.9 3.83 0 1.2-.44 1.96-1.07 2.8zm-67.8-.94c1.6 0 3-1.35 3-2.97 0-1.65-1.4-2.97-3-2.97s-3 1.3-3 2.9c0 1.6 1.3 2.94 3 2.94m7.9 0c1.6 0 3-1.3 3-2.94 0-1.6-1.4-2.9-3-2.9s-3 1.33-3 2.96c0 1.6 1.3 2.9 3 2.9m-3.6-10.2c9.3 0 17.5 12.5 17.5 28.3 0 15.9-6 18.1-17.58 18.1-11.56 0-18.1-2.2-18.1-18.1 0-15.8 7.85-28.3 18.1-28.3m20.63-14.4c-1.2 2.1-2.6 3.77-4.1 5.1-1.4 1.37-2.9 2.4-4.3 3.5-.67.5-1.36.94-2.06 1.36.7.4 1.4.9 2.06 1.4 3.25 2.4 6.07 5.7 8.46 9.63.9 1.4.4 3.2-1 4.03-1.4.85-3.3.4-4.1-1-2.02-3.4-4.4-6.1-6.9-7.95-2.7-2-5.3-3-8-3.16h-1.5c-2.7.2-5.3 1.17-8 3.16-2.5 1.8-4.82 4.5-6.9 7.9-.8 1.4-2.7 1.87-4.1 1.04-1.42-.82-1.9-2.63-1.05-4.03 2.4-3.9 5.2-7.2 8.47-9.6.7-.5 1.4-1 2.1-1.4-.7-.5-1.4-.9-2.1-1.4-1.4-1.1-2.88-2.1-4.3-3.5-1.48-1.32-2.9-3-4.15-5.1-.83-1.4-.36-3.2 1.07-4 1.4-.8 3.24-.34 4.1 1.06.95 1.6 1.94 2.74 3.05 3.78 1.1 1.06 2.4 2 3.84 3.07.7.56 1.4 1 2.1 1.4-.1-.14-.14-.3-.2-.45-2.07-3.9-4.17-9.2-4.18-15.2 0-1.7 1.33-3 3-3s3 1.3 3 2.92c0 4.67 1.7 9.17 3.5 12.47.5 1 1 1.9 1.5 2.62.5-.8 1.1-1.7 1.63-2.8 1.75-3.3 3.4-7.7 3.4-12.3 0-1.6 1.34-2.94 3-2.94s3 1.3 3 2.9c0 6.07-2.1 11.4-4.15 15.2l-.2.5c.7-.4 1.4-.86 2.1-1.4 1.44-1.06 2.7-2 3.8-3.03 1.1-1 2.1-2.15 3.1-3.8.6-.9 1.6-1.4 2.6-1.4.5 0 1.07.13 1.55.4 1.4.83 1.9 2.64 1.06 4.04z" fill="#24b8ec"/>
  </g>
</svg>
