<?xml version="1.0" standalone="no"?>
<!DOCTYPE svg PUBLIC "-//W3C//DTD SVG 1.1//EN" "http://www.w3.org/Graphics/SVG/1.1/DTD/svg11.dtd" >
<svg xmlns="http://www.w3.org/2000/svg">
<metadata>Generated by IcoMoon</metadata>
<defs>
<font id="kbc" horiz-adv-x="1024">
<font-face units-per-em="1024" ascent="960" descent="-64" />
<missing-glyph horiz-adv-x="1024" />
<glyph unicode="&#x20;" horiz-adv-x="512" d="" />
<glyph unicode="&#xe600;" glyph-name="arrow-right" d="M389.171 157.798c-13.722-13.875-13.722-36.301 0-50.125 13.67-13.875 35.891-13.875 49.613 0l196.096 200.038c13.722 13.875 13.722 36.301 0 50.125l-196.096 200.090c-13.722 13.875-35.891 13.875-49.613 0s-13.722-36.25-0.051-50.074l160.819-175.053-160.768-175.002z" />
<glyph unicode="&#xe601;" glyph-name="extractors" horiz-adv-x="983" d="M825.138 43.773c0 0-667.244 0-667.244 0-36.866 0-66.724 29.859-66.724 66.724 0 0 0 667.244 0 667.244 0 36.866 29.859 66.724 66.724 66.724 0 0 233.536 0 233.536 0s0-66.724 0-66.724c0 0-200.173 0-200.173 0-18.417 0-33.362-14.946-33.362-33.362 0 0 0-600.519 0-600.519 0-18.417 14.946-33.362 33.362-33.362 0 0 600.519 0 600.519 0 18.417 0 33.362 14.946 33.362 33.362 0 0 0 600.519 0 600.519 0 18.417-14.946 33.362-33.362 33.362 0 0-200.173 0-200.173 0s0 66.724 0 66.724c0 0 233.536 0 233.536 0 36.866 0 66.724-29.859 66.724-66.724 0 0 0-667.244 0-667.244 0-36.866-29.859-66.724-66.724-66.724zM603.547 568.060c12.511 12.511 32.762 12.511 45.273 0s12.511-32.762 0-45.273c0 0-127.877-127.877-127.877-127.877-1.434-2.87-3.168-5.604-5.571-8.007-6.573-6.573-15.247-9.474-23.854-9.142-8.608-0.333-17.281 2.569-23.854 9.142-2.136 2.136-3.403 4.738-4.837 7.24 0 0-128.612 128.645-128.612 128.645-12.511 12.511-12.511 32.762 0 45.273s32.762 12.511 45.273 0c0 0 78.669-78.634 78.669-78.634s0 355.040 0 355.040c0 18.417 14.946 33.362 33.362 33.362s33.362-14.945 33.362-33.362c0 0 0-355.040 0-355.040s78.669 78.634 78.669 78.634z" />
<glyph unicode="&#xe602;" glyph-name="keboola" horiz-adv-x="597" d="M470.272 289.493c-9.429-6.955-19.072-13.355-28.928-19.157 9.856-5.803 19.499-12.16 28.928-19.115 19.883-14.592 40.32-29.227 60.672-47.787 20.267-18.517 40.064-41.045 57.685-69.973 0 0 0 0 0 0 11.776-19.328 5.12-44.203-14.891-55.595-6.741-3.797-14.080-5.632-21.333-5.632-14.421 0-28.459 7.168-36.309 20.011-13.568 22.144-27.477 37.888-43.093 52.267-15.659 14.293-33.365 27.179-53.717 42.069-9.941 7.253-19.84 13.525-29.696 18.901 1.152-2.091 2.347-4.224 3.541-6.4 28.501-52.864 57.941-126.165 58.112-209.664 0-22.443-18.859-40.619-42.112-40.619s-42.112 18.176-42.112 40.619c0.128 63.488-22.955 124.587-47.36 169.899-7.893 14.72-15.829 27.776-22.997 38.656-6.827-10.368-14.336-22.656-21.888-36.523-24.747-45.525-48.64-107.563-48.512-172.032 0-22.443-18.816-40.619-42.069-40.619s-42.112 18.176-42.112 40.619c0.128 83.499 29.568 156.8 58.112 209.664 1.195 2.176 2.347 4.309 3.541 6.4-9.899-5.376-19.755-11.605-29.696-18.859-20.352-14.933-38.101-27.819-53.717-42.112-15.659-14.379-29.525-30.123-43.093-52.267-11.819-19.328-37.589-25.771-57.643-14.379-20.011 11.392-26.709 36.267-14.891 55.595 17.621 28.928 37.419 51.456 57.685 69.973 20.309 18.56 40.789 33.195 60.629 47.787 9.472 6.955 19.115 13.312 28.928 19.115-9.813 5.803-19.456 12.203-28.885 19.157-45.44 33.365-84.949 78.421-118.357 133.12-11.819 19.328-5.12 44.203 14.891 55.595s45.824 4.949 57.643-14.379c28.928-47.403 61.824-84.053 96.811-109.696 37.461-27.392 74.325-40.96 112.213-43.093 3.456 0.128 6.912 0.213 10.411 0.213 3.456 0 6.912-0.085 10.368-0.213 37.931 2.133 74.795 15.701 112.256 43.093 34.987 25.643 67.883 62.293 96.811 109.696 11.819 19.328 37.589 25.771 57.643 14.379 20.011-11.392 26.667-36.267 14.891-55.595-33.408-54.699-72.96-99.755-118.357-133.12zM300.629 332.715c-143.616 0-253.483 172.373-253.483 390.656s91.52 249.429 253.483 249.429c161.963 0 245.504-31.147 245.504-249.429s-114.901-390.656-245.504-390.656zM241.28 474.283c-23.253 0-42.112-18.176-42.112-40.619s18.859-40.619 42.112-40.619c23.253 0 42.112 18.176 42.112 40.619s-18.859 40.619-42.112 40.619zM352 474.283c-23.211 0-42.069-18.176-42.069-40.619s18.859-40.619 42.069-40.619c23.253 0 42.112 18.176 42.112 40.619s-18.859 40.619-42.112 40.619z" />
<glyph unicode="&#xe603;" glyph-name="orchestrations" horiz-adv-x="1054" d="M845.030 103.251c0 0-621.823 0-621.823 0-34.356 0-62.182 27.826-62.182 62.182 0 0 0 158.596 0 158.596 10.167-1.71 20.427-3.14 31.092-3.14 102.974 0 186.485 83.448 186.547 186.422 0 0 50.896 32.397 50.896 32.397 29.847-20.272 65.757-32.273 104.56-32.273 48.626 0 92.652 18.81 125.733 49.374 0 0 39.237-10.694 39.237-10.694 23.349-76.205 93.181-131.951 177.033-131.951 10.664 0 20.926 1.432 31.092 3.14 0 0 0-251.871 0-251.871 0-34.356-27.826-62.182-62.182-62.182zM876.123 476.346c-68.681 0-124.365 55.684-124.365 124.365 0 0.56 0.155 1.089 0.155 1.648 0 0-110.312 30.096-110.312 30.096-21.485-37.372-61.311-62.836-107.482-62.836-42.346 0-79.657 21.267-102.134 53.632 0 0-122.064-77.696-122.064-77.696 3.886-12.094 6.56-24.749 6.56-38.118 0-68.681-55.684-124.365-124.365-124.365s-124.365 55.684-124.365 124.365c0 68.681 55.684 124.365 124.365 124.365 32.801 0 62.4-12.933 84.599-33.672 0 0 134.096 85.345 134.096 85.345-0.312 3.512-1.056 6.902-1.056 10.509 0 68.681 55.684 124.365 124.365 124.365s124.365-55.684 124.365-124.365c0-0.56-0.155-1.089-0.155-1.649 0 0 110.343-30.096 110.343-30.096 21.453 37.372 61.28 62.836 107.452 62.836 68.681 0 124.365-55.684 124.365-124.365s-55.684-124.365-124.365-124.365zM192.117 569.619c-34.356 0-62.182-27.826-62.182-62.182s27.826-62.182 62.182-62.182c34.356 0 62.182 27.826 62.182 62.182s-27.826 62.182-62.182 62.182zM534.119 756.166c-34.356 0-62.182-27.826-62.182-62.182s27.826-62.182 62.182-62.182c34.356 0 62.182 27.826 62.182 62.182s-27.826 62.182-62.182 62.182zM876.123 662.892c-34.356 0-62.182-27.826-62.182-62.182s27.826-62.182 62.182-62.182c34.356 0 62.182 27.826 62.182 62.182s-27.826 62.182-62.182 62.182z" />
<glyph unicode="&#xe604;" glyph-name="overview" horiz-adv-x="1028" d="M889.606 405.468c0 0-154.788-188.794-354.731-207.967-10.368-1.28-20.86-2.124-31.57-2.124-10.368 0-20.547 0.781-30.601 1.967-201.098 17.861-357.167 208.124-357.167 208.124-24.856 30.383-24.856 80.096 0 110.476 0 0 171.651 209.904 387.019 209.904s387.051-209.904 387.051-209.904c24.856-30.383 24.856-80.096 0-110.476zM155.725 460.332c0.717-0.874 42.998-53.646 108.23-105.577-13.864 32.351-21.67 68.010-21.67 105.546 0 37.596 7.807 73.288 21.734 105.67-65.234-51.899-107.513-104.7-108.292-105.638zM503.305 666.707c-111.823 0-202.472-92.398-202.472-206.406 0-113.976 90.65-206.375 202.472-206.375 111.853 0 202.504 92.397 202.504 206.375 0 114.007-90.65 206.406-202.504 206.406zM742.686 565.846c13.864-32.35 21.669-68.010 21.669-105.546 0-37.752-7.901-73.569-21.921-106.076 65.388 52.085 107.639 105.201 108.418 106.107-0.75 0.875-42.998 53.615-108.168 105.514zM503.305 342.732c-63.858 0-115.632 52.649-115.632 117.567 0 64.952 51.774 117.6 115.632 117.6 8.493 0 16.738-1.061 24.701-2.81-30.729-8.463-53.458-36.848-53.458-70.854 0-40.688 32.321-73.692 72.195-73.692 33.412 0 61.235 23.263 69.478 54.709 1.719-8.055 2.747-16.363 2.747-24.951 0-64.917-51.774-117.567-115.663-117.567z" />
<glyph unicode="&#xe605;" glyph-name="picker" horiz-adv-x="1020" d="M826.117 469.221c0 0-257.336-259.323-257.336-259.323-0.065-0.129-0.129-0.321-0.256-0.385 0 0-26.015-26.144-26.015-26.144-14.353-14.416-37.678-14.416-52.031 0 0 0-26.015 26.144-26.015 26.144-0.129 0.065-0.193 0.256-0.256 0.385 0 0-257.336 259.323-257.336 259.323-14.354 14.416-14.354 37.742 0 52.16 0 0 26.015 26.144 26.015 26.144 14.354 14.416 37.678 14.416 52.031 0 0 0 231.577-233.371 231.577-233.371s231.577 233.371 231.577 233.371c14.353 14.416 37.678 14.416 52.031 0 0 0 26.015-26.144 26.015-26.144 14.353-14.416 14.353-37.743 0-52.159z" />
<glyph unicode="&#xe606;" glyph-name="picker-double" horiz-adv-x="1007" d="M824.866 577.536c0 0-27.648-27.648-27.648-27.648-15.292-15.292-40.004-15.292-55.296 0 0 0-245.897 247.33-245.897 247.33s-245.965-247.33-245.965-247.33c-15.223-15.292-40.004-15.292-55.228 0 0 0-27.716 27.648-27.716 27.648-15.223 15.292-15.223 40.073 0 55.296 0 0 273.34 274.842 273.34 274.842 0.068 0.137 0.137 0.341 0.273 0.41 0 0 27.648 27.716 27.648 27.716 15.223 15.292 40.004 15.292 55.228 0 0 0 27.648-27.716 27.648-27.716 0.137-0.068 0.205-0.273 0.273-0.41 0 0 273.34-274.842 273.34-274.842 15.223-15.223 15.223-40.004 0-55.296zM192.785 393.011c15.292 15.36 40.141 15.36 55.433 0 0 0 246.716-248.627 246.716-248.627s246.716 248.627 246.716 248.627c15.292 15.36 40.141 15.36 55.433 0 0 0 27.716-27.785 27.716-27.785 15.292-15.36 15.292-40.277 0-55.637 0 0-274.159-276.275-274.159-276.275-0.068-0.137-0.137-0.273-0.273-0.41 0 0-27.716-27.785-27.716-27.785-15.292-15.36-40.141-15.36-55.433 0 0 0-27.716 27.785-27.716 27.785-0.137 0.137-0.205 0.273-0.273 0.41 0 0-274.159 276.275-274.159 276.275-15.292 15.36-15.292 40.277 0 55.637 0 0 27.716 27.785 27.716 27.785z" />
<glyph unicode="&#xe607;" glyph-name="storage" horiz-adv-x="1040" d="M888.059 64.624c0 0-720.32 0-720.32 0-39.797 0-72.031 32.233-72.031 72.031 0 0 0 72.031 0 72.031 0 39.797 32.233 72.031 72.031 72.031 0 0 720.32 0 720.32 0 39.797 0 72.031-32.234 72.031-72.031 0 0 0-72.031 0-72.031 0-39.797-32.233-72.031-72.031-72.031zM852.044 208.688c0 0-648.288 0-648.288 0-19.882 0-36.016-16.135-36.016-36.016s16.135-36.016 36.016-36.016c0 0 648.288 0 648.288 0 19.882 0 36.016 16.135 36.016 36.016s-16.135 36.016-36.016 36.016zM888.059 352.753c0 0-720.32 0-720.32 0-39.797 0-72.031 32.233-72.031 72.031 0 0 0 72.031 0 72.031 0 39.797 32.233 72.031 72.031 72.031 0 0 720.32 0 720.32 0 39.797 0 72.031-32.233 72.031-72.031 0 0 0-72.031 0-72.031 0-39.797-32.233-72.031-72.031-72.031zM852.044 496.816c0 0-648.288 0-648.288 0-19.882 0-36.016-16.135-36.016-36.016s16.135-36.016 36.016-36.016c0 0 648.288 0 648.288 0 19.882 0 36.016 16.135 36.016 36.016s-16.135 36.016-36.016 36.016zM888.059 640.879c0 0-720.32 0-720.32 0-39.797 0-72.031 32.233-72.031 72.031 0 0 0 72.031 0 72.031 0 39.797 32.233 72.031 72.031 72.031 0 0 720.32 0 720.32 0 39.797 0 72.031-32.233 72.031-72.031 0 0 0-72.031 0-72.031 0-39.797-32.233-72.031-72.031-72.031zM852.044 784.945c0 0-648.288 0-648.288 0-19.882 0-36.016-16.135-36.016-36.016s16.135-36.016 36.016-36.016c0 0 648.288 0 648.288 0 19.882 0 36.016 16.135 36.016 36.016s-16.135 36.016-36.016 36.016z" />
<glyph unicode="&#xe608;" glyph-name="transformations" d="M859.523 43.773c0 0-695.045 0-695.045 0-38.402 0-69.504 31.104-69.504 69.504 0 0 0 695.045 0 695.045 0 38.402 31.104 69.504 69.504 69.504 0 0 695.045 0 695.045 0 38.401 0 69.504-31.104 69.504-69.504 0 0 0-695.045 0-695.045 0-38.401-31.104-69.504-69.504-69.504zM859.523 773.57c0 19.182-15.569 34.753-34.753 34.753 0 0-625.541 0-625.541 0-19.182 0-34.753-15.569-34.753-34.753 0 0 0-625.541 0-625.541 0-19.182 15.569-34.753 34.753-34.753 0 0 625.541 0 625.541 0 19.182 0 34.753 15.569 34.753 34.753 0 0 0 625.541 0 625.541zM751.338 422.468c0 0-63.18-16.716-63.18-16.716-3.335-10.565-7.646-20.678-12.754-30.339 0 0 33.050-56.75 33.050-56.75 10.182-18.21 15.012-39.41 0-54.457-15.013-15.013-34.926-10.46-54.387 0 0 0-57.55 33.605-57.55 33.605-9.279-4.76-18.94-8.757-29.088-11.955 0 0-16.995-64.57-16.995-64.57-5.699-20.19-17.238-38.575-38.471-38.575s-32.111 17.341-38.471 38.575c0 0-17.376 65.959-17.376 65.959-9.383 3.128-18.454 6.95-27.071 11.504 0 0-59.183-34.543-59.183-34.543-18.245-10.148-39.34-15.013-54.352 0-15.047 15.047-10.496 34.995 0 54.526 0 0 34.995 60.017 34.995 60.017-4.206 8.376-7.855 16.995-10.739 25.96 0 0-67.21 17.723-67.21 17.723-20.122 5.665-38.471 17.238-38.471 38.471 0 21.304 17.341 32.18 38.471 38.575 0 0 67.21 17.688 67.21 17.688 2.884 9 6.533 17.619 10.739 25.925 0 0-34.995 60.121-34.995 60.121-10.217 18.28-15.047 39.41 0 54.422 15.013 15.081 34.891 10.496 54.352 0 0 0 59.183-34.509 59.183-34.509 8.689 4.552 17.688 8.376 27.071 11.468 0 0 17.376 66.064 17.376 66.064 5.699 20.087 17.238 38.47 38.471 38.47s32.076-17.307 38.471-38.47c0 0 16.995-64.674 16.995-64.674 10.113-3.093 19.809-7.159 29.053-11.921 0 0 57.585 33.57 57.585 33.57 18.21 10.252 39.375 15.081 54.387 0 14.978-15.013 10.46-34.961 0-54.422 0 0-33.050-56.75-33.050-56.75 5.108-9.662 9.418-19.774 12.719-30.304 0 0 63.215-16.681 63.215-16.681 20.122-5.699 38.505-17.272 38.505-38.54s-17.341-32.111-38.505-38.471zM513.773 536.63c-41.738 0-75.586-33.919-75.586-75.725 0-41.772 33.849-75.656 75.586-75.656s75.586 33.884 75.586 75.656c0 41.808-33.848 75.725-75.586 75.725z" />
<glyph unicode="&#xe609;" glyph-name="writers" d="M859.523 43.773c0 0-695.045 0-695.045 0-38.402 0-69.504 31.104-69.504 69.504 0 0 0 695.045 0 695.045 0 38.402 31.104 69.504 69.504 69.504 0 0 208.514 0 208.514 0s-69.504-69.504-69.504-69.504c0 0-104.257 0-104.257 0-19.182 0-34.753-15.569-34.753-34.753 0 0 0-625.541 0-625.541 0-19.182 15.569-34.753 34.753-34.753 0 0 625.541 0 625.541 0 19.182 0 34.753 15.569 34.753 34.753 0 0 0 625.541 0 625.541 0 19.182-15.569 34.753-34.753 34.753 0 0-104.257 0-104.257 0s-69.504 69.504-69.504 69.504c0 0 208.514 0 208.514 0 38.401 0 69.504-31.104 69.504-69.504 0 0 0-695.045 0-695.045 0-38.401-31.104-69.504-69.504-69.504zM675.856 726.377c13.032-13.032 13.032-34.127 0-47.159s-34.127-13.032-47.159 0c0 0-81.946 81.911-81.946 81.911s0-369.834 0-369.834c0-19.182-15.569-34.753-34.753-34.753s-34.753 15.569-34.753 34.753c0 0 0 369.834 0 369.834s-81.946-81.911-81.946-81.911c-13.032-13.032-34.127-13.032-47.159 0s-13.032 34.127 0 47.159c0 0 133.205 133.205 133.205 133.205 1.494 2.989 3.301 5.839 5.804 8.341 6.847 6.847 15.882 9.869 24.848 9.522 8.966 0.349 18.002-2.676 24.848-9.522 2.224-2.224 3.544-4.935 5.040-7.541 0 0 133.97-134.005 133.97-134.005z" />
<glyph unicode="&#xe60a;" glyph-name="user" d="M784.384 233.062c-126.208 45.978-166.554 84.787-166.554 167.885 0 49.869 38.554 33.587 55.45 124.928 7.014 37.888 41.062 0.614 47.616 87.091 0 34.458-18.586 43.059-18.586 43.059s9.472 51.046 13.158 90.266c4.506 48.947-28.262 175.309-203.469 175.309-175.155 0-208.026-126.362-203.418-175.309 3.686-39.219 13.158-90.266 13.158-90.266s-18.637-8.55-18.637-43.059c6.502-86.477 40.55-49.203 47.565-87.091 16.947-91.341 55.501-75.059 55.501-124.928 0-83.098-40.346-121.907-166.554-167.885-126.669-46.080-208.896-93.133-208.896-125.235 0-32.051 0-107.776 0-107.776h962.56c0 0 0 75.725 0 107.776s-82.278 79.104-208.896 125.235z" />
<glyph unicode="&#xe60b;" glyph-name="comment" d="M819.2 819.2h-614.4c-56.32 0-102.4-46.080-102.4-102.4v-358.4c0-56.32 46.080-102.4 102.4-102.4h204.8l204.8-153.6v153.6h204.8c56.32 0 102.4 46.080 102.4 102.4v358.4c0 56.32-46.080 102.4-102.4 102.4z" />
<glyph unicode="&#xe60c;" glyph-name="plus" d="M778.189 435.2h-215.040v215.040c0 28.262-22.886 30.72-51.2 30.72-28.262 0-51.2-2.406-51.2-30.72v-215.040h-214.989c-28.314 0-30.72-22.938-30.72-51.2s2.406-51.2 30.72-51.2h214.989v-215.040c0-28.262 22.938-30.72 51.2-30.72 28.314 0 51.2 2.458 51.2 30.72v215.040h215.040c28.314 0 30.771 22.938 30.771 51.2s-2.458 51.2-30.771 51.2z" />
<glyph unicode="&#xe60d;" glyph-name="cw" d="M449.178 880.64c227.635 0 412.723-182.374 418.253-409.344h125.85l-188.365-209.971-188.365 209.971h146.227c-5.478 169.011-143.718 304.384-313.6 304.384-173.363 0-313.856-140.954-313.856-314.88s140.493-314.88 313.856-314.88c69.53 0 133.734 22.733 185.754 61.082l71.936-77.005c-71.014-55.757-160.461-89.037-257.69-89.037-231.117 0-418.458 187.955-418.458 419.84s187.341 419.84 418.458 419.84z" />
<glyph unicode="&#xe60e;" glyph-name="search" d="M898.304 180.838l-193.485 193.485c29.184 47.974 45.978 104.192 45.978 164.454 0 174.899-151.603 326.502-326.554 326.502-174.899 0-316.723-141.824-316.723-316.723 0-174.95 151.552-326.554 326.502-326.554 58.163 0 112.64 15.77 159.488 43.162l194.509-194.56c19.098-19.046 49.92-19.046 68.915 0l48.282 48.23c18.995 19.046 12.083 43.008-6.912 62.003zM205.005 548.557c0 121.088 98.15 219.29 219.238 219.29 121.139 0 229.069-107.93 229.069-229.069s-98.15-219.29-219.29-219.29-229.018 107.93-229.018 229.069z" />
<glyph unicode="&#xe60f;" glyph-name="cog" d="M859.392 384c0 53.658 33.024 96 82.688 125.082-9.011 29.901-20.787 58.624-35.379 85.606-55.808-14.592-100.915 7.27-138.803 45.158-37.99 37.939-49.613 83.098-35.021 138.803-26.982 14.592-55.603 26.522-85.606 35.43-29.082-49.715-81.664-82.739-135.27-82.739s-106.138 33.024-135.27 82.739c-30.003-8.909-58.624-20.838-85.606-35.379 14.541-55.757 2.97-100.915-34.97-138.854-37.939-37.888-83.098-59.75-138.803-45.21-14.592-26.931-26.47-55.654-35.43-85.555 49.715-29.082 82.739-71.424 82.739-125.082 0-53.606-33.024-106.189-82.739-135.322 8.96-29.952 20.838-58.624 35.43-85.606 55.757 14.592 100.864 2.97 138.803-34.97 37.939-37.939 49.51-83.046 34.97-138.803 26.982-14.592 55.654-26.522 85.606-35.43 29.133 49.766 81.664 82.739 135.27 82.739s106.24-33.024 135.322-82.739c30.003 8.96 58.624 20.838 85.606 35.43-14.592 55.757-3.021 100.864 35.021 138.803 37.888 37.888 82.995 59.75 138.803 45.21 14.592 26.982 26.419 55.654 35.379 85.606-49.715 29.133-82.739 71.475-82.739 125.082zM512 196.966c-103.27 0-186.982 83.763-186.982 187.034s83.712 187.034 186.982 187.034c103.322 0 187.034-83.763 187.034-187.034s-83.712-187.034-187.034-187.034z" />
<glyph unicode="&#xe610;" glyph-name="cup" d="M512 803.84c-219.085 0-355.226-72.192-347.853-130.765l73.83-607.59c2.918-23.654 113.715-101.171 274.022-101.325 160.358 0.154 271.104 77.722 274.074 101.325l73.779 607.59c7.373 58.573-128.717 130.765-347.853 130.765zM512 584.141c-160.307 0.154-274.074 57.242-274.074 78.592-0.051 21.197 113.766 78.438 274.074 78.336 160.307 0.051 274.125-57.139 274.074-78.336 0-21.35-113.715-78.438-274.074-78.592z" />
<glyph unicode="&#xe612;" horiz-adv-x="2304" d="M512 972.8c0 0 1280 0 1280 0 282.752 0 512-229.248 512-512s-229.248-512-512-512c0 0-1280 0-1280 0-282.752 0-512 229.248-512 512s229.248 512 512 512z" />
<glyph unicode="&#xe613;" horiz-adv-x="2304" d="M1775.872 331.648c0 0-125.141 129.28-125.141 129.28s125.141 129.28 125.141 129.28c21.291 19.2 21.291 50.389 0 69.589-21.248 19.243-55.765 19.243-77.013 0 0 0-120.32-124.288-120.32-124.288s-120.363 124.288-120.363 124.288c-21.248 19.243-55.723 19.243-77.013 0-21.291-19.2-21.291-50.389 0-69.589 0 0 125.141-129.28 125.141-129.28s-125.141-129.28-125.141-129.28c-21.291-19.243-21.291-50.389 0-69.632 21.248-19.2 55.723-19.2 77.013 0 0 0 120.363 124.331 120.363 124.331s120.32-124.331 120.32-124.331c21.291-19.2 55.765-19.2 77.056 0 21.248 19.243 21.248 50.389-0.043 69.632z" />
<glyph unicode="&#xe614;" horiz-adv-x="2304" d="M512 844.8c212.096 0 384-171.904 384-384s-171.904-384-384-384c-212.096 0-384 171.904-384 384s171.904 384 384 384z" />
<glyph unicode="&#xe615;" horiz-adv-x="2304" d="M512 972.8c0 0 1280 0 1280 0 282.752 0 512-229.248 512-512s-229.248-512-512-512c0 0-1280 0-1280 0-282.752 0-512 229.248-512 512s229.248 512 512 512z" />
<glyph unicode="&#xe616;" horiz-adv-x="2304" d="M676.267 247.467c-13.312 0-25.899 6.784-34.005 18.432 0 0-121.515 143.957-121.515 143.957-14.208 20.437-10.539 49.579 8.235 65.067 18.816 15.488 45.525 11.435 59.733-9.003 0 0 84.139-90.112 84.139-90.112s229.717 276.352 229.717 276.352c12.459 21.76 38.741 28.416 58.752 14.891 19.968-13.568 26.069-42.24 13.653-64 0 0-262.528-333.696-262.528-333.696-7.424-12.971-20.224-21.163-34.261-21.845-0.64-0.043-1.28-0.043-1.92-0.043z" />
<glyph unicode="&#xe617;" horiz-adv-x="2304" d="M1792 844.8c212.096 0 384-171.904 384-384s-171.904-384-384-384c-212.096 0-384 171.904-384 384s171.904 384 384 384z" />
<glyph unicode="&#xe618;" glyph-name="applications" horiz-adv-x="1015" d="M849.485 84.433c0 0-239.506 0-239.506 0-37.807 0-68.429 30.621-68.429 68.429 0 0 0 205.291 0 205.291 0 37.807 30.621 68.429 68.429 68.429 0 0 239.506 0 239.506 0 37.807 0 68.429-30.621 68.429-68.429 0 0 0-205.291 0-205.291 0-37.807-30.621-68.429-68.429-68.429zM849.485 323.938c0 18.888-15.328 34.215-34.215 34.215 0 0-171.075 0-171.075 0-18.888 0-34.215-15.328-34.215-34.215 0 0 0-136.862 0-136.862 0-18.888 15.328-34.215 34.215-34.215 0 0 171.075 0 171.075 0 18.888 0 34.215 15.328 34.215 34.215 0 0 0 136.862 0 136.862zM849.485 495.015c0 0-239.506 0-239.506 0-37.807 0-68.429 30.621-68.429 68.429 0 0 0 205.291 0 205.291 0 37.807 30.621 68.429 68.429 68.429 0 0 239.506 0 239.506 0 37.807 0 68.429-30.621 68.429-68.429 0 0 0-205.291 0-205.291 0-37.807-30.621-68.429-68.429-68.429zM849.485 734.522c0 18.888-15.328 34.215-34.215 34.215 0 0-171.075 0-171.075 0-18.888 0-34.215-15.328-34.215-34.215 0 0 0-136.862 0-136.862 0-18.888 15.328-34.215 34.215-34.215 0 0 171.075 0 171.075 0 18.888 0 34.215 15.328 34.215 34.215 0 0 0 136.862 0 136.862zM404.689 84.433c0 0-239.506 0-239.506 0-37.807 0-68.429 30.621-68.429 68.429 0 0 0 205.291 0 205.291 0 37.807 30.621 68.429 68.429 68.429 0 0 239.506 0 239.506 0 37.807 0 68.429-30.621 68.429-68.429 0 0 0-205.291 0-205.291 0-37.807-30.621-68.429-68.429-68.429zM404.689 323.938c0 18.888-15.328 34.215-34.215 34.215 0 0-171.075 0-171.075 0-18.888 0-34.215-15.328-34.215-34.215 0 0 0-136.862 0-136.862 0-18.888 15.328-34.215 34.215-34.215 0 0 171.075 0 171.075 0 18.888 0 34.215 15.328 34.215 34.215 0 0 0 136.862 0 136.862zM404.689 495.015c0 0-239.506 0-239.506 0-37.807 0-68.429 30.621-68.429 68.429 0 0 0 205.291 0 205.291 0 37.807 30.621 68.429 68.429 68.429 0 0 239.506 0 239.506 0 37.807 0 68.429-30.621 68.429-68.429 0 0 0-205.291 0-205.291 0-37.807-30.621-68.429-68.429-68.429zM404.689 734.522c0 18.888-15.328 34.215-34.215 34.215 0 0-171.075 0-171.075 0-18.888 0-34.215-15.328-34.215-34.215 0 0 0-136.862 0-136.862 0-18.888 15.328-34.215 34.215-34.215 0 0 171.075 0 171.075 0 18.888 0 34.215 15.328 34.215 34.215 0 0 0 136.862 0 136.862z" />
<glyph unicode="&#xe619;" glyph-name="jobs" d="M859.523 43.773c0 0-695.045 0-695.045 0-38.402 0-69.504 31.104-69.504 69.504 0 0 0 695.045 0 695.045 0 38.402 31.104 69.504 69.504 69.504 0 0 695.045 0 695.045 0 38.401 0 69.504-31.104 69.504-69.504 0 0 0-695.045 0-695.045 0-38.401-31.104-69.504-69.504-69.504zM859.523 773.57c0 19.182-15.569 34.753-34.753 34.753 0 0-625.541 0-625.541 0-19.182 0-34.753-15.569-34.753-34.753 0 0 0-625.541 0-625.541 0-19.182 15.569-34.753 34.753-34.753 0 0 625.541 0 625.541 0 19.182 0 34.753 15.569 34.753 34.753 0 0 0 625.541 0 625.541zM372.99 634.561c0 0 312.492-173.588 312.492-173.588s-312.492-173.588-312.492-173.588c0 0 0 347.176 0 347.176z" />
<glyph unicode="&#xe61a;" glyph-name="keboola-logo" horiz-adv-x="4034" d="M3982.77 138.705c-30.348 0-51.138 21.070-51.138 44.808 0 0 0 17.594 0 17.594-31.216-37.795-78.879-67.677-149.101-67.677-85.83 0-162.102 50.083-162.102 143.236 0 0 0 1.769 0 1.769 0 100.197 77.141 149.411 188.975 149.411 51.138 0 87.568-7.913 123.097-19.363 0 0 0 11.45 0 11.45 0 65.908-39.874 101.066-113.571 101.066-39.874 0-72.797-7.044-101.407-18.463-6.082-1.769-11.264-2.638-16.477-2.638-24.266 0-44.218 19.332-44.218 43.939 0 19.332 13.002 36.026 28.61 42.201 43.349 16.694 87.568 27.214 147.363 27.214 68.484 0 119.622-18.432 151.707-51.852 33.823-33.389 49.431-82.603 49.431-143.236 0 0 0-228.507 0-228.507 0-28.982-22.559-50.952-51.169-50.952zM3934.239 341.706c-26.872 10.55-62.433 18.463-104.045 18.463-67.615 0-107.489-29.013-107.489-77.359 0 0 0-1.738 0-1.738 0-44.839 39.036-70.315 89.305-70.315 69.353 0 122.228 40.432 122.228 99.297 0 0 0 31.651 0 31.651zM3512.941 138.705c-28.61 0-52.007 22.838-52.007 52.72 0 0 0 544.861 0 544.861 0 29.013 22.528 52.752 52.007 52.752s52.876-23.738 52.876-52.752c0 0 0-544.861 0-544.861 0-29.882-23.397-52.72-52.876-52.72zM3154.944 132.561c-139.574 0-242.719 108.079-242.719 239.895 0 0 0 1.769 0 1.769 0 132.717 104.014 242.564 244.457 242.564 140.412 0 243.588-108.11 243.588-240.795 0 0 0-1.769 0-1.769 0-131.817-104.014-241.664-245.326-241.664zM3295.387 374.225c0 81.734-58.089 149.411-140.443 149.411-84.092 0-137.837-66.808-137.837-147.642 0 0 0-1.769 0-1.769 0-80.865 58.089-148.511 139.574-148.511 84.961 0 138.705 66.777 138.705 146.742 0 0 0 1.769 0 1.769zM2637.421 132.561c-139.543 0-242.719 108.079-242.719 239.895 0 0 0 1.769 0 1.769 0 132.717 104.045 242.564 244.457 242.564 140.443 0 243.588-108.11 243.588-240.795 0 0 0-1.769 0-1.769 0-131.817-104.014-241.664-245.326-241.664zM2777.864 374.225c0 81.734-58.089 149.411-140.443 149.411-84.061 0-137.806-66.808-137.806-147.642 0 0 0-1.769 0-1.769 0-80.865 58.058-148.511 139.543-148.511 84.961 0 138.705 66.777 138.705 146.742 0 0 0 1.769 0 1.769zM2151.145 133.43c-76.272 0-123.966 38.664-156.051 81.734 0 0 0-23.738 0-23.738 0-29.013-23.397-52.72-52.876-52.72-28.61 0-52.007 23.707-52.007 52.72 0 0 0 544.861 0 544.861 0 29.882 22.559 52.752 52.007 52.752 29.479 0 52.876-22.869 52.876-52.752 0 0 0-206.507 0-206.507 33.823 48.345 81.486 87.009 156.051 87.009 107.489 0 212.371-86.14 212.371-240.795 0 0 0-1.769 0-1.769 0-153.786-104.014-240.795-212.371-240.795zM2256.896 375.994c0 89.616-59.795 148.511-130.886 148.511s-133.492-59.764-133.492-148.511c0 0 0-1.769 0-1.769 0-88.778 62.402-148.511 133.492-148.511 71.959 0 130.886 57.096 130.886 148.511 0 0 0 1.769 0 1.769zM1785.36 337.299c0 0-286.937 0-286.937 0 11.264-75.559 64.14-117.76 131.755-117.76 44.218 0 78.879 15.825 108.358 40.432 7.789 6.144 14.739 9.681 26.872 9.681 23.397 0 41.612-18.463 41.612-43.070 0-13.188-6.082-24.607-13.871-32.52-41.612-37.795-93.618-61.502-164.709-61.502-132.624 0-234.93 97.528-234.93 240.795 0 0 0 1.738 0 1.738 0 132.717 92.781 241.695 223.666 241.695 145.625 0 217.584-121.297 217.584-228.507 0-29.882-22.528-50.983-49.4-50.983zM1616.306 529.78c-64.14 0-109.227-50.083-118.753-122.166 0 0 234.899 0 234.899 0-6.92 68.546-46.794 122.166-116.146 122.166zM1390.064 191.426c0-29.882-23.397-52.72-53.744-52.72-20.79 0-33.823 10.55-45.087 25.476 0 0-195.025 252.214-195.025 252.214s-98.832-96.659-98.832-96.659c0 0 0-127.441 0-127.441 0-29.882-23.397-53.589-52.876-53.589-30.348 0-53.744 23.707-53.744 53.589 0 0 0 516.779 0 516.779 0 29.851 23.397 53.589 53.744 53.589 29.479 0 52.876-23.738 52.876-53.589 0 0 0-260.158 0-260.158s287.806 293.547 287.806 293.547c12.133 13.188 25.135 20.201 44.187 20.201 29.479 0 49.431-23.738 49.431-50.083 0-16.694-6.951-29.013-19.084-40.432 0 0-188.975-184.568-188.975-184.568s204.583-257.489 204.583-257.489c8.688-11.419 14.739-21.969 14.739-38.664zM522.768 203.435c19.921-18.525 39.346-41.053 56.661-69.973 0 0 0 0 0 0 11.574-19.301 5.027-44.218-14.646-55.606-6.578-3.817-13.808-5.616-20.945-5.616-14.15 0-27.958 7.168-35.654 20.015-13.312 22.125-26.965 37.888-42.325 52.255-15.36 14.305-32.768 27.183-52.72 42.077-9.775 7.261-19.487 13.529-29.168 18.897 1.148-2.11 2.296-4.22 3.444-6.392 28.020-52.845 56.941-126.169 57.096-209.672 0-22.435-18.525-40.619-41.363-40.619s-41.332 18.184-41.332 40.619c0.124 63.488-22.59 124.556-46.514 169.891-7.758 14.739-15.577 27.772-22.59 38.664-6.703-10.364-14.119-22.652-21.473-36.523-24.328-45.521-47.787-107.551-47.663-172.032 0-22.435-18.494-40.619-41.332-40.619s-41.332 18.184-41.332 40.619c0.124 83.503 29.044 156.827 57.065 209.672 1.148 2.172 2.296 4.282 3.475 6.392-9.712-5.368-19.425-11.605-29.168-18.866-19.984-14.926-37.392-27.803-52.752-42.108-15.36-14.367-29.013-30.13-42.325-52.286-11.605-19.301-36.926-25.755-56.599-14.336-19.673 11.357-26.221 36.274-14.615 55.575 17.284 28.92 36.709 51.448 56.661 69.973 19.952 18.556 40.060 33.202 59.547 47.787 9.247 6.982 18.742 13.312 28.393 19.115-9.65 5.803-19.146 12.195-28.393 19.146-44.591 33.358-83.409 78.414-116.208 133.12-11.605 19.332-5.058 44.218 14.615 55.606s44.994 4.965 56.599-14.367c28.424-47.383 60.695-84.061 95.046-109.723 36.833-27.369 73.014-40.929 110.22-43.070 3.413 0.124 6.827 0.217 10.24 0.186 3.382 0.031 6.796-0.062 10.178-0.186 37.236 2.141 73.418 15.701 110.251 43.070 34.351 25.662 66.622 62.34 95.046 109.723 11.605 19.332 36.926 25.755 56.599 14.367s26.221-36.274 14.646-55.606c-32.83-54.706-71.649-99.762-116.24-133.12-9.247-6.951-18.742-13.343-28.393-19.146 9.65-5.803 19.146-12.164 28.393-19.115 19.518-14.584 39.595-29.231 59.578-47.787zM296.619 332.707c-141.064 0-248.925 172.373-248.925 390.672 0 218.267 89.864 249.422 248.925 249.422 159.030 0 241.074-31.154 241.074-249.422 0-218.298-112.857-390.672-241.074-390.672zM238.313 474.298c-22.838 0-41.332-18.184-41.332-40.619s18.494-40.619 41.332-40.619c22.838 0 41.332 18.184 41.332 40.619s-18.494 40.619-41.332 40.619zM388.406 433.68c0 22.435-18.525 40.619-41.332 40.619-22.838 0-41.332-18.184-41.332-40.619s18.494-40.619 41.332-40.619c22.807 0 41.332 18.184 41.332 40.619z" />
<glyph unicode="&#xe61b;" glyph-name="pencil" d="M847.923 796.774c-73.83 73.882-129.28 62.822-129.28 62.822l-554.291-554.291-51.712-243.866 243.866 51.712 554.24 554.24c0 0 11.11 55.45-62.822 129.382zM341.965 142.49l-83.098-17.92c-8.038 15.002-17.715 30.003-35.379 47.718-17.664 17.664-32.717 27.29-47.718 35.328l17.971 83.149 24.013 24.013c0 0 45.261-0.922 96.307-51.968 51.098-51.098 52.019-96.358 52.019-96.358l-24.115-23.962z" />
<glyph unicode="&#xe61c;" glyph-name="cross" d="M512 890.88c-237.568 0-430.080-192.614-430.080-430.080 0-237.568 192.563-430.080 430.080-430.080s430.080 192.563 430.080 430.080c0 237.517-192.563 430.080-430.080 430.080zM600.525 460.8l156.723-156.723-88.525-88.525-156.723 156.723-156.723-156.723-88.474 88.525 156.672 156.723-156.672 156.672 88.474 88.525 156.723-156.672 156.723 156.672 88.525-88.474-156.723-156.723z" />
<glyph unicode="&#xe61d;" glyph-name="logo" horiz-adv-x="5289" d="M5259.776 210.389c-17.237 0-30.549 12.885-30.549 29.568v203.008c0 72.704-40.747 118.144-112.085 118.144-69.717 0-121.472-49.237-121.472-122.709v-198.443c0-16.683-12.544-29.568-29.781-29.568s-30.549 12.885-30.549 29.568v340.096c0 15.915 13.312 29.525 29.781 29.525 17.237 0 30.549-12.885 30.549-29.525v-42.411c26.667 42.411 68.992 76.501 138.709 76.501 97.963 0 155.179-63.659 155.179-156.8v-217.387c0-16.683-13.312-29.568-29.781-29.568zM4613.931 205.099c-121.472 0-210.048 92.416-210.048 203.008v1.493c0 110.592 89.344 204.544 211.627 204.544 121.472 0 210.816-92.416 210.816-203.008v-1.536c0-110.549-90.155-204.501-212.395-204.501zM4764.416 409.6c0 84.096-65.067 153.003-150.485 153.003-87.765 0-148.139-68.907-148.139-151.467v-1.536c0-84.053 64.299-152.235 149.717-152.235 87.765 0 148.907 68.181 148.907 150.741v1.493zM4258.091 687.616c-19.584 0-35.243 12.843-35.243 31.061v9.813c0 18.944 15.659 31.061 35.243 31.061 20.395 0 36.053-12.117 36.053-31.061v-9.813c0-18.219-15.659-31.061-36.053-31.061zM4092.672 554.283h-105.003v-228.736c0-47.744 27.435-65.152 68.181-65.152 21.163 0 32.128 5.291 36.821 5.291 14.123 0 25.856-11.349 25.856-24.96 0-10.624-7.040-18.944-17.237-22.741-17.237-6.827-36.053-10.624-59.563-10.624-65.024 0-114.389 31.061-114.389 110.592v236.331h-32.939c-14.080 0-26.624 12.117-26.624 25.771 0 14.379 12.544 25.728 26.624 25.728h32.939v92.416c0 15.915 12.544 29.568 29.781 29.568 16.427 0 30.549-13.653 30.549-29.568v-92.416h105.003c14.891 0 27.435-12.117 27.435-25.728 0-14.421-12.544-25.771-27.435-25.771zM3644.331 257.365c46.251 0 83.072 20.437 112.853 47.744 3.925 3.755 9.387 7.552 17.237 7.552 14.891 0 27.435-12.885 27.435-26.496 0-6.827-3.157-13.653-7.851-18.176-38.4-37.12-84.651-62.891-152.832-62.891-118.315 0-207.659 93.184-207.659 203.008v1.493c0 110.592 89.344 204.544 207.659 204.544 67.413 0 112.853-25.003 148.907-56.832 4.693-3.797 9.429-11.349 9.429-20.437 0-15.915-13.355-28.032-29.013-28.032-7.851 0-14.891 3.029-19.584 6.827-29.013 25.728-61.909 46.933-110.507 46.933-82.304 0-144.981-67.413-144.981-151.467v-1.536c0-84.821 64.256-152.235 148.907-152.235zM3323.691 388.395h-293.077c8.619-84.821 70.528-132.523 142.635-132.523 50.133 0 86.997 18.901 116.779 45.44 4.693 3.797 10.155 6.827 17.237 6.827 14.891 0 26.624-11.392 26.624-25.003 0-6.827-3.115-13.653-9.387-18.944-38.4-35.627-83.883-59.093-152.832-59.093-111.275 0-202.197 82.56-202.197 203.776v1.493c0 112.853 82.304 203.776 194.347 203.776 119.936 0 188.117-94.677 188.117-198.485 0-15.872-13.355-27.264-28.245-27.264zM3162.283 564.907c-70.571 0-123.861-56.832-131.669-133.333h260.949c-6.272 71.211-48.597 133.333-129.28 133.333zM2836.139 210.389c-17.237 0-30.549 12.885-30.549 29.568v203.008c0 72.704-40.747 118.144-112.085 118.144-69.717 0-121.472-49.237-121.472-122.709v-198.443c0-16.683-12.544-29.568-29.781-29.568s-30.549 12.885-30.549 29.568v340.096c0 15.915 13.312 29.525 29.781 29.525 17.237 0 30.549-12.885 30.549-29.525v-42.411c26.667 42.411 68.992 76.501 138.709 76.501 97.963 0 155.179-63.659 155.179-156.8v-217.387c0-16.683-13.312-29.568-29.781-29.568zM2353.323 210.389c-17.28 0-30.592 12.885-30.592 29.568v203.008c0 72.704-40.747 118.144-112.043 118.144-69.76 0-121.472-49.237-121.472-122.709v-198.443c0-16.683-12.544-29.568-29.781-29.568-17.28 0-30.592 12.885-30.592 29.568v340.096c0 15.915 13.312 29.525 29.781 29.525 17.237 0 30.592-12.885 30.592-29.525v-42.411c26.624 42.411 68.949 76.501 138.709 76.501 97.963 0 155.179-63.659 155.179-156.8v-217.387c0-16.683-13.355-29.568-29.781-29.568zM1707.435 205.099c-121.472 0-210.048 92.416-210.048 203.008v1.493c0 110.592 89.344 204.544 211.627 204.544 121.472 0 210.816-92.416 210.816-203.008v-1.536c0-110.549-90.112-204.501-212.395-204.501zM1857.92 409.6c0 84.096-65.067 153.003-150.485 153.003-87.765 0-148.096-68.907-148.096-151.467v-1.536c0-84.053 64.256-152.235 149.675-152.235 87.765 0 148.907 68.181 148.907 150.741v1.493zM1214.379 260.395c68.181 0 116.011 22.741 163.029 64.384 4.693 4.565 11.733 8.32 19.584 8.32 15.659 0 29.781-13.611 29.781-28.757 0-9.088-4.693-16.683-10.197-21.205-54.059-47.744-113.621-78.037-203.776-78.037-158.293 0-275.072 120.448-275.072 272.683v1.536c0 149.973 116.011 274.176 277.461 274.176 88.533 0 144.981-28.032 195.925-68.907 6.272-5.333 12.501-13.653 12.501-24.235 0-15.915-14.891-29.568-31.317-29.568-8.619 0-15.701 3.797-20.395 6.827-42.325 36.352-90.112 60.587-157.525 60.587-121.472 0-212.395-95.445-212.395-217.387v-1.493c0-122.709 91.733-218.923 212.395-218.923zM530.944 203.435c20.267-18.517 40.064-41.045 57.685-69.973v0c11.776-19.328 5.12-44.203-14.891-55.595-6.741-3.797-14.080-5.632-21.333-5.632-14.421 0-28.459 7.168-36.309 20.011-13.568 22.144-27.477 37.888-43.093 52.267-15.659 14.293-33.365 27.179-53.717 42.069-9.941 7.253-19.797 13.525-29.696 18.901 1.195-2.091 2.347-4.224 3.541-6.4 28.544-52.864 57.941-126.165 58.112-209.664 0-22.443-18.859-40.619-42.112-40.619s-42.112 18.176-42.112 40.619c0.128 63.488-22.955 124.587-47.36 169.899-7.893 14.72-15.829 27.776-22.997 38.656-6.827-10.368-14.336-22.656-21.888-36.523-24.747-45.525-48.64-107.563-48.512-172.032 0-22.443-18.816-40.619-42.069-40.619s-42.112 18.176-42.112 40.619c0.128 83.499 29.568 156.8 58.112 209.664 1.195 2.176 2.347 4.309 3.541 6.4-9.899-5.376-19.755-11.605-29.696-18.859-20.352-14.933-38.101-27.819-53.717-42.112-15.659-14.379-29.525-30.123-43.093-52.267-11.819-19.328-37.589-25.771-57.643-14.379-20.011 11.392-26.667 36.267-14.891 55.595 17.621 28.928 37.419 51.456 57.685 69.973 20.352 18.56 40.832 33.195 60.672 47.787 9.429 6.955 19.072 13.312 28.885 19.115-9.813 5.803-19.456 12.203-28.885 19.157-45.44 33.365-84.949 78.421-118.357 133.12-11.776 19.328-5.12 44.203 14.891 55.595s45.824 4.949 57.643-14.379c28.928-47.403 61.824-84.053 96.811-109.696 37.461-27.392 74.325-40.96 112.213-43.093 3.456 0.128 6.955 0.213 10.411 0.213s6.955-0.085 10.368-0.213c37.931 2.133 74.795 15.701 112.256 43.093 34.987 25.643 67.883 62.293 96.811 109.696 11.819 19.328 37.589 25.771 57.643 14.379 20.011-11.392 26.667-36.267 14.891-55.595-33.408-54.699-72.96-99.755-118.357-133.12-9.429-6.955-19.072-13.355-28.928-19.157 9.856-5.803 19.499-12.16 28.928-19.115 19.883-14.592 40.32-29.227 60.672-47.787zM300.629 332.715c-143.616 0-253.44 172.373-253.44 390.656s91.477 249.429 253.44 249.429c161.963 0 245.504-31.147 245.504-249.429s-114.901-390.656-245.504-390.656zM241.28 474.283c-23.253 0-42.069-18.176-42.069-40.619s18.816-40.619 42.069-40.619c23.253 0 42.112 18.176 42.112 40.619s-18.859 40.619-42.112 40.619zM352 393.045c23.253 0 42.112 18.176 42.112 40.619s-18.859 40.619-42.112 40.619c-23.211 0-42.069-18.176-42.069-40.619s18.859-40.619 42.069-40.619zM4258.091 609.579c17.237 0 30.592-12.885 30.592-29.525v-340.096c0-16.683-12.544-29.568-29.781-29.568-17.28 0-30.592 12.885-30.592 29.568v340.096c0 15.915 13.312 29.525 29.781 29.525z" />
<glyph unicode="&#xe900;" glyph-name="snowflake-logo" horiz-adv-x="4147" d="M353.667-3.439c-10.935 5.712-17.336 11.582-23.501 21.546l-8.469 13.695-0.871 75.386c-0.479 41.463-1.351 75.386-1.938 75.386s-24.852-13.733-53.919-30.517c-72.368-41.789-73.987-42.543-91.368-42.47-27.907 0.115-51.123 17.459-58.463 43.679-6.654 23.77 1.533 46.733 22.533 63.184 12.941 10.137 209.263 123.393 221.957 128.043 14.918 5.466 30.797 4.505 46.359-2.804 16.517-7.76 21.572-12.925 29.284-29.922 5.479-12.079 5.712-17.927 5.744-143.239l0.035-130.646-6.6-14.048c-7.76-16.52-12.925-21.574-29.923-29.285-17.682-8.020-32.796-7.421-50.861 2.016zM581.245-3.439c-10.942 5.716-17.33 11.578-23.501 21.554l-8.469 13.702v273.411l8.443 13.829c14.301 23.429 44.144 34.638 69.104 25.961 12.54-4.358 221.127-124.73 229.675-132.539 11.624-10.619 17.286-25.339 17.286-44.93 0-15.729-1.177-19.797-9.131-31.56-13.119-19.402-29.019-27.206-52.678-25.856-17.553 1-20.674 2.433-80.073 36.748l-61.812 35.706-1.404-75.164c-1.308-69.982-1.82-75.939-7.431-86.403-7.543-14.074-13.26-19.269-29.149-26.475-17.682-8.020-32.796-7.421-50.861 2.016zM2779.567 297.785c-3.377 1.359-7.483 4.991-9.131 8.066-2.016 3.765-2.995 56.617-2.995 161.709v156.117h-25.415c-23.237 0-26.006 0.591-32.309 6.896-8.482 8.481-8.975 20.722-1.168 29.099 5.102 5.475 8.594 6.15 31.89 6.15h26.163l1.654 37.227c1.109 24.956 3.332 42.025 6.741 51.782 13.076 37.403 39.001 55.925 82.465 58.914 21.593 1.484 24.477 1.071 31.495-4.513 6.031-4.798 7.727-8.526 7.727-16.976 0-16.166-9.37-22.475-33.392-22.481-21.947-0.006-35.799-5.906-42.946-18.299-6.303-10.927-11.283-43.269-10.204-66.233l0.849-18.014 29.208-1.404c27.61-1.327 29.517-1.813 34.784-8.887 6.59-8.848 5.064-18.974-4.151-27.56-5.281-4.921-9.874-5.697-33.678-5.697h-27.566v-317.076l-7.402-5.822c-7.939-6.244-12.912-6.903-22.62-2.995zM40.536 303.084c-19.265 8.75-34.955 33.027-34.906 54.009 0.030 13.076 6.104 28.309 15.387 38.582 5.806 6.425 32.614 23.816 70.002 45.408 46.040 26.588 59.761 35.747 57.133 38.13-1.903 1.725-27.486 16.849-56.842 33.609-29.359 16.76-57.574 33.601-62.699 37.424-22.673 16.916-28.67 52.442-13.146 77.867 14.302 23.427 44.144 34.637 69.104 25.96 12.54-4.358 221.127-124.73 229.675-132.539 10.756-9.825 17.742-26.408 17.889-42.45 0.181-20.167-4.459-32.391-16.8-44.249-8.736-8.397-182.787-111.243-221.8-131.062-14.858-7.547-37.252-7.84-52.992-0.691zM900.471 300.432c-10.046 4.133-221.8 126.931-227.173 131.738-14.116 12.636-21.493 41.327-15.932 61.98 5.972 22.18 18.897 31.62 132.884 97.093 103.635 59.526 116.812 66.163 131.277 66.132 21.584-0.049 46.886-16.583 54.965-35.918 5.38-12.878 5.155-38.166-0.448-49.972-7.251-15.274-21.768-25.944-81.9-60.196-31.203-17.77-56.764-33.062-56.808-33.98s26.786-17.171 59.625-36.115c32.839-18.944 62.672-37.157 66.299-40.474 11.624-10.627 17.286-25.344 17.286-44.934 0-15.729-1.177-19.797-9.131-31.56-12.041-17.803-28.503-26.527-49.611-26.288-8.643 0.098-18.24 1.218-21.334 2.489zM1213.74 299.695c-28.992 4.803-75.208 27.144-86.9 42.005-3.199 4.067-5.814 10.384-5.814 14.040 0 6.71 8.811 17.883 14.106 17.883 1.577 0 14.242-5.712 28.141-12.695 32.443-16.294 56.318-21.952 85.592-20.279 42.891 2.449 73.698 21.193 79.494 48.371 7.446 34.908-12.736 51.724-91.059 75.886-71.46 22.045-95.493 36.287-109.484 64.882-6.714 13.727-7.358 17.687-6.269 38.474 1.606 30.602 10.93 48.596 33.972 65.581 20.69 15.246 40.458 22.586 71.466 26.528 29.761 3.785 53.567-0.636 80.376-14.925 21.101-11.246 45.385-33.147 49.339-44.497 2.636-7.561 2.157-9.423-4.001-15.582-8.606-8.604-14.231-7.297-33.17 7.707-7.494 5.936-20.77 14.301-29.502 18.59-13.98 6.865-19.073 7.797-42.627 7.797-24.641 0-28.254-0.739-45.768-9.364-39.813-19.6-46.619-55.724-14.355-76.184 7.251-4.6 34.823-15.505 61.269-24.234 63.167-20.85 86.223-31.948 104.644-50.369 11.445-11.446 15.764-18.333 19.454-31.032 16.024-55.127-19.509-110.002-81.735-126.208-15.347-3.997-59.232-5.349-77.166-2.379zM1447.427 304.27l-6.107 6.502v167.313c0 165.013 0.080 167.414 5.827 174.715 7.522 9.563 22.289 10.168 30.59 1.253 4.422-4.747 5.729-9.926 5.729-22.716v-16.566l13.152 11.576c14.703 12.943 40.973 26.444 59.977 30.822 19.027 4.385 55.891 3.63 73.164-1.497 39.499-11.726 75.381-40.174 91.861-72.827 17.28-34.244 17.519-36.423 17.519-160.562 0-109.532-0.185-113.466-5.618-118.897-7.57-7.571-22.782-7.423-29.766 0.291-5.027 5.55-5.435 12.852-6.758 120.111l-1.404 114.202-8.691 18.261c-11.049 23.21-28.503 40.662-51.714 51.712-16.517 7.865-20.809 8.686-44.956 8.593-23.203-0.087-28.753-1.102-42.489-7.764-24.549-11.903-40.178-27.415-52.267-51.869l-10.601-21.437-0.847-112.865c-0.812-108.113-1.084-113.118-6.432-118.859-7.651-8.211-22.197-7.966-30.161 0.51zM1925.972 303.018c-54.060 15.561-101.871 62.785-119.841 118.368-9.224 28.532-10.394 76.785-2.551 105.368 8.204 29.899 22.705 56.576 42.501 78.182 67.212 73.352 172.812 75.941 242.877 5.954 43.724-43.677 62.824-106.52 50.787-167.121-14.095-70.941-68.336-129.144-133.137-142.853-21.688-4.588-60.952-3.563-80.637 2.103zM2005.788 345.233c47.535 14.795 80.954 54.24 92.050 108.651 15.216 74.617-36.8 152.473-109.646 164.11-90.588 14.471-167.987-80.013-143.464-175.129 12.328-47.806 52.45-89.697 95.62-99.831 18.83-4.421 47.242-3.466 65.439 2.199zM2302.926 301.288c-4.694 3.433-128.151 330.296-128.255 339.571-0.027 2.495 2.57 7.869 5.772 11.941 7.756 9.857 22.446 10.235 29.892 0.775 2.869-3.646 27.811-68.141 55.425-143.323s50.479-136.364 50.802-135.958c0.328 0.406 17.981 42.46 39.222 93.454 24.813 59.558 41.081 94.977 45.487 99.039 9.18 8.462 21.932 8.246 29.858-0.507 3.403-3.755 23.258-47.973 44.116-98.259 20.863-50.286 38.653-91.464 39.537-91.505s24.222 61.991 51.871 137.85c34.937 95.871 51.984 139.134 55.912 141.884 13.644 9.559 32.498 0.546 32.498-15.541 0-10.51-118.581-330.198-125.186-337.496-6.252-6.912-21.991-7.171-28.688-0.476-2.733 2.733-22.478 46.667-43.877 97.634s-39.84 93.68-40.973 94.919c-1.135 1.239-19.632-39.761-41.103-91.111s-41.347-96.298-44.171-99.885c-5.772-7.34-20.109-8.868-28.135-3zM2965.253 303.678c-5.163 5.704-5.38 14.452-6.14 246.542-0.433 132.346-0.084 243.504 0.775 247.021 4.217 17.253 24.228 23.034 36.664 10.594l6.898-6.896v-244.183c0-242.779-0.034-244.225-5.827-251.586-7.543-9.59-24.342-10.363-32.372-1.49zM3193.096 302.853c-28.277 8.418-51.778 22.758-74.511 45.457-35.729 35.676-53.322 78.804-53.322 130.674 0 52.891 17.493 95.095 54.885 132.434 34.742 34.687 70.93 49.935 117.905 49.674 41.997-0.234 81.433-15.827 113.564-44.903l17.081-15.458v23.492c0 25.901 3.409 34.112 15.411 37.123 8.183 2.053 22.355-4.243 24.987-11.103 0.96-2.502 1.746-80.083 1.746-172.405v-167.856l-6.502-6.108c-8.274-7.775-22.506-8.006-30.021-0.49-4.799 4.799-5.618 9.366-5.618 31.266v25.645l-15.32-14.89c-18.588-18.064-35.83-29.080-60.329-38.536-24.916-9.618-74.452-11.609-99.952-4.018zM3272.819 345.204c23.567 7.335 38.669 16.81 55.996 35.131 31.035 32.817 45.085 80.925 36.448 124.783-12.068 61.257-54.158 104.192-110.744 112.974-89.925 13.952-165.408-78.011-142.789-173.966 11.261-47.784 52.033-90.829 95.745-101.091 18.783-4.41 47.242-3.466 65.344 2.168zM3489.713 305.17c-5.788 7.36-5.827 8.813-5.827 251.079s0.034 243.72 5.827 251.079c6.177 7.857 18.072 9.849 27.784 4.652 10.763-5.76 11.347-15.379 11.347-186.192v-165.626l105.168 102.83c116.296 113.709 114.098 112.112 129.375 93.956 10.648-12.656 7.847-19.734-17.617-44.525-11.915-11.597-43.369-42.135-69.894-67.857l-48.228-46.769 68.934-83.86c37.911-46.122 70.013-86.694 71.332-90.157 5.016-13.178-5.019-26.013-20.337-26.013-10.713 0-11.245 0.557-80.059 83.585-38.1 45.973-69.759 84.154-70.352 84.853s-16.209-13.823-34.699-32.265l-33.619-33.532v-39.66c0-53.18-3.874-62.977-24.9-62.977-5.738 0-10.259 2.351-14.231 7.402zM3923.592 303.025c-56.27 16.223-103.351 61.77-122.349 118.361-8.368 24.929-10.409 69.936-4.443 97.955 13.136 61.676 61.043 114.937 120.569 134.034 32.573 10.451 72.456 10.508 104.558 0.153 66.074-21.316 113.305-80.759 123.52-155.464 1.819-13.3 1.351-15.282-5.142-21.774l-7.143-7.143h-298.567l1.991-11.784c9.455-55.984 48.137-99.476 101.053-113.631 7.727-2.068 24.976-3.773 38.334-3.792 42.967-0.059 74.563 14.246 102.347 46.343 29.691 34.295 31.516 35.851 39.85 33.878 10.405-2.461 17.542-11.554 17.542-22.344 0-6.62-4.134-14.057-16.153-29.062-27.631-34.487-60.797-57.377-97.181-67.063-20.944-5.576-77.469-4.813-98.79 1.333zM4097.877 519.020c-6.919 27.829-30.65 60.828-55.7 77.455-41.158 27.316-99.579 28.9-140.672 3.809-26.185-15.988-52.726-50.523-60.3-78.453l-2.856-10.536h261.448l-1.922 7.725zM429.252 412.348l-47.151 47.153v36.159l94.301 94.304h36.156l94.301-94.304v-36.159l-94.301-94.304h-36.156l-47.151 47.153zM517.411 454.653c10.573 10.574 16.408 18.726 16.408 22.926s-5.837 12.351-16.408 22.926c-10.573 10.574-18.728 16.408-22.927 16.408s-12.349-5.835-22.927-16.408c-10.573-10.574-16.408-18.726-16.408-22.926s5.837-12.351 16.408-22.926c10.573-10.574 18.728-16.408 22.927-16.408s12.349 5.835 22.927 16.408zM359.625 608.699c-8.807 3.604-215.372 123.154-224.25 129.784-22.674 16.933-28.671 52.449-13.146 77.872 14.305 23.432 44.164 34.644 69.104 25.952 5.253-1.831 36.345-18.792 69.091-37.69l59.541-34.362 1.732 152.647 7.804 13.27c15.179 25.822 47.27 36.628 73.856 24.868 18.041-7.98 23.21-12.918 31.093-29.712l6.6-14.048 0.057-261.689-7.727-15.236c-11.207-22.094-26.18-31.746-50.693-32.67-10.367-0.391-20.738 0.066-23.058 1.012zM582.788 612.138c-13.857 6.293-28.422 23.217-32.286 37.518-1.788 6.611-2.544 59.368-2.037 141.884l0.808 131.36 7.804 13.27c15.179 25.822 47.27 36.628 73.856 24.868 18.041-7.98 23.21-12.918 31.093-29.712 6.389-13.599 6.6-16.359 6.629-86.396 0.014-39.792 0.812-72.348 1.772-72.348s28.141 15.26 60.405 33.91c57.881 33.461 70.096 39.153 83.93 39.124 21.584-0.049 46.886-16.583 54.965-35.918 5.314-12.716 5.177-38.119-0.266-49.59-2.377-5.010-8.383-12.976-13.349-17.7-7.696-7.325-185.367-111.819-220.332-129.581-14.858-7.547-37.251-7.84-52.993-0.691z" />
</font>
</defs>
</svg>
